<svg id="svg" version="1.1" xmlns="http://www.w3.org/2000/svg" xmlns:xlink="http://www.w3.org/1999/xlink" width="50" height="50" viewBox="0, 0, 400,400"><g id="svgg"><path id="path0" d="M146.800 101.200 C 146.800 101.420,146.472 101.600,146.070 101.600 C 145.339 101.600,139.176 104.626,138.800 105.169 C 138.690 105.328,138.330 105.582,138.000 105.734 C 134.842 107.182,120.800 120.680,120.800 122.267 C 120.800 122.483,120.350 123.083,119.800 123.600 C 119.250 124.117,118.800 124.697,118.800 124.889 C 118.800 125.081,118.395 125.636,117.900 126.122 C 116.838 127.164,116.253 128.062,115.307 130.100 C 114.925 130.925,114.478 131.600,114.316 131.600 C 114.153 131.600,113.610 132.431,113.110 133.448 C 111.620 136.473,111.424 136.800,111.105 136.800 C 110.937 136.800,110.800 136.979,110.800 137.197 C 110.800 137.880,109.427 140.800,109.106 140.800 C 108.938 140.800,108.800 140.979,108.800 141.197 C 108.800 141.880,107.427 144.800,107.106 144.800 C 106.938 144.800,106.800 145.216,106.800 145.724 C 106.800 146.231,106.536 146.996,106.213 147.424 C 105.890 147.851,105.620 148.594,105.613 149.076 C 105.606 149.558,105.434 150.055,105.231 150.181 C 105.028 150.306,104.735 150.986,104.580 151.691 C 104.425 152.397,104.141 153.295,103.949 153.687 C 103.757 154.079,103.435 154.734,103.233 155.141 C 103.032 155.549,102.741 156.721,102.587 157.746 C 102.433 158.771,102.148 159.708,101.954 159.829 C 101.759 159.949,101.600 160.476,101.600 161.000 C 101.600 161.524,101.434 162.055,101.231 162.181 C 101.029 162.306,100.737 163.579,100.584 165.010 C 100.431 166.441,100.147 167.709,99.953 167.829 C 99.759 167.949,99.600 168.667,99.600 169.424 C 99.600 170.181,99.435 170.800,99.234 170.800 C 99.032 170.800,98.739 172.784,98.582 175.209 C 98.425 177.633,98.139 179.714,97.948 179.832 C 97.757 179.950,97.600 182.546,97.600 185.600 C 97.600 188.870,97.436 191.254,97.200 191.400 C 96.980 191.536,96.800 192.177,96.800 192.824 C 96.800 193.471,96.980 194.000,97.200 194.000 C 97.448 194.000,97.600 196.125,97.600 199.576 C 97.600 202.643,97.758 205.251,97.952 205.370 C 98.145 205.490,98.433 207.480,98.590 209.794 C 98.748 212.107,99.040 214.000,99.238 214.000 C 99.437 214.000,99.600 214.709,99.600 215.576 C 99.600 216.443,99.759 217.251,99.953 217.371 C 100.148 217.491,100.434 218.611,100.590 219.859 C 100.746 221.107,101.037 222.460,101.237 222.864 C 101.437 223.269,101.780 223.958,102.000 224.395 C 102.220 224.832,102.400 225.569,102.400 226.034 C 102.400 226.499,102.688 227.536,103.041 228.340 C 104.222 231.031,104.352 231.394,104.608 232.700 C 104.749 233.415,105.029 234.000,105.232 234.000 C 105.434 234.000,105.600 234.303,105.600 234.674 C 105.600 235.488,112.399 249.199,113.200 250.000 C 113.604 250.404,114.430 251.820,114.658 252.500 C 114.788 252.885,115.014 253.200,115.160 253.200 C 115.307 253.200,115.769 253.785,116.187 254.500 C 116.604 255.215,117.273 256.035,117.673 256.323 C 118.073 256.610,118.400 257.074,118.400 257.353 C 118.400 257.632,118.850 258.283,119.400 258.800 C 119.950 259.317,120.405 259.933,120.411 260.170 C 120.417 260.406,120.957 261.125,121.611 261.767 C 122.265 262.408,122.800 263.061,122.800 263.217 C 122.800 263.581,133.628 274.400,133.993 274.400 C 134.145 274.400,135.090 275.210,136.094 276.200 C 137.098 277.190,138.084 278.000,138.285 278.000 C 138.486 278.000,139.168 278.540,139.800 279.200 C 140.432 279.860,141.176 280.400,141.452 280.400 C 141.729 280.400,142.190 280.727,142.477 281.126 C 142.765 281.526,143.270 281.981,143.600 282.139 C 143.930 282.296,145.100 282.958,146.200 283.609 C 147.300 284.261,148.515 284.906,148.900 285.044 C 149.285 285.181,149.600 285.453,149.600 285.648 C 149.600 285.843,150.320 286.314,151.200 286.696 C 152.080 287.077,152.800 287.526,152.800 287.694 C 152.800 287.862,152.979 288.000,153.197 288.000 C 153.880 288.000,156.800 289.373,156.800 289.694 C 156.800 289.862,156.979 290.000,157.197 290.000 C 157.843 290.000,160.800 291.365,160.800 291.663 C 160.800 291.813,161.385 292.056,162.100 292.202 C 163.711 292.531,165.600 293.311,165.600 293.647 C 165.600 293.785,166.328 294.014,167.217 294.156 C 168.719 294.396,170.328 295.066,170.800 295.646 C 170.910 295.781,172.064 296.023,173.364 296.183 C 174.665 296.343,176.015 296.609,176.364 296.774 C 176.714 296.940,177.367 297.261,177.816 297.489 C 178.265 297.716,179.931 298.032,181.518 298.192 C 183.105 298.351,184.503 298.643,184.625 298.841 C 184.747 299.038,185.722 299.200,186.790 299.200 C 187.989 299.200,188.797 299.391,188.900 299.700 C 189.029 300.088,192.511 300.200,204.513 300.200 C 216.337 300.200,220.077 300.083,220.460 299.700 C 220.735 299.425,221.723 299.200,222.656 299.200 C 223.589 299.200,224.449 299.044,224.568 298.853 C 224.686 298.661,226.042 298.381,227.582 298.229 C 229.122 298.078,230.486 297.784,230.614 297.577 C 230.742 297.370,231.366 297.200,232.000 297.200 C 232.634 297.200,233.258 297.030,233.386 296.823 C 233.514 296.616,234.467 296.319,235.503 296.164 C 236.539 296.008,237.962 295.559,238.664 295.164 C 239.365 294.770,240.628 294.321,241.470 294.166 C 242.311 294.011,243.090 293.776,243.200 293.642 C 243.559 293.207,245.177 292.400,245.695 292.398 C 245.973 292.397,247.621 291.677,249.358 290.798 C 251.095 289.919,252.850 289.200,253.258 289.200 C 253.666 289.200,254.000 289.020,254.000 288.800 C 254.000 288.580,254.198 288.400,254.440 288.400 C 254.955 288.400,257.708 287.156,258.000 286.792 C 258.110 286.654,258.470 286.418,258.800 286.266 C 259.130 286.115,259.940 285.631,260.600 285.191 C 261.260 284.751,262.115 284.282,262.500 284.149 C 262.885 284.016,263.200 283.769,263.200 283.600 C 263.200 283.431,263.515 283.184,263.900 283.051 C 264.285 282.918,265.056 282.492,265.614 282.105 C 266.172 281.717,267.206 281.040,267.912 280.600 C 268.617 280.160,269.196 279.665,269.197 279.500 C 269.199 279.335,269.439 279.200,269.730 279.200 C 270.022 279.200,270.683 278.750,271.200 278.200 C 271.717 277.650,272.313 277.200,272.525 277.200 C 272.886 277.200,275.267 275.241,277.644 272.989 C 278.218 272.445,278.850 272.000,279.049 272.000 C 279.501 272.000,290.400 261.111,290.400 260.659 C 290.400 260.477,291.210 259.541,292.200 258.579 C 293.190 257.617,294.000 256.675,294.000 256.485 C 294.000 256.295,294.450 255.717,295.000 255.200 C 295.550 254.683,296.000 254.053,296.000 253.800 C 296.000 253.547,296.450 252.917,297.000 252.400 C 297.550 251.883,298.000 251.231,298.000 250.950 C 298.000 250.669,298.225 250.296,298.500 250.120 C 299.063 249.760,299.658 248.848,300.668 246.800 C 301.048 246.030,301.493 245.305,301.658 245.190 C 302.107 244.874,306.399 236.279,306.400 235.695 C 306.400 235.417,306.565 234.877,306.766 234.495 C 307.745 232.640,308.400 230.782,308.400 229.863 C 308.400 229.304,308.580 228.736,308.800 228.600 C 309.020 228.464,309.200 227.643,309.200 226.776 C 309.200 225.909,309.380 225.200,309.600 225.200 C 310.950 225.200,309.991 219.897,308.345 218.253 L 306.689 216.600 303.659 216.706 C 301.992 216.764,300.451 216.989,300.234 217.206 C 300.017 217.423,299.167 217.600,298.344 217.600 C 297.521 217.600,296.742 217.770,296.614 217.977 C 296.486 218.184,295.533 218.481,294.497 218.636 C 293.461 218.792,292.067 219.225,291.400 219.600 C 290.733 219.975,289.339 220.408,288.303 220.564 C 287.267 220.719,286.314 221.016,286.186 221.223 C 286.058 221.430,285.459 221.600,284.856 221.600 C 284.253 221.600,283.575 221.785,283.349 222.011 C 283.124 222.236,282.008 222.532,280.869 222.666 C 279.731 222.801,278.800 223.066,278.800 223.256 C 278.800 223.445,278.206 223.600,277.480 223.600 C 276.754 223.600,275.976 223.784,275.750 224.010 C 275.525 224.235,272.969 224.533,270.070 224.671 C 267.172 224.810,264.800 225.076,264.800 225.262 C 264.800 225.448,261.740 225.600,258.000 225.600 C 254.260 225.600,251.200 225.447,251.200 225.261 C 251.200 225.074,248.909 224.799,246.109 224.650 C 243.309 224.500,240.843 224.203,240.629 223.989 C 240.415 223.775,239.736 223.600,239.120 223.600 C 238.504 223.600,238.000 223.443,238.000 223.252 C 238.000 223.060,236.900 222.779,235.555 222.627 C 234.210 222.474,232.725 222.153,232.255 221.913 C 230.612 221.072,230.164 220.900,228.891 220.620 C 228.186 220.465,227.506 220.172,227.381 219.969 C 227.255 219.766,226.713 219.600,226.176 219.600 C 225.639 219.600,225.200 219.420,225.200 219.200 C 225.200 218.980,224.830 218.800,224.377 218.800 C 223.924 218.800,222.748 218.350,221.763 217.800 C 220.778 217.250,219.799 216.800,219.589 216.800 C 218.916 216.800,216.000 215.423,216.000 215.106 C 216.000 214.938,215.821 214.800,215.603 214.800 C 214.920 214.800,212.000 213.427,212.000 213.106 C 212.000 212.938,211.802 212.800,211.560 212.800 C 211.080 212.800,208.322 211.577,208.000 211.221 C 207.675 210.862,206.358 210.116,203.700 208.785 C 202.325 208.097,201.200 207.389,201.200 207.213 C 201.200 207.037,200.885 206.788,200.500 206.658 C 199.604 206.357,198.508 205.635,197.225 204.500 C 196.666 204.005,196.074 203.600,195.909 203.600 C 195.744 203.600,194.760 202.700,193.722 201.600 C 192.684 200.500,191.649 199.600,191.423 199.600 C 190.889 199.600,180.400 189.139,180.399 188.606 C 180.399 188.383,179.686 187.530,178.815 186.710 C 177.944 185.891,176.910 184.721,176.518 184.110 C 176.125 183.500,175.398 182.672,174.902 182.271 C 174.406 181.870,174.000 181.313,174.000 181.033 C 174.000 180.753,173.640 180.198,173.200 179.800 C 172.760 179.402,172.400 178.843,172.400 178.558 C 172.400 178.273,172.175 177.896,171.900 177.720 C 171.354 177.370,170.600 176.261,170.041 174.984 C 169.844 174.535,169.406 173.937,169.067 173.656 C 168.729 173.375,168.336 172.617,168.194 171.972 C 168.052 171.328,167.813 170.800,167.663 170.800 C 167.365 170.800,166.000 167.843,166.000 167.197 C 166.000 166.979,165.862 166.800,165.694 166.800 C 165.373 166.800,164.000 163.880,164.000 163.197 C 164.000 162.979,163.864 162.800,163.698 162.800 C 163.292 162.800,162.482 160.919,162.146 159.197 C 161.997 158.429,161.768 157.710,161.637 157.600 C 161.000 157.063,160.411 155.473,160.167 153.635 C 160.018 152.516,159.740 151.600,159.548 151.600 C 159.357 151.600,159.200 151.006,159.200 150.280 C 159.200 149.554,159.028 148.788,158.817 148.577 C 158.607 148.367,158.311 146.711,158.160 144.897 C 158.009 143.084,157.731 141.600,157.542 141.600 C 157.354 141.600,157.200 140.081,157.200 138.224 C 157.200 136.367,157.045 134.751,156.855 134.634 C 156.665 134.517,156.378 128.701,156.217 121.710 C 156.057 114.720,155.762 108.940,155.563 108.867 C 155.363 108.793,155.200 108.039,155.200 107.190 C 155.200 106.342,155.043 105.550,154.852 105.432 C 154.660 105.314,154.402 104.718,154.279 104.108 C 154.130 103.368,153.580 102.746,152.627 102.237 C 151.842 101.817,151.200 101.322,151.200 101.137 C 151.200 100.952,150.210 100.800,149.000 100.800 C 147.790 100.800,146.800 100.980,146.800 101.200 " stroke="none" fill="#50483E" fill-rule="evenodd"></path><path id="path1" d="M97.200 38.740 C 97.200 38.926,94.365 39.205,90.900 39.358 C 87.435 39.512,84.540 39.809,84.467 40.019 C 84.393 40.228,83.628 40.400,82.767 40.400 C 81.905 40.400,81.200 40.557,81.200 40.748 C 81.200 40.940,80.120 41.219,78.800 41.368 C 77.480 41.518,76.400 41.811,76.400 42.020 C 76.400 42.229,75.950 42.400,75.400 42.400 C 74.850 42.400,74.400 42.557,74.400 42.749 C 74.400 42.941,73.680 43.213,72.800 43.354 C 71.920 43.494,71.200 43.787,71.200 44.005 C 71.200 44.222,70.840 44.400,70.400 44.400 C 69.960 44.400,69.600 44.560,69.600 44.757 C 69.600 44.953,69.116 45.235,68.524 45.383 C 67.932 45.532,67.146 46.001,66.777 46.426 C 66.409 46.851,65.549 47.310,64.866 47.447 C 64.165 47.587,63.522 48.014,63.391 48.427 C 63.264 48.830,62.808 49.270,62.380 49.406 C 61.951 49.543,61.600 49.822,61.600 50.027 C 61.600 50.232,61.411 50.400,61.181 50.400 C 60.520 50.400,53.200 57.867,53.200 58.541 C 53.200 58.874,52.849 59.257,52.420 59.394 C 51.992 59.530,51.516 60.037,51.363 60.520 C 51.211 61.004,50.752 61.691,50.344 62.046 C 49.935 62.402,49.489 63.257,49.351 63.946 C 49.213 64.636,48.943 65.200,48.750 65.200 C 48.558 65.200,48.400 65.470,48.400 65.800 C 48.400 66.130,48.228 66.400,48.018 66.400 C 47.808 66.400,47.518 67.030,47.374 67.800 C 47.229 68.570,46.951 69.200,46.755 69.200 C 46.560 69.200,46.400 69.650,46.400 70.200 C 46.400 70.750,46.222 71.200,46.005 71.200 C 45.787 71.200,45.494 71.920,45.354 72.800 C 45.213 73.680,44.941 74.400,44.749 74.400 C 44.557 74.400,44.400 75.015,44.400 75.767 C 44.400 76.518,44.207 77.198,43.970 77.277 C 43.707 77.364,43.451 79.550,43.310 82.910 C 43.184 85.929,42.927 88.400,42.740 88.400 C 42.553 88.400,42.400 139.250,42.400 201.400 C 42.400 265.311,42.551 314.400,42.748 314.400 C 42.940 314.400,43.224 316.020,43.378 318.000 C 43.533 319.980,43.827 321.600,44.030 321.600 C 44.234 321.600,44.400 322.230,44.400 323.000 C 44.400 323.770,44.563 324.400,44.762 324.400 C 44.962 324.400,45.249 325.300,45.400 326.400 C 45.551 327.500,45.838 328.400,46.038 328.400 C 46.237 328.400,46.400 328.850,46.400 329.400 C 46.400 329.950,46.566 330.400,46.768 330.400 C 46.971 330.400,47.255 330.940,47.400 331.600 C 47.545 332.260,47.829 332.800,48.032 332.800 C 48.234 332.800,48.400 333.160,48.400 333.600 C 48.400 334.040,48.560 334.400,48.757 334.400 C 48.953 334.400,49.235 334.884,49.383 335.476 C 49.532 336.068,49.976 336.833,50.370 337.176 C 50.763 337.519,51.213 338.205,51.370 338.700 C 51.526 339.195,51.822 339.600,52.027 339.600 C 52.232 339.600,52.400 339.870,52.400 340.200 C 52.400 340.530,52.568 340.800,52.773 340.800 C 52.978 340.800,53.257 341.151,53.394 341.580 C 53.530 342.008,53.992 342.470,54.420 342.606 C 54.849 342.743,55.200 343.132,55.200 343.471 C 55.200 344.156,58.520 347.600,59.181 347.600 C 59.411 347.600,59.600 347.768,59.600 347.973 C 59.600 348.178,59.951 348.457,60.380 348.594 C 60.808 348.730,61.270 349.191,61.406 349.620 C 61.542 350.048,62.091 350.508,62.627 350.642 C 63.162 350.777,63.600 351.047,63.600 351.243 C 63.600 351.440,63.941 351.600,64.357 351.600 C 64.774 351.600,65.218 351.870,65.345 352.200 C 65.471 352.530,65.941 352.800,66.387 352.800 C 66.834 352.800,67.200 352.980,67.200 353.200 C 67.200 353.420,67.393 353.600,67.629 353.600 C 67.864 353.600,68.327 353.870,68.657 354.200 C 68.987 354.530,69.694 354.800,70.229 354.800 C 70.763 354.800,71.200 354.980,71.200 355.200 C 71.200 355.420,71.470 355.600,71.800 355.600 C 72.130 355.600,72.400 355.778,72.400 355.995 C 72.400 356.213,73.120 356.506,74.000 356.646 C 74.880 356.787,75.600 357.059,75.600 357.251 C 75.600 357.443,76.050 357.600,76.600 357.600 C 77.150 357.600,77.600 357.762,77.600 357.959 C 77.600 358.157,78.860 358.445,80.400 358.600 C 81.940 358.755,83.200 359.043,83.200 359.241 C 83.200 359.438,84.175 359.600,85.367 359.600 C 86.744 359.600,87.594 359.782,87.700 360.100 C 87.945 360.836,318.055 360.836,318.300 360.100 C 318.410 359.769,319.336 359.600,321.033 359.600 C 322.445 359.600,323.600 359.443,323.600 359.252 C 323.600 359.060,324.680 358.781,326.000 358.632 C 327.320 358.482,328.400 358.189,328.400 357.980 C 328.400 357.771,328.940 357.600,329.600 357.600 C 330.260 357.600,330.800 357.431,330.800 357.225 C 330.800 357.018,331.610 356.728,332.600 356.579 C 333.590 356.431,334.400 356.150,334.400 355.955 C 334.400 355.760,334.670 355.600,335.000 355.600 C 335.330 355.600,335.600 355.428,335.600 355.218 C 335.600 355.008,336.230 354.718,337.000 354.574 C 337.770 354.429,338.400 354.151,338.400 353.955 C 338.400 353.760,338.670 353.600,339.000 353.600 C 339.330 353.600,339.600 353.432,339.600 353.227 C 339.600 353.022,340.005 352.726,340.500 352.570 C 340.995 352.413,341.670 351.977,342.000 351.600 C 342.330 351.223,342.996 350.789,343.480 350.637 C 343.963 350.484,344.467 350.017,344.600 349.600 C 344.733 349.183,345.220 348.721,345.684 348.573 C 346.659 348.264,351.600 343.466,351.600 342.829 C 351.600 342.593,351.768 342.400,351.973 342.400 C 352.178 342.400,352.457 342.049,352.594 341.620 C 352.730 341.192,353.192 340.730,353.620 340.594 C 354.049 340.457,354.400 339.993,354.400 339.560 C 354.400 339.128,354.670 338.671,355.000 338.545 C 355.330 338.418,355.600 337.993,355.600 337.600 C 355.600 337.207,355.870 336.782,356.200 336.655 C 356.530 336.529,356.800 336.059,356.800 335.613 C 356.800 335.166,356.980 334.800,357.200 334.800 C 357.420 334.800,357.600 334.530,357.600 334.200 C 357.600 333.870,357.778 333.600,357.995 333.600 C 358.213 333.600,358.506 332.880,358.646 332.000 C 358.787 331.120,359.059 330.400,359.251 330.400 C 359.443 330.400,359.600 330.040,359.600 329.600 C 359.600 329.160,359.778 328.800,359.995 328.800 C 360.213 328.800,360.506 328.080,360.646 327.200 C 360.787 326.320,361.059 325.600,361.251 325.600 C 361.443 325.600,361.600 325.150,361.600 324.600 C 361.600 324.050,361.766 323.600,361.970 323.600 C 362.173 323.600,362.467 321.980,362.622 320.000 C 362.776 318.020,363.060 316.400,363.252 316.400 C 363.443 316.400,363.600 312.440,363.600 307.600 C 363.600 302.000,363.745 298.800,364.000 298.800 C 364.266 298.800,364.400 263.800,364.400 194.600 C 364.400 125.400,364.266 90.400,364.000 90.400 C 363.765 90.400,363.600 89.000,363.600 87.000 C 363.600 85.130,363.443 83.600,363.252 83.600 C 363.060 83.600,362.776 81.980,362.622 80.000 C 362.467 78.020,362.173 76.400,361.970 76.400 C 361.766 76.400,361.600 75.770,361.600 75.000 C 361.600 74.230,361.437 73.600,361.238 73.600 C 361.038 73.600,360.751 72.700,360.600 71.600 C 360.449 70.500,360.162 69.600,359.962 69.600 C 359.763 69.600,359.600 69.330,359.600 69.000 C 359.600 68.670,359.428 68.400,359.218 68.400 C 359.008 68.400,358.718 67.770,358.574 67.000 C 358.429 66.230,358.151 65.600,357.955 65.600 C 357.760 65.600,357.600 65.330,357.600 65.000 C 357.600 64.670,357.428 64.400,357.218 64.400 C 357.008 64.400,356.719 63.776,356.576 63.014 C 356.415 62.155,356.028 61.536,355.558 61.387 C 355.141 61.254,354.800 60.823,354.800 60.429 C 354.800 60.035,354.350 59.374,353.800 58.961 C 353.250 58.548,352.800 57.994,352.800 57.730 C 352.800 57.146,346.148 50.400,345.571 50.400 C 345.346 50.400,344.745 49.950,344.235 49.400 C 343.725 48.850,343.104 48.400,342.854 48.400 C 342.604 48.400,342.400 48.232,342.400 48.027 C 342.400 47.822,341.995 47.526,341.500 47.370 C 341.005 47.213,340.309 46.752,339.954 46.344 C 339.598 45.935,338.743 45.489,338.054 45.351 C 337.364 45.213,336.800 44.943,336.800 44.750 C 336.800 44.558,336.530 44.400,336.200 44.400 C 335.870 44.400,335.600 44.222,335.600 44.005 C 335.600 43.787,334.880 43.494,334.000 43.354 C 333.120 43.213,332.400 42.941,332.400 42.749 C 332.400 42.557,332.040 42.400,331.600 42.400 C 331.160 42.400,330.800 42.237,330.800 42.038 C 330.800 41.838,329.900 41.551,328.800 41.400 C 327.700 41.249,326.800 40.962,326.800 40.762 C 326.800 40.563,326.095 40.400,325.233 40.400 C 324.360 40.400,323.595 40.185,323.505 39.914 C 323.383 39.548,319.574 39.388,308.071 39.266 C 299.672 39.177,292.800 38.945,292.800 38.752 C 292.800 38.550,252.694 38.400,199.000 38.400 C 136.733 38.400,105.200 38.534,105.200 38.800 C 105.200 39.033,103.867 39.200,102.000 39.200 C 100.133 39.200,98.800 39.033,98.800 38.800 C 98.800 38.580,98.440 38.400,98.000 38.400 C 97.560 38.400,97.200 38.553,97.200 38.740 M151.800 101.200 C 152.198 101.640,152.707 102.000,152.930 102.000 C 153.703 102.000,154.800 103.327,154.800 104.262 C 154.800 104.778,154.980 105.200,155.200 105.200 C 155.420 105.200,155.600 105.884,155.600 106.720 C 155.600 107.556,155.766 108.411,155.969 108.620 C 156.171 108.829,156.467 114.720,156.626 121.712 C 156.784 128.703,157.069 134.519,157.257 134.635 C 157.446 134.752,157.600 136.266,157.600 138.000 C 157.600 139.734,157.758 141.251,157.952 141.370 C 158.146 141.490,158.432 143.120,158.588 144.993 C 158.744 146.865,159.035 148.498,159.236 148.622 C 159.436 148.746,159.600 149.366,159.600 150.000 C 159.600 150.634,159.759 151.251,159.953 151.371 C 160.148 151.491,160.430 152.582,160.582 153.795 C 160.734 155.008,160.981 156.000,161.131 156.000 C 161.512 156.000,162.328 157.931,162.654 159.603 C 162.803 160.371,163.042 161.090,163.184 161.200 C 163.551 161.485,164.800 164.236,164.800 164.760 C 164.800 165.002,164.938 165.200,165.106 165.200 C 165.427 165.200,166.800 168.120,166.800 168.803 C 166.800 169.021,166.938 169.200,167.106 169.200 C 167.427 169.200,168.800 172.120,168.800 172.803 C 168.800 173.021,168.952 173.200,169.137 173.200 C 169.322 173.200,169.813 173.830,170.228 174.600 C 170.643 175.370,171.100 176.000,171.244 176.000 C 171.389 176.000,171.612 176.315,171.742 176.700 C 172.011 177.502,172.771 178.716,173.503 179.514 C 173.779 179.816,174.213 180.450,174.466 180.924 C 174.720 181.397,175.348 182.116,175.864 182.521 C 176.379 182.927,176.800 183.477,176.800 183.744 C 176.800 184.011,177.700 185.117,178.800 186.200 C 179.900 187.283,180.800 188.322,180.800 188.508 C 180.800 188.949,191.051 199.200,191.492 199.200 C 191.678 199.200,192.717 200.100,193.800 201.200 C 194.883 202.300,195.920 203.200,196.102 203.200 C 196.285 203.200,196.920 203.650,197.513 204.200 C 198.107 204.750,198.799 205.200,199.053 205.200 C 199.307 205.200,199.618 205.470,199.745 205.800 C 199.871 206.130,200.223 206.400,200.525 206.400 C 200.828 206.400,201.387 206.744,201.767 207.164 C 202.148 207.584,202.939 208.049,203.525 208.196 C 204.112 208.343,204.684 208.584,204.796 208.732 C 205.099 209.130,206.409 209.908,208.100 210.693 C 208.925 211.075,209.600 211.526,209.600 211.694 C 209.600 211.862,209.779 212.000,209.997 212.000 C 210.680 212.000,213.600 213.373,213.600 213.694 C 213.600 213.862,213.779 214.000,213.997 214.000 C 214.659 214.000,217.600 215.368,217.600 215.676 C 217.600 215.834,218.275 216.088,219.100 216.240 C 219.925 216.391,220.690 216.634,220.800 216.779 C 221.127 217.209,223.872 218.400,224.537 218.400 C 224.876 218.400,225.264 218.580,225.400 218.800 C 225.536 219.020,226.087 219.200,226.624 219.200 C 227.161 219.200,227.600 219.378,227.600 219.595 C 227.600 219.813,228.320 220.106,229.200 220.246 C 230.080 220.387,230.800 220.659,230.800 220.851 C 230.800 221.043,231.250 221.200,231.800 221.200 C 232.350 221.200,232.800 221.359,232.800 221.553 C 232.800 221.748,233.968 222.032,235.396 222.185 C 236.823 222.338,238.094 222.629,238.219 222.831 C 238.345 223.034,238.962 223.200,239.590 223.200 C 240.219 223.200,240.793 223.375,240.867 223.589 C 240.940 223.804,243.302 224.101,246.115 224.251 C 248.928 224.401,251.323 224.676,251.438 224.862 C 251.711 225.303,264.289 225.304,264.561 224.863 C 264.676 224.677,267.148 224.411,270.055 224.272 C 272.962 224.133,275.525 223.835,275.750 223.610 C 275.976 223.384,276.653 223.200,277.256 223.200 C 277.859 223.200,278.451 223.041,278.571 222.847 C 278.691 222.652,279.782 222.370,280.995 222.218 C 282.208 222.066,283.200 221.775,283.200 221.571 C 283.200 221.367,283.830 221.200,284.600 221.200 C 285.370 221.200,286.000 221.040,286.000 220.845 C 286.000 220.650,286.855 220.369,287.900 220.219 C 289.902 219.933,292.000 219.180,292.000 218.748 C 292.000 218.607,292.987 218.369,294.194 218.218 C 295.400 218.067,296.491 217.777,296.617 217.572 C 296.744 217.367,297.542 217.200,298.390 217.200 C 299.239 217.200,299.993 217.025,300.067 216.812 C 300.140 216.598,301.676 216.373,303.481 216.312 L 306.761 216.200 308.581 217.983 C 310.422 219.789,311.338 224.573,310.000 225.400 C 309.780 225.536,309.600 226.357,309.600 227.224 C 309.600 228.091,309.420 228.800,309.200 228.800 C 308.980 228.800,308.800 229.396,308.800 230.124 C 308.800 230.851,308.536 231.796,308.213 232.224 C 307.890 232.651,307.620 233.405,307.613 233.900 C 307.606 234.395,307.420 234.800,307.200 234.800 C 306.980 234.800,306.800 235.136,306.800 235.547 C 306.800 236.435,301.960 246.112,301.171 246.800 C 301.045 246.910,300.813 247.270,300.655 247.600 C 300.210 248.533,299.489 249.691,298.411 251.208 C 297.025 253.159,296.970 253.230,295.614 254.853 C 294.946 255.652,294.400 256.469,294.400 256.670 C 294.400 256.870,293.590 257.828,292.600 258.800 C 291.610 259.772,290.800 260.703,290.800 260.870 C 290.800 261.645,276.928 274.800,276.111 274.800 C 275.916 274.800,275.146 275.430,274.400 276.200 C 273.654 276.970,272.859 277.600,272.634 277.600 C 272.409 277.600,271.860 278.017,271.413 278.528 C 270.966 279.038,270.330 279.580,270.000 279.732 C 269.670 279.884,268.932 280.322,268.360 280.704 C 265.999 282.283,264.989 282.994,264.800 283.212 C 264.690 283.338,263.970 283.760,263.200 284.150 C 260.910 285.309,259.906 285.907,259.646 286.270 C 259.306 286.744,253.631 289.600,253.029 289.600 C 252.761 289.600,251.149 290.320,249.449 291.200 C 247.748 292.080,246.007 292.800,245.578 292.800 C 245.150 292.800,244.800 292.936,244.800 293.102 C 244.800 293.506,242.925 294.316,241.197 294.658 C 240.429 294.809,239.234 295.250,238.543 295.636 C 237.852 296.022,236.454 296.463,235.438 296.615 C 234.422 296.768,233.492 297.052,233.371 297.246 C 233.251 297.441,232.634 297.600,232.000 297.600 C 231.366 297.600,230.742 297.770,230.614 297.977 C 230.486 298.184,229.126 298.477,227.591 298.628 C 226.056 298.780,224.800 299.060,224.800 299.252 C 224.800 299.443,223.936 299.600,222.880 299.600 C 221.824 299.600,220.735 299.825,220.460 300.100 C 220.077 300.483,216.354 300.600,204.600 300.600 C 192.845 300.600,189.123 300.483,188.740 300.100 C 188.465 299.825,187.477 299.600,186.544 299.600 C 185.611 299.600,184.749 299.441,184.629 299.248 C 184.510 299.054,183.060 298.768,181.408 298.614 C 179.757 298.459,178.304 298.167,178.179 297.966 C 178.055 297.765,177.513 297.600,176.976 297.600 C 176.439 297.600,176.000 297.443,176.000 297.252 C 176.000 297.060,174.900 296.779,173.555 296.627 C 171.367 296.379,169.774 295.844,169.200 295.163 C 169.090 295.032,168.371 294.803,167.603 294.654 C 165.881 294.318,164.000 293.508,164.000 293.102 C 164.000 292.936,163.641 292.800,163.203 292.800 C 162.217 292.800,159.200 291.523,159.200 291.106 C 159.200 290.938,159.021 290.800,158.803 290.800 C 158.120 290.800,155.200 289.427,155.200 289.106 C 155.200 288.938,155.002 288.800,154.760 288.800 C 154.245 288.800,151.492 287.556,151.200 287.192 C 151.090 287.054,150.730 286.821,150.400 286.673 C 149.613 286.321,148.253 285.464,148.000 285.160 C 147.732 284.838,144.432 282.912,143.290 282.411 C 142.789 282.192,142.275 281.739,142.147 281.406 C 142.019 281.073,141.671 280.800,141.373 280.800 C 140.828 280.800,140.421 280.477,136.361 276.818 C 135.130 275.708,133.960 274.796,133.761 274.791 C 133.271 274.778,122.400 263.814,122.400 263.332 C 122.400 263.122,121.860 262.432,121.200 261.800 C 120.540 261.168,120.000 260.496,120.000 260.307 C 120.000 260.118,119.550 259.514,119.000 258.964 C 118.450 258.414,118.000 257.773,118.000 257.539 C 118.000 257.306,117.550 256.761,117.000 256.329 C 116.450 255.896,116.000 255.313,116.000 255.033 C 116.000 254.753,115.640 254.198,115.200 253.800 C 114.760 253.402,114.400 252.843,114.400 252.558 C 114.400 252.273,114.165 251.896,113.878 251.720 C 113.592 251.544,113.007 250.708,112.578 249.861 C 111.122 246.983,111.010 246.800,110.705 246.800 C 110.537 246.800,110.400 246.621,110.400 246.403 C 110.400 245.720,109.027 242.800,108.706 242.800 C 108.538 242.800,108.400 242.621,108.400 242.403 C 108.400 241.720,107.027 238.800,106.706 238.800 C 106.538 238.800,106.400 238.602,106.400 238.360 C 106.400 238.119,106.130 237.309,105.800 236.560 C 105.470 235.812,104.930 234.588,104.600 233.840 C 104.270 233.091,104.000 232.101,104.000 231.640 C 104.000 231.178,103.820 230.800,103.600 230.800 C 103.380 230.800,103.200 230.365,103.200 229.833 C 103.200 229.302,103.002 228.801,102.761 228.720 C 102.519 228.640,102.226 227.725,102.109 226.687 C 101.992 225.649,101.739 224.800,101.548 224.800 C 101.357 224.800,101.200 224.350,101.200 223.800 C 101.200 223.250,101.041 222.800,100.847 222.800 C 100.652 222.800,100.368 221.630,100.215 220.200 C 100.062 218.770,99.771 217.600,99.568 217.600 C 99.366 217.600,99.200 216.891,99.200 216.024 C 99.200 215.157,99.037 214.347,98.839 214.224 C 98.640 214.101,98.348 212.110,98.191 209.800 C 98.033 207.490,97.746 205.600,97.552 205.600 C 97.358 205.600,97.200 203.091,97.200 200.024 C 97.200 196.737,97.036 194.346,96.800 194.200 C 96.580 194.064,96.400 193.434,96.400 192.800 C 96.400 192.166,96.580 191.536,96.800 191.400 C 97.036 191.254,97.200 188.870,97.200 185.600 C 97.200 182.546,97.353 179.953,97.540 179.837 C 97.727 179.721,98.006 177.686,98.159 175.314 C 98.313 172.943,98.609 170.831,98.819 170.621 C 99.029 170.411,99.200 169.747,99.200 169.144 C 99.200 168.541,99.356 167.951,99.547 167.832 C 99.739 167.714,100.019 166.354,100.172 164.809 C 100.324 163.264,100.618 162.000,100.824 162.000 C 101.031 162.000,101.200 161.561,101.200 161.024 C 101.200 160.487,101.356 159.951,101.547 159.833 C 101.738 159.715,102.013 158.721,102.159 157.625 C 102.304 156.530,102.598 155.525,102.812 155.393 C 103.025 155.261,103.200 154.713,103.200 154.176 C 103.200 153.639,103.357 153.200,103.549 153.200 C 103.741 153.200,104.013 152.480,104.154 151.600 C 104.294 150.720,104.587 150.000,104.805 150.000 C 105.022 150.000,105.200 149.561,105.200 149.024 C 105.200 148.487,105.360 147.948,105.556 147.827 C 105.751 147.706,106.031 147.111,106.178 146.504 C 106.565 144.902,107.348 143.200,107.698 143.200 C 107.864 143.200,108.000 143.021,108.000 142.803 C 108.000 142.120,109.373 139.200,109.694 139.200 C 109.862 139.200,110.000 139.002,110.000 138.760 C 110.000 138.213,111.259 135.471,111.635 135.200 C 111.788 135.090,112.302 134.280,112.777 133.400 C 113.836 131.440,114.535 130.265,114.800 130.000 C 115.132 129.668,115.979 128.251,116.355 127.400 C 116.549 126.960,117.089 126.257,117.554 125.838 C 118.019 125.419,118.400 124.917,118.400 124.724 C 118.400 124.353,118.709 123.977,121.977 120.361 C 123.089 119.130,124.000 117.963,124.000 117.769 C 124.000 117.296,131.282 110.000,131.753 110.000 C 131.957 110.000,133.066 109.145,134.220 108.100 C 137.044 105.541,138.021 104.858,140.500 103.707 C 141.325 103.325,142.000 102.874,142.000 102.706 C 142.000 102.538,142.198 102.400,142.440 102.400 C 142.886 102.400,145.304 101.417,146.400 100.790 C 147.625 100.089,151.029 100.348,151.800 101.200 " stroke="none" fill="#375075" fill-rule="evenodd"></path><path id="path2" d="" stroke="none" fill="#50483E" fill-rule="evenodd"></path><path id="path3" d="M146.600 100.800 C 146.464 101.020,146.014 101.200,145.600 101.200 C 145.186 101.200,144.752 101.354,144.636 101.542 C 144.519 101.730,144.871 101.799,145.418 101.694 C 145.965 101.590,146.510 101.346,146.630 101.152 C 147.036 100.494,150.883 100.755,151.769 101.500 C 152.599 102.199,152.599 102.199,151.838 101.300 C 151.020 100.334,147.118 99.962,146.600 100.800 M154.446 104.076 C 154.421 104.668,154.580 105.264,154.800 105.400 C 155.020 105.536,155.200 106.256,155.200 107.000 C 155.200 107.744,155.347 108.444,155.528 108.555 C 155.926 108.801,155.683 106.513,155.193 105.400 C 155.000 104.960,154.763 104.240,154.667 103.800 C 154.538 103.205,154.481 103.276,154.446 104.076 M138.983 104.428 C 138.837 104.663,138.332 105.012,137.859 105.203 C 137.273 105.439,137.203 105.557,137.638 105.575 C 137.989 105.589,138.602 105.240,139.000 104.800 C 139.398 104.360,139.617 104.000,139.486 104.000 C 139.354 104.000,139.128 104.193,138.983 104.428 M134.454 107.900 C 133.161 109.203,133.081 109.328,134.199 108.300 C 135.096 107.475,136.048 106.800,136.315 106.800 C 136.582 106.800,136.800 106.620,136.800 106.400 C 136.800 105.692,136.378 105.962,134.454 107.900 M127.592 113.900 L 123.800 117.800 127.700 114.008 C 131.322 110.486,131.782 110.000,131.492 110.000 C 131.433 110.000,129.678 111.755,127.592 113.900 M121.855 120.383 C 119.939 122.430,119.717 122.800,120.400 122.800 C 120.620 122.800,120.800 122.582,120.800 122.315 C 120.800 122.048,121.557 121.058,122.483 120.115 C 123.409 119.172,124.064 118.400,123.938 118.400 C 123.812 118.400,122.875 119.292,121.855 120.383 M156.319 127.337 C 156.385 131.110,156.610 134.370,156.819 134.579 C 157.029 134.789,157.200 136.353,157.200 138.056 C 157.200 139.759,157.335 141.237,157.500 141.340 C 157.933 141.609,157.613 135.073,157.171 134.620 C 156.967 134.411,156.800 131.227,156.800 127.544 C 156.800 123.861,156.665 120.763,156.500 120.661 C 156.335 120.559,156.254 123.563,156.319 127.337 M118.432 124.430 C 118.414 124.777,117.950 125.483,117.400 126.000 C 116.850 126.517,116.400 127.156,116.400 127.421 C 116.400 127.685,116.130 128.126,115.800 128.400 C 115.470 128.674,115.200 129.080,115.200 129.303 C 115.200 129.526,115.560 129.250,116.000 128.691 C 116.440 128.131,116.800 127.532,116.800 127.359 C 116.800 127.186,117.270 126.553,117.844 125.954 C 118.418 125.355,118.792 124.625,118.676 124.332 C 118.521 123.945,118.455 123.971,118.432 124.430 M114.275 130.610 C 114.130 131.045,113.553 132.165,112.994 133.100 C 112.434 134.035,112.118 134.800,112.291 134.800 C 112.463 134.800,112.855 134.215,113.161 133.500 C 113.466 132.785,113.979 131.895,114.299 131.523 C 114.620 131.151,114.805 130.616,114.711 130.333 C 114.603 130.010,114.443 130.112,114.275 130.610 M111.057 135.884 C 110.923 136.278,110.636 137.005,110.419 137.500 C 109.779 138.964,110.303 138.525,111.034 136.986 C 111.403 136.208,111.614 135.481,111.503 135.370 C 111.392 135.259,111.192 135.490,111.057 135.884 M109.057 139.884 C 108.923 140.278,108.636 141.005,108.419 141.500 C 107.779 142.964,108.303 142.525,109.034 140.986 C 109.403 140.208,109.614 139.481,109.503 139.370 C 109.392 139.259,109.192 139.490,109.057 139.884 M107.066 143.810 C 106.199 146.313,106.096 146.800,106.435 146.800 C 106.636 146.800,106.800 146.386,106.800 145.880 C 106.800 145.374,107.000 144.760,107.245 144.515 C 107.490 144.270,107.611 143.834,107.515 143.545 C 107.400 143.200,107.247 143.291,107.066 143.810 M158.464 146.676 C 158.429 147.598,158.580 148.464,158.800 148.600 C 159.020 148.736,159.200 149.366,159.200 150.000 C 159.200 150.634,159.354 151.248,159.542 151.364 C 159.942 151.612,159.701 149.761,159.182 148.600 C 158.985 148.160,158.758 147.170,158.676 146.400 C 158.536 145.073,158.525 145.087,158.464 146.676 M103.254 154.076 C 103.225 154.668,103.041 155.251,102.848 155.370 C 102.654 155.490,102.410 156.035,102.306 156.582 C 102.201 157.129,102.270 157.481,102.458 157.364 C 102.646 157.248,102.800 156.839,102.800 156.456 C 102.800 156.073,102.995 155.565,103.234 155.326 C 103.472 155.088,103.587 154.467,103.488 153.946 C 103.320 153.060,103.305 153.068,103.254 154.076 M162.463 160.000 C 162.438 160.550,162.795 161.450,163.256 162.000 L 164.095 163.000 163.485 161.971 C 163.149 161.405,162.792 160.505,162.692 159.971 L 162.509 159.000 162.463 160.000 M100.324 163.400 C 100.234 164.170,100.304 164.800,100.480 164.800 C 100.656 164.800,100.800 164.170,100.800 163.400 C 100.800 162.630,100.730 162.000,100.644 162.000 C 100.558 162.000,100.414 162.630,100.324 163.400 M164.259 164.300 C 164.360 164.685,164.800 165.450,165.236 166.000 C 165.968 166.922,165.963 166.867,165.175 165.300 C 164.265 163.492,163.959 163.158,164.259 164.300 M99.467 167.867 C 99.320 168.013,99.200 168.607,99.200 169.187 C 99.200 169.766,99.037 170.411,98.839 170.620 C 98.387 171.095,98.085 174.800,98.497 174.800 C 98.664 174.800,98.800 173.911,98.800 172.824 C 98.800 171.737,98.960 170.748,99.156 170.627 C 99.351 170.506,99.585 169.776,99.675 169.004 C 99.854 167.474,99.855 167.479,99.467 167.867 M166.259 168.300 C 166.360 168.685,166.800 169.450,167.236 170.000 C 167.968 170.922,167.963 170.867,167.175 169.300 C 166.265 167.492,165.959 167.158,166.259 168.300 M168.277 172.374 C 168.389 172.800,168.867 173.475,169.340 173.874 C 170.192 174.594,170.194 174.593,169.500 173.769 C 169.115 173.311,168.800 172.737,168.800 172.492 C 168.800 172.247,168.637 171.946,168.437 171.823 C 168.238 171.700,168.166 171.947,168.277 172.374 M171.206 176.451 C 171.203 176.809,171.470 177.326,171.800 177.600 C 172.130 177.874,172.400 178.318,172.400 178.587 C 172.400 178.856,172.805 179.419,173.300 179.838 C 174.192 180.593,174.194 180.593,173.561 179.800 C 173.209 179.360,172.797 178.730,172.645 178.400 C 171.877 176.734,171.212 175.832,171.206 176.451 M97.467 179.867 C 97.320 180.013,97.200 182.613,97.200 185.643 C 97.200 188.885,97.035 191.255,96.800 191.400 C 96.580 191.536,96.425 192.222,96.454 192.924 C 96.500 193.984,96.536 194.030,96.671 193.200 C 96.760 192.650,97.003 191.840,97.210 191.400 C 97.482 190.821,98.012 179.594,97.767 179.599 C 97.748 179.600,97.613 179.720,97.467 179.867 M176.425 183.615 C 176.411 183.953,177.300 185.117,178.400 186.200 C 179.500 187.283,180.400 188.359,180.400 188.591 C 180.400 189.132,190.878 199.600,191.420 199.600 C 191.646 199.600,192.717 200.500,193.800 201.600 C 194.883 202.700,196.047 203.589,196.385 203.575 C 196.810 203.557,196.753 203.446,196.200 203.213 C 195.760 203.028,194.598 202.049,193.617 201.038 C 192.636 200.027,191.643 199.200,191.411 199.200 C 190.867 199.200,180.800 189.122,180.800 188.578 C 180.800 188.352,179.973 187.364,178.962 186.383 C 177.951 185.402,176.972 184.240,176.787 183.800 C 176.554 183.247,176.443 183.190,176.425 183.615 M97.272 199.676 C 97.232 202.688,97.335 205.237,97.500 205.339 C 97.665 205.442,97.752 203.788,97.694 201.663 C 97.506 194.818,97.346 194.063,97.272 199.676 M199.309 206.000 C 199.869 206.440,200.464 206.800,200.632 206.800 C 200.800 206.800,201.311 207.115,201.769 207.500 C 202.599 208.199,202.599 208.199,201.838 207.300 C 201.419 206.805,200.856 206.400,200.587 206.400 C 200.318 206.400,199.874 206.130,199.600 205.800 C 199.326 205.470,198.920 205.200,198.697 205.200 C 198.474 205.200,198.750 205.560,199.309 206.000 M204.000 208.776 C 204.550 209.219,205.203 209.586,205.451 209.591 C 205.699 209.596,206.126 209.870,206.400 210.200 C 206.674 210.530,207.191 210.797,207.549 210.794 C 208.246 210.788,208.033 210.644,204.722 208.885 C 203.232 208.093,203.135 208.079,204.000 208.776 M98.394 211.919 L 98.587 214.200 98.718 212.244 C 98.790 211.169,98.703 210.142,98.524 209.963 C 98.346 209.784,98.287 210.664,98.394 211.919 M99.200 215.776 C 99.200 216.533,99.338 217.238,99.507 217.343 C 99.676 217.447,99.748 216.828,99.665 215.966 C 99.481 214.032,99.200 213.918,99.200 215.776 M218.603 216.405 C 218.737 216.622,219.186 216.800,219.600 216.800 C 220.014 216.800,220.451 216.958,220.570 217.152 C 220.786 217.501,222.400 218.056,222.400 217.781 C 222.400 217.626,220.258 216.637,219.079 216.247 C 218.655 216.107,218.459 216.172,218.603 216.405 M302.000 216.400 L 299.800 216.670 301.876 216.735 C 303.018 216.771,304.064 216.620,304.200 216.400 C 304.336 216.180,304.392 216.029,304.324 216.065 C 304.256 216.101,303.210 216.252,302.000 216.400 M305.823 216.437 C 305.946 216.637,306.254 216.800,306.507 216.800 C 306.759 216.800,307.694 217.475,308.583 218.300 L 310.200 219.800 308.652 218.134 C 307.308 216.688,305.194 215.420,305.823 216.437 M296.657 217.507 C 296.553 217.676,297.172 217.748,298.034 217.665 C 298.895 217.583,299.600 217.445,299.600 217.358 C 299.600 217.060,296.847 217.200,296.657 217.507 M223.436 218.458 C 223.552 218.646,223.986 218.800,224.400 218.800 C 224.814 218.800,225.251 218.959,225.370 219.152 C 225.490 219.346,226.035 219.590,226.582 219.694 C 227.129 219.799,227.481 219.730,227.364 219.542 C 227.248 219.354,226.814 219.200,226.400 219.200 C 225.986 219.200,225.549 219.041,225.430 218.848 C 225.310 218.654,224.765 218.410,224.218 218.306 C 223.671 218.201,223.319 218.270,223.436 218.458 M293.200 218.400 L 291.800 218.695 293.300 218.747 C 294.125 218.776,294.800 218.620,294.800 218.400 C 294.800 218.180,294.755 218.024,294.700 218.053 C 294.645 218.082,293.970 218.238,293.200 218.400 M100.288 220.712 C 100.383 221.310,100.617 222.160,100.810 222.600 C 101.002 223.040,101.237 223.760,101.333 224.200 C 101.462 224.795,101.519 224.724,101.554 223.924 C 101.579 223.332,101.420 222.736,101.200 222.600 C 100.980 222.464,100.800 221.834,100.800 221.200 C 100.800 220.566,100.646 219.952,100.458 219.836 C 100.270 219.719,100.193 220.114,100.288 220.712 M228.603 220.405 C 228.737 220.622,229.186 220.800,229.600 220.800 C 230.014 220.800,230.464 220.980,230.600 221.200 C 230.736 221.420,231.332 221.579,231.924 221.554 C 232.724 221.519,232.795 221.462,232.200 221.333 C 231.760 221.237,231.040 221.004,230.600 220.816 C 229.045 220.149,228.357 220.007,228.603 220.405 M287.000 220.400 L 285.800 220.705 286.876 220.753 C 287.468 220.779,288.064 220.620,288.200 220.400 C 288.336 220.180,288.392 220.021,288.324 220.047 C 288.256 220.073,287.660 220.232,287.000 220.400 M283.700 221.476 C 284.085 221.576,284.715 221.576,285.100 221.476 C 285.485 221.375,285.170 221.293,284.400 221.293 C 283.630 221.293,283.315 221.375,283.700 221.476 M235.552 222.512 C 235.745 222.705,236.419 222.798,237.051 222.719 C 238.109 222.587,238.081 222.559,236.700 222.368 C 235.840 222.249,235.350 222.310,235.552 222.512 M280.200 222.291 C 279.540 222.385,278.829 222.628,278.620 222.831 C 278.411 223.034,277.747 223.200,277.144 223.200 C 276.541 223.200,275.959 223.342,275.852 223.516 C 275.744 223.690,276.275 223.761,277.032 223.672 C 277.788 223.584,278.506 223.351,278.627 223.156 C 278.748 222.960,279.366 222.800,280.000 222.800 C 280.634 222.800,281.264 222.620,281.400 222.400 C 281.536 222.180,281.592 222.027,281.524 222.060 C 281.456 222.093,280.860 222.197,280.200 222.291 M238.900 223.476 C 239.285 223.576,239.915 223.576,240.300 223.476 C 240.685 223.375,240.370 223.293,239.600 223.293 C 238.830 223.293,238.515 223.375,238.900 223.476 M244.660 224.500 C 244.763 224.665,246.266 224.800,248.000 224.800 C 249.734 224.800,251.264 224.980,251.400 225.200 C 251.548 225.439,254.196 225.600,258.000 225.600 C 261.804 225.600,264.452 225.439,264.600 225.200 C 264.736 224.980,266.446 224.800,268.400 224.800 C 270.354 224.800,272.037 224.665,272.140 224.500 C 272.410 224.065,265.072 224.384,264.620 224.827 C 264.125 225.313,251.877 225.314,251.380 224.829 C 250.927 224.387,244.391 224.067,244.660 224.500 M309.467 225.467 C 309.320 225.613,309.200 226.323,309.200 227.043 C 309.200 227.763,309.040 228.452,308.844 228.573 C 308.649 228.694,308.416 229.412,308.328 230.168 C 308.239 230.925,308.310 231.456,308.484 231.348 C 308.658 231.241,308.800 230.634,308.800 230.000 C 308.800 229.366,308.961 228.748,309.158 228.626 C 309.426 228.461,310.015 225.200,309.777 225.200 C 309.753 225.200,309.613 225.320,309.467 225.467 M102.515 228.029 C 102.851 228.595,103.208 229.495,103.308 230.029 L 103.491 231.000 103.537 230.000 C 103.562 229.450,103.205 228.550,102.744 228.000 L 101.905 227.000 102.515 228.029 M307.351 233.100 C 307.228 233.485,306.946 234.181,306.724 234.647 C 306.503 235.114,306.408 235.834,306.514 236.247 C 306.652 236.785,306.720 236.693,306.754 235.924 C 306.779 235.332,306.959 234.749,307.152 234.630 C 307.346 234.510,307.591 233.959,307.697 233.406 C 307.916 232.256,307.686 232.052,307.351 233.100 M106.825 238.700 C 107.296 239.635,107.736 240.400,107.803 240.400 C 108.124 240.400,107.471 238.891,106.764 238.000 C 106.032 237.078,106.037 237.133,106.825 238.700 M304.900 239.093 C 304.188 240.611,304.284 241.233,305.013 239.833 C 305.348 239.191,305.572 238.522,305.511 238.346 C 305.450 238.170,305.175 238.506,304.900 239.093 M108.825 242.700 C 109.296 243.635,109.736 244.400,109.803 244.400 C 110.124 244.400,109.471 242.891,108.764 242.000 C 108.032 241.078,108.037 241.133,108.825 242.700 M302.900 243.093 C 302.188 244.611,302.284 245.233,303.013 243.833 C 303.348 243.191,303.572 242.522,303.511 242.346 C 303.450 242.170,303.175 242.506,302.900 243.093 M110.885 246.722 C 112.644 250.033,112.788 250.246,112.794 249.549 C 112.797 249.191,112.530 248.674,112.200 248.400 C 111.870 248.126,111.596 247.699,111.591 247.451 C 111.586 247.203,111.219 246.550,110.776 246.000 C 110.079 245.135,110.093 245.232,110.885 246.722 M301.046 246.186 C 300.691 246.728,300.400 247.336,300.400 247.537 C 300.400 247.738,300.130 248.126,299.800 248.400 C 299.470 248.674,299.203 249.191,299.206 249.549 C 299.212 250.235,299.222 250.220,301.094 246.822 C 302.082 245.027,302.054 244.648,301.046 246.186 M113.200 250.697 C 113.200 250.920,113.470 251.326,113.800 251.600 C 114.130 251.874,114.400 252.318,114.400 252.587 C 114.400 252.856,114.805 253.419,115.300 253.838 C 116.199 254.599,116.199 254.599,115.500 253.769 C 115.115 253.311,114.800 252.800,114.800 252.632 C 114.800 252.464,114.440 251.869,114.000 251.309 C 113.560 250.750,113.200 250.474,113.200 250.697 M121.051 261.600 C 121.739 262.370,122.400 263.270,122.519 263.600 C 122.708 264.119,122.741 264.116,122.768 263.578 C 122.786 263.237,122.125 262.337,121.300 261.578 L 119.800 260.200 121.051 261.600 M133.600 274.680 C 133.930 274.799,135.010 275.639,136.000 276.548 L 137.800 278.200 136.017 276.300 C 135.036 275.255,133.956 274.414,133.617 274.432 C 133.080 274.459,133.078 274.491,133.600 274.680 M274.400 275.800 C 273.654 276.570,272.763 277.214,272.422 277.232 C 271.958 277.255,271.937 277.318,272.337 277.477 C 272.632 277.595,273.532 277.062,274.337 276.294 C 275.141 275.526,276.070 274.799,276.400 274.680 C 276.919 274.492,276.916 274.459,276.378 274.432 C 276.037 274.414,275.146 275.030,274.400 275.800 M139.687 279.405 C 140.504 280.260,141.238 280.879,141.317 280.780 C 141.397 280.681,140.728 279.981,139.831 279.225 L 138.200 277.850 139.687 279.405 M270.200 279.050 C 269.481 279.662,269.334 279.905,269.833 279.657 C 270.566 279.293,271.941 277.976,271.549 278.014 C 271.467 278.022,270.860 278.488,270.200 279.050 M266.962 281.300 C 266.206 282.192,266.207 282.194,267.000 281.552 C 267.440 281.196,268.070 280.805,268.400 280.684 C 268.909 280.497,268.904 280.458,268.362 280.432 C 268.011 280.414,267.381 280.805,266.962 281.300 M144.126 282.660 C 144.833 283.498,146.624 284.286,146.177 283.563 C 146.054 283.363,145.753 283.200,145.508 283.200 C 145.263 283.200,144.689 282.885,144.231 282.500 C 143.407 281.806,143.406 281.808,144.126 282.660 M264.200 283.050 C 263.481 283.662,263.334 283.905,263.833 283.657 C 264.566 283.293,265.941 281.976,265.549 282.014 C 265.467 282.022,264.860 282.488,264.200 283.050 M261.783 284.428 C 261.637 284.663,261.132 285.012,260.659 285.203 C 260.073 285.439,260.003 285.557,260.438 285.575 C 260.789 285.589,261.402 285.240,261.800 284.800 C 262.198 284.360,262.417 284.000,262.286 284.000 C 262.154 284.000,261.928 284.193,261.783 284.428 M148.678 285.706 C 151.951 287.549,152.995 288.026,152.000 287.224 C 151.450 286.781,150.797 286.414,150.549 286.409 C 150.301 286.404,149.874 286.130,149.600 285.800 C 149.326 285.470,148.809 285.203,148.451 285.206 C 147.969 285.210,148.028 285.340,148.678 285.706 M153.600 288.197 C 153.600 288.264,154.365 288.704,155.300 289.175 C 156.867 289.963,156.922 289.968,156.000 289.236 C 155.109 288.529,153.600 287.876,153.600 288.197 M157.600 290.197 C 157.600 290.264,158.365 290.704,159.300 291.175 C 160.867 291.963,160.922 291.968,160.000 291.236 C 159.109 290.529,157.600 289.876,157.600 290.197 M248.800 291.033 C 247.448 291.784,248.411 291.755,249.854 291.002 C 250.484 290.674,250.730 290.421,250.400 290.442 C 250.070 290.462,249.350 290.728,248.800 291.033 M244.000 293.256 L 243.000 294.095 244.029 293.485 C 244.595 293.149,245.495 292.792,246.029 292.692 L 247.000 292.509 246.000 292.463 C 245.450 292.438,244.550 292.795,244.000 293.256 M240.683 294.279 C 239.386 294.616,237.747 295.595,238.476 295.598 C 238.848 295.599,239.264 295.420,239.400 295.200 C 239.536 294.980,239.986 294.800,240.400 294.800 C 240.814 294.800,241.264 294.620,241.400 294.400 C 241.536 294.180,241.592 294.021,241.524 294.046 C 241.456 294.072,241.077 294.177,240.683 294.279 M167.971 294.692 C 168.505 294.792,169.405 295.149,169.971 295.485 L 171.000 296.095 170.000 295.256 C 169.450 294.795,168.550 294.438,168.000 294.463 L 167.000 294.509 167.971 294.692 M234.600 296.285 C 234.160 296.391,233.629 296.640,233.420 296.839 C 233.211 297.037,232.547 297.200,231.944 297.200 C 231.341 297.200,230.759 297.342,230.652 297.516 C 230.544 297.690,231.075 297.761,231.832 297.672 C 232.588 297.584,233.306 297.351,233.427 297.156 C 233.548 296.960,233.986 296.800,234.400 296.800 C 234.814 296.800,235.264 296.620,235.400 296.400 C 235.536 296.180,235.592 296.021,235.524 296.046 C 235.456 296.072,235.040 296.179,234.600 296.285 M173.700 296.676 C 174.085 296.776,174.715 296.776,175.100 296.676 C 175.485 296.575,175.170 296.493,174.400 296.493 C 173.630 296.493,173.315 296.575,173.700 296.676 M176.000 297.355 C 176.000 297.440,176.530 297.587,177.179 297.682 C 177.827 297.777,178.267 297.708,178.155 297.528 C 177.957 297.207,176.000 297.050,176.000 297.355 M226.600 298.294 C 225.720 298.382,224.829 298.621,224.620 298.827 C 224.411 299.032,223.477 299.200,222.544 299.200 C 221.611 299.200,220.764 299.335,220.662 299.500 C 220.401 299.922,224.117 299.601,224.580 299.161 C 224.789 298.963,225.633 298.800,226.456 298.800 C 227.279 298.800,228.064 298.620,228.200 298.400 C 228.336 298.180,228.392 298.030,228.324 298.067 C 228.256 298.104,227.480 298.206,226.600 298.294 M182.400 298.676 C 183.170 298.758,184.160 298.989,184.600 299.190 C 185.625 299.657,188.793 299.913,188.543 299.507 C 188.438 299.338,187.564 299.200,186.600 299.200 C 185.636 299.200,184.736 299.020,184.600 298.800 C 184.464 298.580,183.598 298.429,182.676 298.464 C 181.087 298.525,181.073 298.536,182.400 298.676 M193.862 300.500 C 193.964 300.665,198.976 300.800,205.000 300.800 C 211.024 300.800,216.036 300.665,216.138 300.500 C 216.240 300.335,211.228 300.200,205.000 300.200 C 198.772 300.200,193.760 300.335,193.862 300.500 " stroke="none" fill="#375075" fill-rule="evenodd"></path><path id="path4" d="M156.074 114.476 C 156.033 117.708,156.135 120.437,156.300 120.539 C 156.465 120.642,156.552 118.898,156.494 116.663 C 156.303 109.310,156.149 108.509,156.074 114.476 M158.114 143.400 C 158.117 144.500,158.195 144.903,158.287 144.295 C 158.379 143.686,158.377 142.786,158.282 142.295 C 158.187 141.803,158.111 142.300,158.114 143.400 M310.134 222.400 C 310.134 224.050,310.205 224.725,310.291 223.900 C 310.378 223.075,310.378 221.725,310.291 220.900 C 310.205 220.075,310.134 220.750,310.134 222.400 M171.300 296.276 C 171.685 296.376,172.315 296.376,172.700 296.276 C 173.085 296.175,172.770 296.093,172.000 296.093 C 171.230 296.093,170.915 296.175,171.300 296.276 M235.445 296.328 C 235.333 296.508,235.773 296.577,236.421 296.482 C 237.070 296.387,237.600 296.240,237.600 296.155 C 237.600 295.850,235.643 296.007,235.445 296.328 M179.105 298.283 C 179.602 298.379,180.322 298.375,180.705 298.275 C 181.087 298.175,180.680 298.096,179.800 298.101 C 178.920 298.105,178.607 298.187,179.105 298.283 M189.900 300.289 C 190.615 300.378,191.785 300.378,192.500 300.289 C 193.215 300.201,192.630 300.128,191.200 300.128 C 189.770 300.128,189.185 300.201,189.900 300.289 M217.300 300.287 C 217.905 300.378,218.895 300.378,219.500 300.287 C 220.105 300.195,219.610 300.120,218.400 300.120 C 217.190 300.120,216.695 300.195,217.300 300.287 " stroke="none" fill="#375075" fill-rule="evenodd"></path></g></svg>