<svg id="svg" version="1.1" xmlns="http://www.w3.org/2000/svg" xmlns:xlink="http://www.w3.org/1999/xlink" width="50" height="50" viewBox="0, 0, 400,400"><g id="svgg"><path id="path0" d="M200.314 91.122 C 196.963 92.729,196.800 93.096,196.800 99.046 C 196.800 102.152,196.966 104.455,197.200 104.600 C 197.448 104.753,197.600 108.297,197.600 113.902 L 197.600 122.956 198.675 124.078 C 199.266 124.695,199.986 125.200,200.275 125.200 C 200.564 125.200,200.800 125.380,200.800 125.600 C 200.800 127.527,205.254 125.492,206.700 122.905 C 207.334 121.771,207.428 96.588,206.800 96.200 C 206.580 96.064,206.400 95.271,206.400 94.438 C 206.400 92.961,205.490 91.600,204.502 91.600 C 204.262 91.600,204.007 91.433,203.933 91.230 C 203.662 90.477,201.775 90.420,200.314 91.122 M274.810 120.443 C 273.290 121.257,258.400 135.931,258.400 136.615 C 258.400 136.847,257.677 137.744,256.793 138.607 C 255.909 139.470,254.832 140.907,254.400 141.800 L 253.614 143.425 254.466 145.148 C 254.935 146.095,255.607 146.977,255.959 147.106 C 256.312 147.236,256.723 147.526,256.873 147.751 C 257.537 148.746,259.979 148.183,261.518 146.680 C 262.352 145.866,263.160 145.200,263.314 145.200 C 263.469 145.200,264.631 144.097,265.897 142.748 C 267.164 141.400,270.855 137.568,274.100 134.232 C 277.345 130.897,280.000 127.972,280.000 127.733 C 280.000 127.494,280.270 127.074,280.600 126.800 C 282.086 125.567,280.913 121.539,278.699 120.268 C 277.277 119.452,276.603 119.482,274.810 120.443 M128.400 122.665 C 126.836 123.283,124.375 126.639,125.095 127.173 C 125.263 127.298,125.660 127.940,125.976 128.600 C 126.643 129.996,144.362 148.000,145.068 148.000 C 145.329 148.000,145.896 148.450,146.329 149.000 C 148.229 151.416,153.200 149.222,153.200 145.968 C 153.200 145.545,153.425 145.197,153.700 145.194 C 154.010 145.190,154.048 145.076,153.799 144.894 C 153.579 144.732,153.133 144.060,152.808 143.400 C 152.192 142.147,135.994 125.600,135.383 125.600 C 135.191 125.600,134.396 124.979,133.617 124.219 C 132.202 122.840,129.781 122.119,128.400 122.665 M195.400 137.200 C 195.264 137.420,194.454 137.600,193.600 137.600 C 192.746 137.600,191.941 137.772,191.811 137.982 C 191.682 138.191,190.501 138.485,189.188 138.633 C 187.875 138.782,186.800 139.016,186.800 139.154 C 186.800 139.478,184.935 140.282,183.400 140.619 C 181.785 140.973,171.600 146.005,171.600 146.449 C 171.600 146.642,171.358 146.800,171.062 146.800 C 170.766 146.800,170.198 147.160,169.800 147.600 C 169.402 148.040,168.904 148.400,168.693 148.400 C 167.393 148.400,154.400 161.393,154.400 162.693 C 154.400 162.904,154.040 163.402,153.600 163.800 C 153.160 164.198,152.800 164.766,152.800 165.062 C 152.800 165.358,152.630 165.600,152.422 165.600 C 152.039 165.600,151.432 166.579,150.129 169.300 C 149.734 170.125,149.274 170.800,149.106 170.800 C 148.938 170.800,148.800 170.998,148.800 171.240 C 148.800 171.481,148.530 172.291,148.200 173.040 C 147.870 173.788,147.330 175.012,147.000 175.760 C 146.670 176.509,146.400 177.398,146.400 177.737 C 146.400 178.076,146.220 178.464,146.000 178.600 C 145.780 178.736,145.600 179.287,145.600 179.824 C 145.600 180.361,145.433 180.800,145.229 180.800 C 145.025 180.800,144.734 181.792,144.582 183.005 C 144.430 184.218,144.148 185.309,143.953 185.429 C 143.759 185.549,143.600 186.436,143.600 187.400 C 143.600 188.364,143.420 189.264,143.200 189.400 C 142.952 189.553,142.800 193.137,142.800 198.824 C 142.800 204.675,142.945 208.000,143.200 208.000 C 143.420 208.000,143.600 208.889,143.600 209.976 C 143.600 211.063,143.762 212.053,143.961 212.176 C 144.159 212.298,144.447 213.479,144.600 214.799 C 144.753 216.120,144.997 217.200,145.142 217.200 C 145.469 217.200,146.231 219.003,146.579 220.600 C 146.915 222.141,151.123 230.638,151.848 231.240 C 152.152 231.492,152.400 231.937,152.400 232.229 C 152.400 232.521,152.625 232.904,152.900 233.080 C 153.442 233.427,154.195 234.531,154.755 235.800 C 154.949 236.240,155.489 236.943,155.954 237.362 C 156.419 237.781,156.800 238.299,156.800 238.512 C 156.800 239.017,164.156 246.400,164.659 246.400 C 164.870 246.400,165.654 247.030,166.400 247.800 C 167.146 248.570,167.992 249.200,168.278 249.200 C 168.565 249.200,168.800 249.339,168.800 249.509 C 168.800 249.679,169.430 250.157,170.200 250.572 C 170.970 250.987,171.600 251.463,171.600 251.631 C 171.600 251.799,172.149 252.057,172.819 252.204 C 173.490 252.351,174.253 252.816,174.515 253.236 C 174.778 253.656,175.128 254.000,175.293 254.000 C 175.905 254.000,178.800 255.399,178.800 255.694 C 178.800 255.862,179.178 256.000,179.640 256.000 C 180.403 256.000,182.333 256.706,184.083 257.626 C 184.458 257.823,185.497 258.102,186.391 258.245 C 187.286 258.388,188.114 258.661,188.232 258.853 C 188.351 259.044,188.962 259.200,189.590 259.200 C 190.219 259.200,190.808 259.425,190.900 259.700 C 191.029 260.087,194.112 260.200,204.514 260.200 C 214.738 260.200,218.080 260.080,218.460 259.700 C 218.735 259.425,219.453 259.200,220.056 259.200 C 220.659 259.200,221.258 259.030,221.386 258.823 C 221.514 258.616,222.424 258.325,223.409 258.178 C 224.394 258.030,225.200 257.750,225.200 257.555 C 225.200 257.360,225.502 257.200,225.872 257.200 C 226.966 257.200,236.409 252.370,237.600 251.200 C 238.316 250.497,239.476 249.741,240.600 249.245 C 241.040 249.051,241.743 248.511,242.162 248.046 C 242.581 247.581,243.067 247.200,243.243 247.200 C 243.638 247.200,253.774 237.111,254.142 236.352 C 254.289 236.048,254.765 235.260,255.200 234.600 C 255.635 233.940,256.116 233.130,256.268 232.800 C 256.420 232.470,256.827 231.927,257.172 231.594 C 258.215 230.588,262.400 222.625,262.400 221.646 C 262.400 221.209,262.562 220.813,263.488 218.985 C 263.715 218.536,264.029 217.412,264.185 216.487 C 264.342 215.561,264.634 214.703,264.835 214.578 C 265.036 214.454,265.200 213.658,265.200 212.810 C 265.200 211.931,265.415 211.195,265.700 211.100 C 266.085 210.972,266.200 208.191,266.200 199.000 C 266.200 189.809,266.085 187.028,265.700 186.900 C 265.415 186.805,265.200 186.069,265.200 185.190 C 265.200 184.342,265.030 183.542,264.823 183.414 C 264.616 183.286,264.325 182.376,264.178 181.391 C 264.030 180.406,263.750 179.600,263.555 179.600 C 263.360 179.600,263.200 179.161,263.200 178.624 C 263.200 178.087,263.020 177.536,262.800 177.400 C 262.580 177.264,262.400 176.848,262.400 176.476 C 262.399 175.773,258.184 167.180,257.658 166.810 C 257.493 166.695,257.044 165.925,256.660 165.100 C 256.277 164.275,255.830 163.600,255.667 163.600 C 255.505 163.600,255.031 163.015,254.613 162.300 C 254.196 161.585,253.527 160.765,253.127 160.477 C 252.727 160.190,252.400 159.737,252.400 159.470 C 252.400 158.851,244.341 150.800,243.722 150.800 C 243.467 150.800,242.904 150.350,242.471 149.800 C 242.039 149.250,241.529 148.800,241.338 148.800 C 241.148 148.800,240.515 148.357,239.931 147.816 C 239.348 147.276,238.392 146.713,237.807 146.566 C 237.222 146.419,236.533 145.962,236.276 145.550 C 236.018 145.137,235.672 144.800,235.507 144.800 C 234.895 144.800,232.000 143.401,232.000 143.106 C 232.000 142.938,231.802 142.800,231.560 142.800 C 231.019 142.800,228.275 141.543,228.000 141.170 C 227.890 141.020,227.036 140.770,226.102 140.614 C 225.168 140.458,224.303 140.166,224.178 139.965 C 224.054 139.764,223.513 139.600,222.976 139.600 C 222.439 139.600,222.000 139.433,222.000 139.229 C 222.000 139.025,221.008 138.734,219.795 138.582 C 218.582 138.430,217.491 138.148,217.371 137.953 C 217.251 137.759,215.813 137.600,214.176 137.600 C 212.459 137.600,211.200 137.431,211.200 137.200 C 211.200 136.947,208.341 136.800,203.424 136.800 C 198.671 136.800,195.551 136.956,195.400 137.200 M202.320 146.880 C 202.665 147.225,202.800 149.876,202.800 156.280 C 202.800 161.960,202.945 165.200,203.200 165.200 C 203.461 165.200,203.600 171.573,203.600 183.520 C 203.600 193.786,203.758 202.007,203.959 202.220 C 204.757 203.065,204.719 251.600,203.921 251.600 C 203.524 251.600,203.200 251.448,203.200 251.262 C 203.200 251.076,200.828 250.810,197.930 250.671 C 195.031 250.533,192.475 250.235,192.250 250.010 C 192.024 249.784,191.246 249.600,190.520 249.600 C 189.794 249.600,189.200 249.420,189.200 249.200 C 189.200 248.980,188.784 248.800,188.276 248.800 C 187.769 248.800,187.004 248.536,186.576 248.213 C 186.149 247.890,185.395 247.620,184.900 247.613 C 184.405 247.606,184.000 247.420,184.000 247.200 C 184.000 246.980,183.821 246.800,183.603 246.800 C 182.957 246.800,180.000 245.435,180.000 245.137 C 180.000 244.987,179.472 244.748,178.828 244.606 C 178.183 244.464,177.425 244.071,177.144 243.733 C 176.863 243.394,176.265 242.956,175.816 242.759 C 174.470 242.170,173.475 241.451,172.687 240.500 C 172.277 240.005,171.733 239.600,171.478 239.600 C 170.863 239.600,163.200 231.951,163.200 231.337 C 163.200 231.073,162.795 230.523,162.300 230.113 C 161.349 229.325,160.630 228.330,160.041 226.984 C 159.844 226.535,159.406 225.937,159.067 225.656 C 158.729 225.375,158.336 224.617,158.194 223.972 C 158.052 223.328,157.813 222.800,157.663 222.800 C 157.365 222.800,156.000 219.843,156.000 219.197 C 156.000 218.979,155.820 218.800,155.600 218.800 C 155.380 218.800,155.200 218.361,155.200 217.824 C 155.200 217.287,155.025 216.739,154.812 216.607 C 154.598 216.475,154.304 215.470,154.159 214.375 C 154.013 213.279,153.738 212.285,153.547 212.167 C 153.356 212.049,153.200 211.279,153.200 210.456 C 153.200 209.633,152.975 208.735,152.700 208.460 C 152.327 208.087,152.200 205.457,152.200 198.113 C 152.200 190.592,152.318 188.227,152.700 188.100 C 152.975 188.008,153.200 187.318,153.200 186.567 C 153.200 185.815,153.380 185.200,153.600 185.200 C 153.820 185.200,154.000 184.604,154.000 183.876 C 154.000 183.149,154.264 182.204,154.587 181.776 C 154.910 181.349,155.180 180.595,155.187 180.100 C 155.194 179.605,155.372 179.200,155.582 179.200 C 155.792 179.200,156.088 178.525,156.240 177.700 C 156.391 176.875,156.634 176.110,156.779 176.000 C 156.923 175.890,157.352 175.170,157.732 174.400 C 158.745 172.344,159.381 171.359,160.994 169.342 C 161.547 168.650,162.000 167.919,162.000 167.717 C 162.000 167.515,162.540 166.832,163.200 166.200 C 163.860 165.568,164.400 164.900,164.400 164.717 C 164.400 164.259,168.624 160.000,169.078 160.000 C 169.279 160.000,170.054 159.370,170.800 158.600 C 171.546 157.830,172.360 157.200,172.609 157.200 C 172.857 157.200,173.483 156.750,174.000 156.200 C 174.517 155.650,175.178 155.200,175.470 155.200 C 175.761 155.200,176.000 155.035,176.000 154.834 C 176.000 154.479,183.861 150.396,184.540 150.399 C 184.872 150.400,187.174 149.457,188.436 148.803 C 188.785 148.622,190.093 148.346,191.341 148.190 C 192.589 148.034,193.709 147.748,193.829 147.553 C 193.949 147.359,195.016 147.200,196.200 147.200 C 197.384 147.200,198.464 147.020,198.600 146.800 C 198.946 146.240,201.740 146.300,202.320 146.880 M285.000 192.786 C 282.140 192.925,279.393 193.186,278.896 193.367 C 276.714 194.160,275.946 199.013,277.775 200.452 C 278.339 200.895,278.800 201.542,278.800 201.889 C 278.800 202.679,307.718 202.442,308.515 201.645 C 308.760 201.400,309.253 201.200,309.610 201.200 C 312.216 201.200,312.985 196.267,310.738 193.969 L 309.400 192.600 299.800 192.567 C 294.520 192.549,287.860 192.648,285.000 192.786 M103.800 196.000 C 103.664 196.220,102.528 196.403,101.276 196.406 C 98.890 196.412,97.268 196.990,96.801 198.000 C 96.649 198.330,96.320 198.997,96.070 199.481 C 95.821 199.966,95.768 200.457,95.954 200.572 C 96.140 200.687,96.390 201.385,96.510 202.124 C 96.634 202.885,97.276 204.015,97.995 204.733 L 99.262 206.000 104.807 206.000 C 108.073 206.000,110.454 205.836,110.600 205.600 C 110.753 205.353,114.179 205.200,119.549 205.200 L 128.250 205.200 129.325 204.078 C 129.916 203.461,130.400 202.741,130.400 202.478 C 130.400 202.215,130.580 202.000,130.800 202.000 C 132.271 202.000,130.744 197.071,128.992 196.162 C 127.664 195.473,104.219 195.322,103.800 196.000 M259.400 248.685 C 258.312 248.947,256.400 250.801,256.400 251.595 C 256.400 251.950,256.189 252.451,255.931 252.709 C 255.018 253.622,256.925 256.145,263.785 263.100 C 267.529 266.895,270.773 270.002,270.996 270.005 C 271.218 270.008,272.549 271.178,273.954 272.605 C 275.359 274.032,276.739 275.200,277.021 275.200 C 277.303 275.200,277.603 275.410,277.689 275.668 C 277.880 276.239,280.938 276.186,281.130 275.609 C 281.205 275.384,281.522 275.200,281.833 275.200 C 282.145 275.200,282.400 274.970,282.400 274.688 C 282.400 274.407,282.760 273.917,283.200 273.600 C 284.000 273.024,284.416 269.600,283.686 269.600 C 283.514 269.600,283.072 269.091,282.705 268.470 C 281.984 267.250,273.686 258.800,273.208 258.800 C 273.049 258.800,270.867 256.761,268.360 254.270 C 265.852 251.778,263.143 249.438,262.340 249.070 C 260.829 248.377,260.734 248.364,259.400 248.685 M149.500 250.658 C 149.115 250.768,148.800 251.025,148.800 251.229 C 148.800 251.433,148.573 251.600,148.296 251.600 C 147.754 251.600,131.600 267.593,131.600 268.130 C 131.600 268.308,130.995 269.027,130.256 269.727 C 129.516 270.427,128.774 271.450,128.607 272.000 C 128.439 272.550,128.122 273.225,127.902 273.500 C 127.635 273.833,127.635 274.167,127.902 274.500 C 128.122 274.775,128.438 275.442,128.604 275.981 C 129.652 279.392,133.489 279.415,136.734 276.030 C 137.805 274.913,138.856 274.000,139.070 274.000 C 139.518 274.000,141.200 272.300,141.200 271.847 C 141.200 271.681,143.855 268.883,147.100 265.630 C 153.191 259.523,153.508 259.153,154.668 256.800 C 155.048 256.030,155.505 255.298,155.685 255.173 C 156.156 254.845,155.002 252.720,153.773 251.651 C 152.715 250.731,150.799 250.286,149.500 250.658 M203.800 272.000 C 203.664 272.220,203.217 272.400,202.806 272.400 C 200.912 272.400,200.739 273.899,200.773 290.000 C 200.793 299.557,200.949 305.048,201.202 305.133 C 201.421 305.207,201.606 305.477,201.613 305.733 C 201.684 308.224,206.990 309.187,209.089 307.090 L 210.200 305.980 210.192 290.570 C 210.186 280.986,210.035 275.054,209.792 274.880 C 209.576 274.726,209.204 274.246,208.965 273.813 C 208.069 272.195,204.462 270.929,203.800 272.000 " stroke="none" fill="#fcfcfc" fill-rule="evenodd"></path><path id="path1" d="M97.600 38.741 C 97.600 38.928,94.855 39.208,91.500 39.363 C 88.145 39.518,85.340 39.815,85.267 40.022 C 85.193 40.230,84.338 40.400,83.367 40.400 C 82.395 40.400,81.600 40.559,81.600 40.754 C 81.600 40.949,80.610 41.232,79.400 41.383 C 78.190 41.534,77.200 41.825,77.200 42.029 C 77.200 42.233,76.750 42.400,76.200 42.400 C 75.650 42.400,75.200 42.560,75.200 42.755 C 75.200 42.950,74.390 43.231,73.400 43.379 C 72.410 43.528,71.600 43.818,71.600 44.025 C 71.600 44.231,71.330 44.400,71.000 44.400 C 70.670 44.400,70.400 44.572,70.400 44.782 C 70.400 44.992,69.776 45.281,69.014 45.424 C 68.196 45.577,67.535 45.975,67.402 46.394 C 67.278 46.785,66.632 47.214,65.967 47.347 C 65.301 47.480,64.160 48.221,63.431 48.994 C 62.702 49.767,61.902 50.400,61.653 50.400 C 61.404 50.400,61.200 50.568,61.200 50.773 C 61.200 50.978,60.849 51.257,60.420 51.394 C 59.992 51.530,59.533 51.983,59.400 52.400 C 59.267 52.817,58.817 53.267,58.400 53.400 C 57.983 53.533,57.533 53.983,57.400 54.400 C 57.267 54.817,56.817 55.267,56.400 55.400 C 55.983 55.533,55.533 55.983,55.400 56.400 C 55.267 56.817,54.808 57.270,54.380 57.406 C 53.951 57.543,53.600 57.977,53.600 58.371 C 53.600 58.765,53.161 59.418,52.624 59.821 C 52.087 60.224,51.544 60.969,51.416 61.477 C 51.289 61.985,51.008 62.400,50.792 62.400 C 50.577 62.400,50.400 62.670,50.400 63.000 C 50.400 63.330,50.240 63.600,50.045 63.600 C 49.849 63.600,49.571 64.230,49.426 65.000 C 49.282 65.770,48.992 66.400,48.782 66.400 C 48.572 66.400,48.400 66.670,48.400 67.000 C 48.400 67.330,48.231 67.600,48.025 67.600 C 47.818 67.600,47.528 68.410,47.379 69.400 C 47.231 70.390,46.950 71.200,46.755 71.200 C 46.560 71.200,46.400 71.470,46.400 71.800 C 46.400 72.130,46.229 72.400,46.020 72.400 C 45.811 72.400,45.518 73.480,45.368 74.800 C 45.219 76.120,44.940 77.200,44.748 77.200 C 44.557 77.200,44.400 77.905,44.400 78.767 C 44.400 79.664,44.187 80.404,43.900 80.500 C 43.164 80.745,43.164 318.055,43.900 318.300 C 44.187 318.395,44.400 319.136,44.400 320.033 C 44.400 320.895,44.557 321.600,44.748 321.600 C 44.940 321.600,45.219 322.680,45.368 324.000 C 45.518 325.320,45.811 326.400,46.020 326.400 C 46.229 326.400,46.400 326.850,46.400 327.400 C 46.400 327.950,46.557 328.400,46.749 328.400 C 46.941 328.400,47.213 329.120,47.354 330.000 C 47.494 330.880,47.787 331.600,48.005 331.600 C 48.222 331.600,48.400 331.870,48.400 332.200 C 48.400 332.530,48.560 332.800,48.755 332.800 C 48.951 332.800,49.229 333.430,49.374 334.200 C 49.518 334.970,49.808 335.600,50.018 335.600 C 50.228 335.600,50.400 335.870,50.400 336.200 C 50.400 336.530,50.568 336.800,50.773 336.800 C 50.978 336.800,51.274 337.205,51.430 337.700 C 51.587 338.195,52.049 338.891,52.457 339.247 C 52.866 339.603,53.200 340.096,53.200 340.343 C 53.200 340.591,53.740 341.309,54.400 341.940 C 55.060 342.571,55.600 343.370,55.600 343.716 C 55.600 344.063,55.951 344.457,56.380 344.594 C 56.808 344.730,57.267 345.183,57.400 345.600 C 57.533 346.017,57.992 346.470,58.420 346.606 C 58.849 346.743,59.200 347.022,59.200 347.227 C 59.200 347.432,59.394 347.600,59.631 347.600 C 59.869 347.600,60.776 348.320,61.647 349.200 C 62.518 350.080,63.494 350.800,63.815 350.800 C 64.137 350.800,64.400 350.980,64.400 351.200 C 64.400 351.420,64.670 351.600,65.000 351.600 C 65.330 351.600,65.600 351.777,65.600 351.992 C 65.600 352.208,66.050 352.498,66.600 352.636 C 67.150 352.774,67.600 353.047,67.600 353.243 C 67.600 353.440,67.941 353.600,68.357 353.600 C 68.774 353.600,69.218 353.870,69.345 354.200 C 69.471 354.530,70.031 354.800,70.587 354.800 C 71.144 354.800,71.600 354.980,71.600 355.200 C 71.600 355.420,71.960 355.600,72.400 355.600 C 72.840 355.600,73.200 355.778,73.200 355.995 C 73.200 356.213,73.920 356.506,74.800 356.646 C 75.680 356.787,76.400 357.059,76.400 357.251 C 76.400 357.443,76.850 357.600,77.400 357.600 C 77.950 357.600,78.400 357.759,78.400 357.953 C 78.400 358.148,79.570 358.432,81.000 358.585 C 82.430 358.738,83.600 359.029,83.600 359.232 C 83.600 359.434,84.665 359.600,85.967 359.600 C 87.504 359.600,88.392 359.775,88.500 360.100 C 88.633 360.498,112.009 360.600,203.600 360.600 C 295.191 360.600,318.567 360.498,318.700 360.100 C 318.812 359.764,319.776 359.600,321.633 359.600 C 323.155 359.600,324.400 359.441,324.400 359.246 C 324.400 359.051,325.390 358.768,326.600 358.617 C 327.810 358.466,328.800 358.175,328.800 357.971 C 328.800 357.767,329.430 357.600,330.200 357.600 C 330.970 357.600,331.600 357.422,331.600 357.205 C 331.600 356.987,332.320 356.694,333.200 356.554 C 334.080 356.413,334.800 356.141,334.800 355.949 C 334.800 355.757,335.160 355.600,335.600 355.600 C 336.040 355.600,336.400 355.434,336.400 355.232 C 336.400 355.029,336.940 354.745,337.600 354.600 C 338.260 354.455,338.800 354.171,338.800 353.968 C 338.800 353.766,339.141 353.600,339.557 353.600 C 339.974 353.600,340.418 353.330,340.545 353.000 C 340.671 352.670,341.128 352.400,341.560 352.400 C 341.995 352.400,342.460 352.042,342.600 351.600 C 342.740 351.160,343.137 350.800,343.484 350.800 C 343.830 350.800,344.629 350.260,345.260 349.600 C 345.891 348.940,346.582 348.400,346.796 348.400 C 347.304 348.400,352.400 343.304,352.400 342.796 C 352.400 342.582,352.940 341.891,353.600 341.260 C 354.260 340.629,354.800 339.830,354.800 339.484 C 354.800 339.137,355.160 338.740,355.600 338.600 C 356.042 338.460,356.400 337.995,356.400 337.560 C 356.400 337.128,356.670 336.671,357.000 336.545 C 357.330 336.418,357.600 335.974,357.600 335.557 C 357.600 335.141,357.766 334.800,357.968 334.800 C 358.171 334.800,358.455 334.260,358.600 333.600 C 358.745 332.940,359.029 332.400,359.232 332.400 C 359.434 332.400,359.600 331.950,359.600 331.400 C 359.600 330.850,359.760 330.400,359.955 330.400 C 360.151 330.400,360.429 329.770,360.574 329.000 C 360.718 328.230,361.008 327.600,361.218 327.600 C 361.428 327.600,361.600 327.165,361.600 326.633 C 361.600 326.102,361.778 325.607,361.996 325.533 C 362.214 325.460,362.510 324.275,362.653 322.900 C 362.797 321.525,363.068 320.400,363.257 320.400 C 363.446 320.400,363.600 319.515,363.600 318.433 C 363.600 317.216,363.790 316.403,364.100 316.300 C 364.498 316.167,364.600 292.551,364.600 200.000 C 364.600 107.449,364.498 83.833,364.100 83.700 C 363.790 83.597,363.600 82.784,363.600 81.567 C 363.600 80.485,363.441 79.600,363.247 79.600 C 363.053 79.600,362.767 78.250,362.613 76.600 C 362.458 74.950,362.167 73.600,361.966 73.600 C 361.765 73.600,361.600 73.150,361.600 72.600 C 361.600 72.050,361.443 71.600,361.251 71.600 C 361.059 71.600,360.787 70.880,360.646 70.000 C 360.506 69.120,360.213 68.400,359.995 68.400 C 359.778 68.400,359.600 68.130,359.600 67.800 C 359.600 67.470,359.440 67.200,359.245 67.200 C 359.049 67.200,358.771 66.570,358.626 65.800 C 358.482 65.030,358.192 64.400,357.982 64.400 C 357.772 64.400,357.600 64.130,357.600 63.800 C 357.600 63.470,357.420 63.200,357.200 63.200 C 356.980 63.200,356.800 62.834,356.800 62.387 C 356.800 61.941,356.530 61.471,356.200 61.345 C 355.870 61.218,355.600 60.855,355.600 60.538 C 355.600 60.221,355.150 59.545,354.600 59.035 C 354.050 58.525,353.600 57.981,353.600 57.826 C 353.600 57.670,353.375 57.292,353.100 56.985 C 352.231 56.017,351.654 55.415,351.119 54.919 C 350.834 54.655,350.384 54.205,350.119 53.919 C 349.855 53.634,349.405 53.184,349.119 52.919 C 348.834 52.655,348.384 52.205,348.119 51.919 C 347.361 51.101,346.459 50.400,346.163 50.400 C 346.014 50.400,345.475 49.950,344.965 49.400 C 344.455 48.850,343.779 48.400,343.462 48.400 C 343.145 48.400,342.782 48.130,342.655 47.800 C 342.529 47.470,342.072 47.200,341.640 47.200 C 341.207 47.200,340.746 46.859,340.613 46.442 C 340.464 45.972,339.845 45.585,338.986 45.424 C 338.224 45.281,337.600 44.992,337.600 44.782 C 337.600 44.572,337.330 44.400,337.000 44.400 C 336.670 44.400,336.400 44.231,336.400 44.025 C 336.400 43.818,335.590 43.528,334.600 43.379 C 333.610 43.231,332.800 42.950,332.800 42.755 C 332.800 42.560,332.530 42.400,332.200 42.400 C 331.870 42.400,331.600 42.237,331.600 42.038 C 331.600 41.838,330.700 41.551,329.600 41.400 C 328.500 41.249,327.600 40.962,327.600 40.762 C 327.600 40.563,326.895 40.400,326.033 40.400 C 325.172 40.400,324.395 40.185,324.307 39.922 C 324.189 39.566,320.235 39.400,308.874 39.271 C 300.473 39.176,293.600 38.941,293.600 38.749 C 293.600 38.551,252.911 38.400,199.600 38.400 C 137.200 38.400,105.600 38.534,105.600 38.800 C 105.600 39.031,104.333 39.200,102.600 39.200 C 100.867 39.200,99.600 39.031,99.600 38.800 C 99.600 38.580,99.150 38.400,98.600 38.400 C 98.050 38.400,97.600 38.553,97.600 38.741 M203.926 90.687 C 206.135 91.735,206.800 92.594,206.800 94.400 C 206.800 95.280,206.980 96.000,207.200 96.000 C 207.459 96.000,207.600 100.733,207.600 109.400 C 207.600 118.067,207.459 122.800,207.200 122.800 C 206.980 122.800,206.800 123.016,206.800 123.281 C 206.800 123.545,206.225 124.355,205.522 125.081 C 203.490 127.177,200.967 126.898,198.326 124.286 L 197.200 123.172 197.200 113.986 C 197.200 108.129,197.055 104.800,196.800 104.800 C 196.553 104.800,196.400 102.706,196.400 99.319 L 196.400 93.838 197.678 92.519 C 198.382 91.794,199.192 91.200,199.478 91.200 C 199.765 91.200,200.000 91.033,200.000 90.829 C 200.000 90.472,200.815 90.143,201.940 90.046 C 202.236 90.021,203.130 90.309,203.926 90.687 M278.979 119.950 C 280.577 120.888,281.536 122.651,281.571 124.717 C 281.606 126.797,281.942 126.355,274.700 133.781 C 271.455 137.109,268.800 140.000,268.800 140.205 C 268.800 140.690,263.937 145.600,263.456 145.600 C 263.255 145.600,262.308 146.320,261.354 147.200 C 260.399 148.080,259.326 148.800,258.969 148.800 C 257.660 148.800,254.400 146.937,254.400 146.189 C 254.400 146.042,254.109 145.308,253.753 144.558 C 253.312 143.628,253.233 143.037,253.504 142.697 C 253.723 142.424,254.039 141.755,254.206 141.211 C 254.374 140.666,255.296 139.458,256.255 138.525 C 257.215 137.593,258.000 136.686,258.000 136.511 C 258.000 135.929,273.778 120.500,275.000 119.887 C 276.579 119.095,277.547 119.110,278.979 119.950 M133.793 123.820 C 134.509 124.579,135.252 125.200,135.444 125.200 C 135.998 125.200,152.800 142.137,152.800 142.697 C 152.800 142.973,152.935 143.201,153.100 143.203 C 153.622 143.209,154.267 145.027,153.961 145.626 C 153.799 145.942,153.379 146.863,153.027 147.674 C 151.965 150.121,147.609 151.433,146.323 149.693 C 146.035 149.304,145.309 148.673,144.710 148.290 C 142.988 147.191,126.000 130.018,126.000 129.377 C 126.000 129.059,125.864 128.800,125.698 128.800 C 125.125 128.800,124.220 126.260,124.732 126.089 C 124.989 126.004,125.200 125.699,125.200 125.413 C 125.200 125.127,125.943 124.222,126.851 123.402 C 129.037 121.427,131.686 121.586,133.793 123.820 M211.400 136.800 C 211.536 137.020,212.987 137.200,214.624 137.200 C 216.261 137.200,217.600 137.357,217.600 137.548 C 217.600 137.740,218.516 138.018,219.635 138.167 C 220.754 138.315,221.969 138.580,222.335 138.756 C 222.701 138.931,223.366 139.260,223.813 139.487 C 224.260 139.713,225.250 140.026,226.013 140.183 C 227.797 140.549,229.600 141.310,229.600 141.698 C 229.600 141.864,229.779 142.000,229.997 142.000 C 230.643 142.000,233.600 143.365,233.600 143.663 C 233.600 143.813,234.140 144.055,234.800 144.200 C 235.459 144.345,236.232 144.796,236.517 145.203 C 236.803 145.610,237.506 146.061,238.080 146.206 C 238.654 146.350,239.533 146.902,240.032 147.434 C 240.531 147.965,241.146 148.400,241.398 148.400 C 241.650 148.400,242.247 148.850,242.725 149.400 C 243.203 149.950,243.772 150.400,243.989 150.400 C 244.520 150.400,252.800 158.727,252.800 159.261 C 252.800 159.494,253.250 160.039,253.800 160.471 C 254.350 160.904,254.800 161.484,254.800 161.759 C 254.800 162.035,255.250 162.683,255.800 163.200 C 256.350 163.717,256.800 164.378,256.800 164.670 C 256.800 164.961,256.937 165.200,257.105 165.200 C 257.273 165.200,257.588 165.555,257.805 165.988 C 258.022 166.422,259.235 168.786,260.500 171.241 C 261.765 173.697,262.800 176.042,262.800 176.453 C 262.800 176.864,262.980 177.200,263.200 177.200 C 263.420 177.200,263.600 177.639,263.600 178.176 C 263.600 178.713,263.770 179.258,263.977 179.386 C 264.184 179.514,264.475 180.424,264.622 181.409 C 264.770 182.394,265.050 183.200,265.245 183.200 C 265.440 183.200,265.600 183.884,265.600 184.720 C 265.600 185.556,265.825 186.465,266.100 186.740 C 266.477 187.118,266.600 190.126,266.600 199.000 C 266.600 207.875,266.477 210.883,266.100 211.260 C 265.825 211.535,265.600 212.444,265.600 213.280 C 265.600 214.116,265.440 214.800,265.245 214.800 C 265.050 214.800,264.770 215.606,264.622 216.591 C 264.475 217.576,264.184 218.486,263.977 218.614 C 263.770 218.742,263.600 219.287,263.600 219.824 C 263.600 220.361,263.420 220.800,263.200 220.800 C 262.980 220.800,262.800 221.137,262.800 221.549 C 262.800 221.961,261.945 223.951,260.900 225.972 C 258.430 230.750,258.251 231.059,257.464 231.929 C 257.099 232.333,256.800 232.874,256.800 233.131 C 256.800 233.389,256.616 233.600,256.390 233.600 C 256.165 233.600,255.797 234.005,255.573 234.500 C 255.349 234.995,254.918 235.833,254.615 236.362 C 253.876 237.654,243.928 247.600,243.375 247.600 C 243.136 247.600,242.517 248.050,242.000 248.600 C 241.483 249.150,240.816 249.600,240.518 249.600 C 240.219 249.600,239.871 249.870,239.745 250.200 C 239.618 250.530,239.323 250.800,239.089 250.800 C 238.855 250.800,238.333 251.099,237.929 251.464 C 237.000 252.305,236.417 252.627,230.800 255.405 C 228.270 256.657,225.893 257.839,225.517 258.033 C 225.142 258.226,224.103 258.502,223.209 258.645 C 222.314 258.788,221.486 259.061,221.368 259.253 C 221.249 259.444,220.659 259.600,220.056 259.600 C 219.453 259.600,218.735 259.825,218.460 260.100 C 218.080 260.480,214.755 260.600,204.600 260.600 C 194.446 260.600,191.120 260.480,190.740 260.100 C 190.465 259.825,189.736 259.600,189.120 259.600 C 188.504 259.600,188.000 259.440,188.000 259.245 C 188.000 259.050,187.194 258.770,186.209 258.622 C 185.224 258.475,184.314 258.184,184.186 257.977 C 184.058 257.770,183.513 257.600,182.976 257.600 C 182.439 257.600,182.000 257.443,182.000 257.250 C 182.000 257.058,181.416 256.783,180.703 256.641 C 179.112 256.322,177.200 255.500,177.200 255.134 C 177.200 254.985,176.651 254.743,175.981 254.596 C 175.310 254.449,174.547 253.984,174.285 253.564 C 174.022 253.144,173.505 252.800,173.134 252.800 C 172.764 252.800,171.953 252.381,171.331 251.868 C 170.709 251.356,169.930 250.817,169.600 250.671 C 168.466 250.169,167.438 249.398,166.173 248.100 C 165.476 247.385,164.750 246.800,164.560 246.800 C 164.042 246.800,156.400 239.086,156.400 238.564 C 156.400 238.315,155.950 237.774,155.400 237.361 C 154.850 236.948,154.400 236.396,154.400 236.134 C 154.400 235.872,154.165 235.419,153.878 235.129 C 153.590 234.838,153.231 234.330,153.080 234.000 C 152.596 232.943,151.820 231.829,151.100 231.159 C 150.715 230.800,150.400 230.394,150.400 230.256 C 150.400 229.682,148.987 226.800,148.706 226.800 C 148.538 226.800,148.400 226.621,148.400 226.403 C 148.400 225.764,147.037 222.800,146.743 222.800 C 146.596 222.800,146.351 221.900,146.200 220.800 C 146.049 219.700,145.806 218.800,145.660 218.800 C 145.189 218.800,144.446 216.655,144.167 214.491 C 144.017 213.331,143.738 212.285,143.547 212.167 C 143.356 212.049,143.200 211.164,143.200 210.200 C 143.200 209.236,143.020 208.336,142.800 208.200 C 142.552 208.047,142.400 204.470,142.400 198.800 C 142.400 193.130,142.552 189.553,142.800 189.400 C 143.020 189.264,143.200 188.263,143.200 187.176 C 143.200 186.089,143.355 185.200,143.544 185.200 C 143.734 185.200,143.994 184.314,144.122 183.231 C 144.250 182.147,144.545 180.887,144.778 180.431 C 145.010 179.974,145.380 179.242,145.600 178.805 C 145.820 178.368,146.000 177.683,146.000 177.282 C 146.000 176.881,146.264 176.204,146.587 175.776 C 146.910 175.349,147.180 174.595,147.187 174.100 C 147.194 173.605,147.380 173.200,147.600 173.200 C 147.820 173.200,148.000 173.002,148.000 172.760 C 148.000 172.245,149.244 169.492,149.608 169.200 C 149.746 169.090,149.982 168.730,150.134 168.400 C 150.285 168.070,150.765 167.260,151.200 166.600 C 151.635 165.940,152.116 165.130,152.268 164.800 C 152.420 164.470,152.872 163.909,153.272 163.553 C 153.673 163.197,154.000 162.734,154.000 162.523 C 154.000 162.312,154.450 161.717,155.000 161.200 C 155.550 160.683,156.000 160.070,156.000 159.836 C 156.000 159.274,165.262 150.000,165.824 150.000 C 166.064 150.000,166.683 149.550,167.200 149.000 C 167.717 148.450,168.312 148.000,168.523 148.000 C 168.734 148.000,169.200 147.685,169.559 147.300 C 170.807 145.961,181.399 140.561,183.600 140.141 C 184.370 139.994,185.090 139.768,185.200 139.637 C 185.749 138.986,187.295 138.446,189.341 138.190 C 190.589 138.034,191.709 137.748,191.829 137.553 C 191.949 137.359,192.746 137.200,193.600 137.200 C 194.454 137.200,195.264 137.020,195.400 136.800 C 195.551 136.556,198.663 136.400,203.400 136.400 C 208.137 136.400,211.249 136.556,211.400 136.800 M198.800 147.200 C 198.800 147.422,197.741 147.600,196.424 147.600 C 195.117 147.600,193.941 147.772,193.811 147.982 C 193.682 148.191,192.501 148.485,191.188 148.633 C 189.875 148.782,188.800 149.060,188.800 149.252 C 188.800 149.443,188.395 149.606,187.900 149.613 C 187.405 149.620,186.651 149.890,186.224 150.213 C 185.796 150.536,185.155 150.800,184.798 150.800 C 184.039 150.800,177.321 154.166,176.380 155.018 C 176.026 155.338,175.558 155.600,175.338 155.600 C 175.119 155.600,174.517 156.050,174.000 156.600 C 173.483 157.150,172.897 157.600,172.696 157.600 C 172.496 157.600,171.762 158.122,171.066 158.761 C 165.727 163.658,164.800 164.564,164.800 164.880 C 164.800 165.077,164.389 165.635,163.887 166.119 C 163.385 166.604,162.620 167.522,162.187 168.160 C 160.425 170.756,159.996 171.427,159.734 172.000 C 159.582 172.330,159.337 172.690,159.190 172.800 C 158.767 173.115,156.800 176.781,156.800 177.254 C 156.800 177.488,156.530 178.291,156.200 179.040 C 155.870 179.788,155.330 181.012,155.000 181.760 C 154.670 182.509,154.400 183.578,154.400 184.137 C 154.400 184.696,154.220 185.264,154.000 185.400 C 153.780 185.536,153.600 186.141,153.600 186.744 C 153.600 187.347,153.375 188.065,153.100 188.340 C 152.389 189.052,152.395 207.755,153.106 208.466 C 153.378 208.738,153.600 209.633,153.600 210.456 C 153.600 211.279,153.759 212.051,153.954 212.171 C 154.148 212.292,154.433 213.229,154.587 214.254 C 154.741 215.279,155.017 216.406,155.200 216.759 C 155.923 218.152,156.800 220.344,156.800 220.760 C 156.800 221.002,156.938 221.200,157.106 221.200 C 157.427 221.200,158.800 224.120,158.800 224.803 C 158.800 225.021,158.952 225.200,159.137 225.200 C 159.322 225.200,159.813 225.830,160.228 226.600 C 160.643 227.370,161.121 228.000,161.291 228.000 C 161.461 228.000,161.600 228.239,161.600 228.530 C 161.600 228.822,162.050 229.483,162.600 230.000 C 163.150 230.517,163.600 231.102,163.600 231.301 C 163.600 231.766,171.046 239.200,171.511 239.200 C 171.703 239.200,172.283 239.650,172.800 240.200 C 173.317 240.750,173.978 241.200,174.270 241.200 C 174.561 241.200,174.800 241.368,174.800 241.573 C 174.800 241.778,175.205 242.074,175.700 242.230 C 176.195 242.387,176.891 242.849,177.247 243.257 C 177.603 243.666,178.006 244.000,178.144 244.000 C 178.718 244.000,181.600 245.413,181.600 245.694 C 181.600 245.862,181.798 246.000,182.040 246.000 C 182.455 246.000,182.947 246.195,186.460 247.753 C 187.264 248.109,188.198 248.400,188.537 248.400 C 188.876 248.400,189.264 248.580,189.400 248.800 C 189.536 249.020,190.141 249.200,190.744 249.200 C 191.347 249.200,192.024 249.384,192.250 249.610 C 192.475 249.835,195.038 250.133,197.945 250.272 C 200.852 250.411,203.324 250.677,203.439 250.863 C 203.553 251.048,203.777 251.200,203.936 251.200 C 204.360 251.200,203.989 202.670,203.561 202.220 C 203.357 202.006,203.200 193.952,203.200 183.744 C 203.200 172.111,203.057 165.559,202.800 165.400 C 202.554 165.248,202.400 161.873,202.400 156.609 C 202.400 151.910,202.291 147.781,202.157 147.433 C 201.885 146.724,198.800 146.510,198.800 147.200 M310.955 193.621 C 313.488 196.155,312.655 201.600,309.733 201.600 C 309.308 201.600,308.756 201.804,308.506 202.054 C 307.692 202.868,278.400 203.082,278.400 202.274 C 278.400 201.921,277.942 201.207,277.382 200.688 C 275.381 198.833,276.297 194.250,278.913 193.021 C 280.398 192.323,285.208 192.128,299.867 192.171 L 309.535 192.200 310.955 193.621 M128.800 195.557 C 128.800 195.753,129.250 196.026,129.800 196.164 C 130.446 196.326,130.800 196.696,130.800 197.208 C 130.800 197.643,130.980 198.000,131.200 198.000 C 132.597 198.000,131.438 202.436,129.513 204.458 L 128.427 205.600 119.637 205.600 C 114.209 205.600,110.753 205.753,110.600 206.000 C 110.454 206.237,108.034 206.398,104.676 206.396 L 99.000 206.391 97.702 205.055 C 96.988 204.320,96.285 203.107,96.139 202.359 C 95.993 201.612,95.679 200.872,95.440 200.717 C 95.136 200.518,95.155 200.285,95.503 199.937 C 95.777 199.663,96.000 199.132,96.000 198.756 C 96.000 197.250,98.271 196.000,101.007 196.000 C 102.407 196.000,103.664 195.820,103.800 195.600 C 104.114 195.092,128.800 195.049,128.800 195.557 M262.733 248.809 C 262.807 249.024,263.080 249.200,263.340 249.200 C 263.600 249.200,265.877 251.270,268.400 253.800 C 270.923 256.330,273.150 258.400,273.350 258.400 C 273.868 258.400,282.781 267.310,282.791 267.838 C 282.796 268.079,283.160 268.602,283.600 269.000 C 284.158 269.505,284.400 270.232,284.400 271.400 C 284.400 272.568,284.158 273.295,283.600 273.800 C 283.160 274.198,282.800 274.722,282.800 274.964 C 282.800 275.392,281.536 276.056,279.705 276.590 C 278.457 276.954,276.683 275.873,273.648 272.900 C 272.245 271.525,270.954 270.400,270.781 270.400 C 270.421 270.400,256.400 256.510,256.400 256.154 C 256.400 256.026,256.105 255.298,255.743 254.537 C 255.251 253.500,255.201 253.039,255.543 252.697 C 255.795 252.445,256.000 251.890,256.000 251.463 C 256.000 250.494,258.008 248.530,259.262 248.274 C 260.532 248.014,262.569 248.328,262.733 248.809 M154.078 251.475 C 156.281 253.585,156.652 255.348,155.200 256.800 C 154.881 257.119,154.031 258.528,153.631 259.400 C 153.430 259.840,150.640 262.808,147.432 265.995 C 144.225 269.182,141.600 271.974,141.600 272.200 C 141.600 272.426,141.105 272.968,140.500 273.405 C 139.895 273.842,138.305 275.235,136.966 276.500 C 135.607 277.784,134.164 278.800,133.699 278.800 C 133.241 278.800,132.762 279.025,132.633 279.300 C 132.447 279.700,132.353 279.700,132.167 279.300 C 132.038 279.025,131.613 278.800,131.221 278.800 C 130.097 278.800,128.487 277.305,128.199 275.995 C 128.055 275.338,127.771 274.800,127.568 274.800 C 127.366 274.800,127.200 274.440,127.200 274.000 C 127.200 273.560,127.366 273.200,127.568 273.200 C 127.771 273.200,128.049 272.687,128.187 272.061 C 128.324 271.434,129.059 270.319,129.818 269.582 C 130.578 268.846,131.200 268.089,131.200 267.900 C 131.200 267.238,147.415 251.374,148.800 250.680 C 150.631 249.763,152.601 250.060,154.078 251.475 M206.800 271.600 C 206.800 271.820,207.042 272.000,207.339 272.000 C 208.073 272.000,209.282 273.160,209.997 274.550 C 210.489 275.505,210.590 278.274,210.594 290.880 L 210.600 306.060 209.050 307.481 C 206.433 309.881,202.846 309.092,200.902 305.688 C 200.287 304.613,200.078 274.459,200.682 274.053 C 200.889 273.914,201.176 273.481,201.320 273.091 C 201.464 272.701,201.901 272.283,202.291 272.162 C 202.681 272.041,203.270 271.786,203.600 271.595 C 204.436 271.110,206.800 271.114,206.800 271.600 " stroke="none" fill="#375075
" fill-rule="evenodd"></path><path id="path2" d="" stroke="none" fill="#e4cc100" fill-rule="evenodd"></path><path id="path3" d="M197.678 92.519 L 196.400 93.838 196.400 99.095 C 196.400 102.169,196.566 104.455,196.800 104.600 C 197.048 104.753,197.200 108.322,197.200 113.977 L 197.200 123.107 198.801 124.553 C 199.682 125.349,200.524 126.000,200.673 126.000 C 200.822 126.000,200.192 125.356,199.272 124.569 L 197.600 123.138 197.600 113.992 C 197.600 108.327,197.448 104.753,197.200 104.600 C 196.966 104.455,196.800 102.143,196.800 99.018 L 196.800 93.683 198.214 92.441 C 198.992 91.759,199.477 91.200,199.292 91.200 C 199.108 91.200,198.382 91.794,197.678 92.519 M205.346 92.029 C 206.110 92.630,206.418 93.263,206.464 94.329 L 206.528 95.800 206.693 94.456 C 206.855 93.133,205.658 91.200,204.676 91.200 C 204.465 91.200,204.766 91.573,205.346 92.029 M207.294 108.905 C 207.195 122.748,207.216 122.582,205.200 124.999 L 204.200 126.197 205.326 125.205 C 207.586 123.212,207.621 122.942,207.500 108.784 L 207.389 95.800 207.294 108.905 M275.862 119.500 C 275.760 119.665,276.272 119.800,277.000 119.800 C 277.728 119.800,278.240 119.665,278.138 119.500 C 278.036 119.335,277.524 119.200,277.000 119.200 C 276.476 119.200,275.964 119.335,275.862 119.500 M266.214 128.100 L 258.189 136.200 265.998 128.500 C 270.293 124.265,274.031 120.800,274.304 120.800 C 274.577 120.800,274.800 120.620,274.800 120.400 C 274.800 119.529,273.954 120.288,266.214 128.100 M280.402 121.676 C 280.401 122.048,280.580 122.464,280.800 122.600 C 281.471 123.015,281.262 126.063,280.500 126.969 C 279.801 127.799,279.801 127.799,280.700 127.038 C 281.775 126.128,281.913 123.891,281.002 122.146 C 280.624 121.421,280.404 121.248,280.402 121.676 M126.801 123.447 C 125.921 124.242,125.200 125.058,125.200 125.260 C 125.200 125.463,125.759 124.992,126.441 124.214 C 127.124 123.436,127.934 122.800,128.241 122.800 C 128.549 122.800,128.800 122.620,128.800 122.400 C 128.800 121.756,128.496 121.916,126.801 123.447 M130.636 122.458 C 130.752 122.646,131.161 122.800,131.545 122.800 C 131.929 122.800,132.854 123.430,133.600 124.200 C 134.346 124.970,135.145 125.600,135.375 125.600 C 135.906 125.600,152.397 142.054,152.409 142.596 C 152.414 142.818,152.789 143.450,153.242 144.000 L 154.067 145.000 153.345 143.600 C 152.564 142.084,136.081 125.200,135.382 125.200 C 135.148 125.200,134.363 124.587,133.638 123.839 C 132.484 122.649,130.066 121.536,130.636 122.458 M124.402 126.254 C 124.401 126.504,124.669 127.224,124.998 127.854 C 125.326 128.484,125.596 128.796,125.598 128.546 C 125.599 128.296,125.331 127.576,125.002 126.946 C 124.674 126.316,124.404 126.004,124.402 126.254 M274.046 134.154 C 270.517 137.689,268.386 140.118,268.520 140.454 C 268.692 140.886,268.743 140.876,268.768 140.405 C 268.786 140.078,271.363 137.243,274.495 134.105 C 277.627 130.967,280.100 128.400,279.990 128.400 C 279.880 128.400,277.205 130.989,274.046 134.154 M135.000 138.800 C 140.056 143.860,144.283 148.000,144.393 148.000 C 144.503 148.000,140.456 143.860,135.400 138.800 C 130.344 133.740,126.117 129.600,126.007 129.600 C 125.897 129.600,129.944 133.740,135.000 138.800 M195.400 136.800 C 195.264 137.020,194.454 137.200,193.600 137.200 C 192.746 137.200,191.962 137.338,191.857 137.507 C 191.595 137.932,194.909 137.604,195.380 137.159 C 195.883 136.684,210.930 136.693,211.420 137.169 C 211.875 137.611,217.608 137.931,217.340 137.500 C 217.237 137.335,215.914 137.200,214.400 137.200 C 212.886 137.200,211.536 137.020,211.400 136.800 C 211.249 136.556,208.137 136.400,203.400 136.400 C 198.663 136.400,195.551 136.556,195.400 136.800 M188.293 138.287 C 186.904 138.497,184.714 139.594,185.676 139.598 C 186.048 139.599,186.464 139.420,186.600 139.200 C 186.736 138.980,187.366 138.800,188.000 138.800 C 188.634 138.800,189.264 138.620,189.400 138.400 C 189.536 138.180,189.592 138.027,189.524 138.060 C 189.456 138.093,188.902 138.195,188.293 138.287 M219.941 138.501 C 220.143 138.703,220.733 138.801,221.254 138.719 C 222.055 138.593,221.998 138.537,220.887 138.352 C 220.093 138.221,219.719 138.279,219.941 138.501 M182.800 140.267 C 181.701 140.642,179.600 141.636,179.600 141.781 C 179.600 142.056,181.214 141.501,181.430 141.152 C 181.549 140.958,181.986 140.800,182.400 140.800 C 182.814 140.800,183.264 140.620,183.400 140.400 C 183.536 140.180,183.592 140.014,183.524 140.032 C 183.456 140.049,183.130 140.155,182.800 140.267 M225.941 140.501 C 226.143 140.703,226.733 140.801,227.254 140.719 C 228.055 140.593,227.998 140.537,226.887 140.352 C 226.093 140.221,225.719 140.279,225.941 140.501 M177.265 142.792 C 175.576 143.735,175.127 144.168,176.415 143.612 C 176.957 143.378,177.715 143.079,178.100 142.947 C 178.485 142.815,178.800 142.548,178.800 142.353 C 178.800 141.915,178.869 141.895,177.265 142.792 M173.000 145.014 C 172.120 145.553,171.040 146.164,170.600 146.372 C 169.976 146.666,169.943 146.755,170.451 146.775 C 170.809 146.789,171.295 146.567,171.532 146.282 C 171.768 145.997,172.600 145.514,173.381 145.208 C 174.161 144.901,174.800 144.504,174.800 144.325 C 174.800 143.900,174.851 143.881,173.000 145.014 M153.358 145.900 C 153.239 146.285,152.975 146.913,152.771 147.295 C 152.567 147.677,152.401 148.217,152.402 148.495 C 152.405 149.115,153.373 147.312,153.693 146.089 C 153.966 145.043,153.675 144.878,153.358 145.900 M254.486 145.971 C 254.801 146.505,255.495 147.202,256.029 147.520 L 257.000 148.098 256.112 147.349 C 255.623 146.937,254.929 146.240,254.568 145.800 C 253.943 145.037,253.939 145.045,254.486 145.971 M261.578 146.700 L 260.200 148.200 261.600 146.949 C 262.370 146.261,263.270 145.600,263.600 145.481 C 264.119 145.292,264.116 145.259,263.578 145.232 C 263.237 145.214,262.337 145.875,261.578 146.700 M237.803 146.405 C 237.937 146.622,238.275 146.800,238.554 146.800 C 238.833 146.800,239.483 147.250,240.000 147.800 C 240.517 148.350,241.223 148.786,241.570 148.768 C 242.109 148.741,242.114 148.705,241.600 148.519 C 241.270 148.398,240.550 147.899,240.000 147.409 C 238.916 146.443,237.397 145.748,237.803 146.405 M198.600 146.800 C 198.464 147.020,197.328 147.232,196.076 147.272 L 193.800 147.344 195.779 147.497 C 196.868 147.581,198.128 147.465,198.579 147.239 C 199.031 147.013,199.940 146.759,200.600 146.674 C 201.676 146.536,201.647 146.514,200.324 146.460 C 199.512 146.427,198.736 146.580,198.600 146.800 M202.315 156.133 C 202.380 161.100,202.600 165.160,202.815 165.375 C 203.050 165.610,203.200 172.808,203.200 183.856 C 203.200 193.809,203.335 202.036,203.500 202.138 C 203.961 202.423,203.654 165.894,203.192 165.432 C 202.960 165.200,202.800 161.489,202.800 156.344 C 202.800 151.561,202.665 147.564,202.500 147.461 C 202.335 147.359,202.252 151.261,202.315 156.133 M190.200 148.291 C 189.540 148.385,188.829 148.628,188.620 148.831 C 188.411 149.034,187.927 149.200,187.544 149.200 C 187.161 149.200,186.752 149.354,186.636 149.542 C 186.519 149.730,186.871 149.799,187.418 149.694 C 187.965 149.590,188.510 149.346,188.630 149.152 C 188.749 148.959,189.366 148.800,190.000 148.800 C 190.634 148.800,191.264 148.620,191.400 148.400 C 191.536 148.180,191.592 148.027,191.524 148.060 C 191.456 148.093,190.860 148.197,190.200 148.291 M160.600 154.800 C 157.967 157.440,155.903 159.600,156.013 159.600 C 156.123 159.600,158.367 157.440,161.000 154.800 C 163.633 152.160,165.697 150.000,165.587 150.000 C 165.477 150.000,163.233 152.160,160.600 154.800 M184.683 150.279 C 183.386 150.616,181.747 151.595,182.476 151.598 C 182.848 151.599,183.264 151.420,183.400 151.200 C 183.536 150.980,183.986 150.800,184.400 150.800 C 184.814 150.800,185.264 150.620,185.400 150.400 C 185.536 150.180,185.592 150.021,185.524 150.046 C 185.456 150.072,185.077 150.177,184.683 150.279 M247.976 154.727 C 250.519 157.297,252.681 159.349,252.780 159.287 C 253.010 159.142,244.807 150.861,243.976 150.400 C 243.633 150.209,245.433 152.156,247.976 154.727 M178.800 153.033 C 177.448 153.784,178.411 153.755,179.854 153.002 C 180.484 152.674,180.730 152.421,180.400 152.442 C 180.070 152.462,179.350 152.728,178.800 153.033 M174.000 156.200 C 173.483 156.750,172.777 157.214,172.430 157.232 C 171.971 157.255,171.945 157.321,172.332 157.476 C 172.625 157.592,173.345 157.241,173.932 156.694 C 174.519 156.147,175.270 155.602,175.600 155.481 C 176.114 155.295,176.109 155.259,175.570 155.232 C 175.223 155.214,174.517 155.650,174.000 156.200 M254.425 161.630 C 254.411 161.977,254.850 162.683,255.400 163.200 C 255.950 163.717,256.404 164.333,256.409 164.570 C 256.414 164.806,256.781 165.450,257.224 166.000 C 257.999 166.961,257.997 166.935,257.189 165.327 C 256.726 164.407,256.069 163.423,255.729 163.141 C 255.389 162.859,254.962 162.262,254.781 161.814 C 254.548 161.240,254.443 161.186,254.425 161.630 M152.264 164.610 C 151.940 165.536,151.203 166.814,150.391 167.857 C 149.852 168.550,149.873 168.549,150.707 167.838 C 151.198 167.419,151.600 166.893,151.600 166.670 C 151.600 166.446,151.888 165.944,152.241 165.555 C 152.594 165.165,152.805 164.616,152.711 164.333 C 152.603 164.008,152.439 164.108,152.264 164.610 M258.402 167.439 C 258.400 167.937,259.576 170.400,259.817 170.400 C 260.012 170.400,259.613 169.328,258.924 168.000 C 258.638 167.450,258.404 167.197,258.402 167.439 M161.021 169.177 C 160.634 169.604,160.412 170.189,160.527 170.477 C 160.689 170.880,160.744 170.869,160.768 170.431 C 160.786 170.119,161.098 169.534,161.462 169.131 C 161.826 168.729,162.034 168.400,161.924 168.400 C 161.814 168.400,161.408 168.750,161.021 169.177 M149.057 169.884 C 148.923 170.278,148.636 171.005,148.419 171.500 C 147.779 172.964,148.303 172.525,149.034 170.986 C 149.403 170.208,149.614 169.481,149.503 169.370 C 149.392 169.259,149.192 169.490,149.057 169.884 M158.799 172.500 C 158.210 173.304,158.113 173.584,158.545 173.233 C 159.201 172.700,160.193 171.200,159.889 171.200 C 159.813 171.200,159.322 171.785,158.799 172.500 M260.402 171.439 C 260.400 171.937,261.576 174.400,261.817 174.400 C 262.012 174.400,261.613 173.328,260.924 172.000 C 260.638 171.450,260.404 171.197,260.402 171.439 M147.246 173.914 C 147.221 174.417,146.909 175.272,146.554 175.814 C 146.199 176.356,146.065 176.800,146.256 176.800 C 146.783 176.800,147.687 174.511,147.477 173.707 C 147.338 173.175,147.281 173.226,147.246 173.914 M262.446 176.076 C 262.421 176.668,262.580 177.264,262.800 177.400 C 263.020 177.536,263.200 177.986,263.200 178.400 C 263.200 178.814,263.378 179.263,263.595 179.397 C 263.993 179.643,263.851 178.955,263.184 177.400 C 262.996 176.960,262.763 176.240,262.667 175.800 C 262.538 175.205,262.481 175.276,262.446 176.076 M145.351 179.100 C 145.228 179.485,144.980 180.160,144.800 180.600 C 144.136 182.222,144.034 182.800,144.413 182.800 C 144.626 182.800,144.800 182.361,144.800 181.824 C 144.800 181.287,144.959 180.749,145.152 180.630 C 145.346 180.510,145.591 179.959,145.697 179.406 C 145.916 178.256,145.686 178.052,145.351 179.100 M155.358 179.900 C 155.239 180.285,154.975 180.913,154.771 181.295 C 154.567 181.677,154.401 182.217,154.402 182.495 C 154.405 183.115,155.373 181.312,155.693 180.089 C 155.966 179.043,155.675 178.878,155.358 179.900 M264.446 182.076 C 264.421 182.668,264.580 183.264,264.800 183.400 C 265.020 183.536,265.200 184.256,265.200 185.000 C 265.200 185.744,265.347 186.444,265.528 186.555 C 265.926 186.801,265.683 184.513,265.193 183.400 C 265.000 182.960,264.763 182.240,264.667 181.800 C 264.538 181.205,264.481 181.276,264.446 182.076 M143.270 187.076 C 143.231 188.218,143.020 189.264,142.800 189.400 C 142.548 189.556,142.434 193.070,142.492 198.924 L 142.584 208.200 142.690 199.200 C 142.754 193.797,142.968 189.871,143.225 189.376 C 143.461 188.923,143.583 187.753,143.497 186.776 L 143.340 185.000 143.270 187.076 M153.356 185.771 C 153.235 186.085,153.204 186.760,153.286 187.271 C 153.395 187.954,153.488 187.804,153.637 186.700 C 153.847 185.147,153.736 184.781,153.356 185.771 M152.524 190.600 C 152.526 191.920,152.601 192.412,152.690 191.693 C 152.779 190.974,152.777 189.894,152.686 189.293 C 152.595 188.692,152.522 189.280,152.524 190.600 M266.399 198.681 C 266.290 202.905,266.339 206.222,266.509 206.052 C 266.679 205.881,266.769 202.425,266.708 198.371 L 266.598 191.000 266.399 198.681 M285.200 192.295 C 279.472 192.434,277.934 192.928,277.056 194.913 C 276.127 197.010,276.060 197.405,276.386 198.835 C 276.675 200.103,276.697 200.058,276.699 198.200 C 276.704 193.761,278.186 192.800,285.022 192.800 C 287.878 192.800,290.057 192.632,290.200 192.400 C 290.336 192.180,290.392 192.039,290.324 192.086 C 290.256 192.134,287.950 192.228,285.200 192.295 M307.941 192.501 C 308.143 192.703,308.733 192.801,309.254 192.719 C 310.055 192.593,309.998 192.537,308.887 192.352 C 308.093 192.221,307.719 192.279,307.941 192.501 M103.861 195.500 C 103.759 195.665,107.393 195.754,111.938 195.698 C 127.497 195.506,128.995 195.371,116.524 195.286 C 109.662 195.238,103.964 195.335,103.861 195.500 M97.287 197.100 C 96.668 197.705,96.542 197.885,97.007 197.500 C 97.471 197.115,98.065 196.800,98.326 196.800 C 98.587 196.800,98.800 196.620,98.800 196.400 C 98.800 195.776,98.500 195.915,97.287 197.100 M131.320 200.000 C 131.320 201.210,131.395 201.705,131.487 201.100 C 131.578 200.495,131.578 199.505,131.487 198.900 C 131.395 198.295,131.320 198.790,131.320 200.000 M310.800 200.600 C 310.526 200.930,309.975 201.200,309.575 201.200 C 309.175 201.200,308.752 201.354,308.636 201.542 C 308.227 202.204,310.360 201.507,311.038 200.758 C 311.415 200.341,311.628 200.000,311.511 200.000 C 311.394 200.000,311.074 200.270,310.800 200.600 M278.392 201.900 L 278.828 202.800 289.990 202.800 C 296.130 202.800,301.236 202.665,301.339 202.500 C 301.441 202.335,296.480 202.251,290.315 202.312 C 279.969 202.416,279.062 202.370,278.531 201.712 C 278.006 201.062,277.994 201.079,278.392 201.900 M152.476 205.676 C 152.434 207.148,152.580 208.464,152.800 208.600 C 153.020 208.736,153.200 209.546,153.200 210.400 C 153.200 211.254,153.342 212.041,153.516 212.148 C 153.924 212.400,153.664 209.648,153.182 208.600 C 152.979 208.160,152.754 206.720,152.682 205.400 L 152.551 203.000 152.476 205.676 M128.800 204.600 C 128.385 205.100,126.844 205.200,119.575 205.200 C 114.775 205.200,110.764 205.335,110.661 205.500 C 110.168 206.297,128.284 205.592,129.013 204.786 C 129.404 204.354,129.628 204.000,129.511 204.000 C 129.394 204.000,129.074 204.270,128.800 204.600 M143.246 210.076 C 143.221 211.108,143.342 212.041,143.516 212.148 C 143.690 212.256,143.770 211.682,143.693 210.872 C 143.459 208.398,143.295 208.107,143.246 210.076 M265.467 211.467 C 265.320 211.613,265.200 212.323,265.200 213.043 C 265.200 213.763,265.020 214.464,264.800 214.600 C 264.580 214.736,264.421 215.332,264.446 215.924 C 264.481 216.724,264.538 216.795,264.667 216.200 C 264.763 215.760,265.000 215.040,265.193 214.600 C 265.497 213.910,265.979 211.200,265.797 211.200 C 265.762 211.200,265.613 211.320,265.467 211.467 M144.326 215.679 C 144.544 217.164,145.594 219.347,145.598 218.324 C 145.599 217.952,145.420 217.536,145.200 217.400 C 144.980 217.264,144.800 216.634,144.800 216.000 C 144.800 215.366,144.653 214.756,144.472 214.645 C 144.292 214.533,144.226 214.999,144.326 215.679 M154.306 215.418 C 154.410 215.965,154.654 216.510,154.848 216.630 C 155.041 216.749,155.200 217.186,155.200 217.600 C 155.200 218.014,155.354 218.448,155.542 218.564 C 155.730 218.681,155.799 218.329,155.694 217.782 C 155.590 217.235,155.346 216.690,155.152 216.570 C 154.959 216.451,154.800 216.014,154.800 215.600 C 154.800 215.186,154.646 214.752,154.458 214.636 C 154.270 214.519,154.201 214.871,154.306 215.418 M263.351 219.100 C 263.228 219.485,262.946 220.181,262.724 220.647 C 262.503 221.114,262.408 221.834,262.514 222.247 C 262.652 222.785,262.720 222.693,262.754 221.924 C 262.779 221.332,262.959 220.749,263.152 220.630 C 263.346 220.510,263.591 219.959,263.697 219.406 C 263.916 218.256,263.686 218.052,263.351 219.100 M156.259 220.300 C 156.360 220.685,156.800 221.450,157.236 222.000 C 157.968 222.922,157.963 222.867,157.175 221.300 C 156.265 219.492,155.959 219.158,156.259 220.300 M146.247 221.079 C 146.637 222.258,147.626 224.400,147.781 224.400 C 148.056 224.400,147.501 222.786,147.152 222.570 C 146.958 222.451,146.800 222.014,146.800 221.600 C 146.800 221.186,146.622 220.737,146.405 220.603 C 146.172 220.459,146.107 220.655,146.247 221.079 M158.277 224.374 C 158.389 224.800,158.867 225.475,159.340 225.874 C 160.192 226.594,160.194 226.593,159.500 225.769 C 159.115 225.311,158.800 224.737,158.800 224.492 C 158.800 224.247,158.637 223.946,158.437 223.823 C 158.238 223.700,158.166 223.947,158.277 224.374 M260.900 225.093 C 260.188 226.611,260.284 227.233,261.013 225.833 C 261.348 225.191,261.572 224.522,261.511 224.346 C 261.450 224.170,261.175 224.506,260.900 225.093 M148.825 226.700 C 149.296 227.635,149.736 228.400,149.803 228.400 C 150.124 228.400,149.471 226.891,148.764 226.000 C 148.032 225.078,148.037 225.133,148.825 226.700 M161.225 228.430 C 161.211 228.777,161.650 229.483,162.200 230.000 C 162.750 230.517,163.200 231.136,163.200 231.377 C 163.200 231.939,170.875 239.600,171.437 239.600 C 171.670 239.600,172.283 240.050,172.800 240.600 C 173.317 241.150,174.023 241.589,174.370 241.575 C 174.823 241.556,174.775 241.457,174.200 241.222 C 173.760 241.042,173.057 240.513,172.638 240.047 C 172.219 239.581,171.675 239.200,171.430 239.200 C 170.859 239.200,163.600 231.927,163.600 231.354 C 163.600 231.118,163.219 230.581,162.753 230.162 C 162.287 229.743,161.758 229.040,161.578 228.600 C 161.343 228.025,161.244 227.977,161.225 228.430 M259.232 228.369 C 259.214 228.681,258.892 229.311,258.515 229.769 C 257.869 230.553,257.883 230.551,258.762 229.742 C 259.275 229.270,259.597 228.640,259.479 228.342 C 259.304 227.903,259.257 227.908,259.232 228.369 M150.364 229.933 C 150.580 230.336,151.071 230.921,151.455 231.233 C 151.887 231.584,151.790 231.304,151.201 230.500 C 150.151 229.065,149.757 228.798,150.364 229.933 M152.448 233.000 C 152.804 233.440,153.195 234.070,153.316 234.400 C 153.503 234.909,153.542 234.904,153.568 234.362 C 153.586 234.011,153.195 233.381,152.700 232.962 C 151.808 232.206,151.806 232.207,152.448 233.000 M255.232 234.369 C 255.214 234.681,254.892 235.311,254.515 235.769 C 253.869 236.553,253.883 236.551,254.762 235.742 C 255.275 235.270,255.597 234.640,255.479 234.342 C 255.304 233.903,255.257 233.908,255.232 234.369 M154.312 235.804 C 154.540 236.247,155.103 236.950,155.563 237.366 C 156.023 237.783,156.400 238.324,156.400 238.569 C 156.400 239.133,164.069 246.800,164.632 246.800 C 164.862 246.800,165.579 247.355,166.225 248.034 C 166.871 248.713,167.760 249.462,168.200 249.697 C 168.640 249.932,168.100 249.294,167.000 248.278 C 165.900 247.263,164.816 246.425,164.592 246.416 C 164.071 246.396,156.806 239.116,156.783 238.592 C 156.774 238.377,156.121 237.480,155.332 236.600 C 154.543 235.720,154.084 235.362,154.312 235.804 M175.200 242.111 C 175.200 242.187,175.785 242.678,176.500 243.201 C 177.304 243.790,177.584 243.887,177.233 243.455 C 176.700 242.799,175.200 241.807,175.200 242.111 M204.327 247.237 C 204.446 250.988,204.261 251.691,203.380 250.827 C 202.928 250.384,195.590 250.065,195.860 250.500 C 195.963 250.665,197.621 250.800,199.544 250.800 C 201.578 250.800,203.226 250.986,203.485 251.245 C 204.430 252.190,204.800 251.108,204.800 247.400 C 204.800 245.336,204.665 243.563,204.500 243.461 C 204.335 243.358,204.257 245.057,204.327 247.237 M242.000 248.200 C 241.483 248.750,240.777 249.214,240.430 249.232 C 239.971 249.255,239.945 249.321,240.332 249.476 C 240.625 249.592,241.345 249.241,241.932 248.694 C 242.519 248.147,243.270 247.602,243.600 247.481 C 244.114 247.295,244.109 247.259,243.570 247.232 C 243.223 247.214,242.517 247.650,242.000 248.200 M187.436 248.458 C 187.552 248.646,187.986 248.800,188.400 248.800 C 188.814 248.800,189.252 248.960,189.373 249.156 C 189.494 249.351,190.212 249.584,190.968 249.672 C 191.725 249.761,192.256 249.690,192.148 249.516 C 192.041 249.342,191.434 249.200,190.800 249.200 C 190.166 249.200,189.549 249.041,189.430 248.848 C 189.310 248.654,188.765 248.410,188.218 248.306 C 187.671 248.201,187.319 248.270,187.436 248.458 M259.000 248.400 L 257.800 248.705 258.876 248.753 C 259.468 248.779,260.064 248.620,260.200 248.400 C 260.336 248.180,260.392 248.021,260.324 248.047 C 260.256 248.073,259.660 248.232,259.000 248.400 M262.000 248.776 C 262.550 249.219,263.183 249.586,263.407 249.591 C 263.630 249.596,265.877 251.670,268.400 254.200 C 270.923 256.730,273.260 258.789,273.593 258.775 C 274.003 258.758,273.940 258.639,273.400 258.409 C 272.960 258.222,270.710 256.159,268.400 253.824 C 266.090 251.490,263.480 249.218,262.600 248.775 L 261.000 247.970 262.000 248.776 M148.600 250.800 C 147.720 251.225,147.197 251.579,147.439 251.586 C 147.942 251.602,150.400 250.427,150.400 250.171 C 150.400 249.932,150.387 249.937,148.600 250.800 M151.803 250.405 C 151.937 250.622,152.273 250.800,152.549 250.800 C 153.164 250.800,155.200 252.872,155.200 253.498 C 155.200 253.748,155.363 254.054,155.563 254.177 C 156.428 254.711,155.416 252.782,154.265 251.702 C 153.005 250.520,151.328 249.636,151.803 250.405 M169.600 250.684 C 169.930 250.805,170.560 251.196,171.000 251.552 C 171.793 252.194,171.794 252.192,171.038 251.300 C 170.619 250.805,169.989 250.414,169.638 250.432 C 169.096 250.458,169.091 250.497,169.600 250.684 M235.783 252.428 C 235.637 252.663,235.132 253.012,234.659 253.203 C 234.073 253.439,234.003 253.557,234.438 253.575 C 234.789 253.589,235.402 253.240,235.800 252.800 C 236.198 252.360,236.417 252.000,236.286 252.000 C 236.154 252.000,235.928 252.193,235.783 252.428 M175.600 254.197 C 175.600 254.264,176.365 254.704,177.300 255.175 C 178.867 255.963,178.922 255.968,178.000 255.236 C 177.109 254.529,175.600 253.876,175.600 254.197 M230.800 255.033 C 229.448 255.784,230.411 255.755,231.854 255.002 C 232.484 254.674,232.730 254.421,232.400 254.442 C 232.070 254.462,231.350 254.728,230.800 255.033 M155.046 256.186 C 154.691 256.728,154.400 257.336,154.400 257.537 C 154.400 257.738,154.130 258.126,153.800 258.400 C 153.470 258.674,153.203 259.191,153.206 259.549 C 153.212 260.235,153.222 260.220,155.094 256.822 C 156.082 255.027,156.054 254.648,155.046 256.186 M256.320 255.800 C 256.556 256.240,259.863 259.660,263.669 263.400 L 270.590 270.200 263.395 262.804 C 259.438 258.736,256.131 255.316,256.046 255.204 C 255.961 255.092,256.084 255.360,256.320 255.800 M227.400 256.800 C 227.264 257.020,226.814 257.200,226.400 257.200 C 225.986 257.200,225.546 257.363,225.423 257.563 C 225.148 258.009,226.621 257.647,227.989 256.933 C 228.688 256.568,228.792 256.404,228.324 256.402 C 227.952 256.401,227.536 256.580,227.400 256.800 M182.000 257.355 C 182.000 257.440,182.530 257.587,183.179 257.682 C 183.827 257.777,184.267 257.708,184.155 257.528 C 183.957 257.207,182.000 257.050,182.000 257.355 M222.600 258.285 C 222.160 258.391,221.629 258.640,221.420 258.839 C 221.211 259.037,220.547 259.200,219.944 259.200 C 219.341 259.200,218.759 259.342,218.652 259.516 C 218.544 259.690,219.075 259.761,219.832 259.672 C 220.588 259.584,221.306 259.351,221.427 259.156 C 221.548 258.960,221.986 258.800,222.400 258.800 C 222.814 258.800,223.264 258.620,223.400 258.400 C 223.536 258.180,223.592 258.021,223.524 258.046 C 223.456 258.072,223.040 258.179,222.600 258.285 M188.000 259.356 C 188.000 259.442,188.617 259.585,189.372 259.673 C 190.127 259.761,190.656 259.690,190.548 259.516 C 190.355 259.203,188.000 259.055,188.000 259.356 M193.946 260.507 C 194.115 260.676,198.922 260.765,204.627 260.706 L 215.000 260.599 204.319 260.400 C 198.445 260.290,193.777 260.338,193.946 260.507 M131.232 267.622 C 131.214 267.963,130.586 268.838,129.835 269.566 C 128.602 270.761,127.551 272.725,128.437 272.177 C 128.637 272.054,128.800 271.746,128.800 271.493 C 128.800 271.241,129.450 270.368,130.246 269.553 C 131.041 268.739,131.595 267.832,131.477 267.537 C 131.318 267.137,131.255 267.158,131.232 267.622 M282.432 267.638 C 282.414 267.989,282.805 268.619,283.300 269.038 C 284.192 269.794,284.194 269.793,283.552 269.000 C 283.196 268.560,282.805 267.930,282.684 267.600 C 282.497 267.091,282.458 267.096,282.432 267.638 M140.799 272.500 C 140.210 273.304,140.113 273.584,140.545 273.233 C 141.201 272.700,142.193 271.200,141.889 271.200 C 141.813 271.200,141.322 271.785,140.799 272.500 M203.857 271.507 C 203.753 271.676,204.372 271.748,205.234 271.665 C 206.095 271.583,206.800 271.445,206.800 271.358 C 206.800 271.060,204.047 271.200,203.857 271.507 M208.394 273.003 C 209.987 274.921,210.121 275.045,209.686 274.196 C 209.459 273.753,208.852 273.034,208.337 272.598 C 207.433 271.834,207.435 271.848,208.394 273.003 M200.325 278.401 C 200.256 280.821,200.335 282.801,200.500 282.801 C 200.665 282.800,200.800 280.820,200.800 278.400 C 200.800 272.711,200.486 272.712,200.325 278.401 M128.281 276.387 C 128.394 276.820,128.732 277.378,129.033 277.627 C 129.445 277.970,129.428 277.778,128.960 276.840 C 128.253 275.422,127.981 275.241,128.281 276.387 M132.349 279.100 C 131.871 279.709,131.878 279.740,132.400 279.338 C 132.730 279.084,133.450 278.794,134.000 278.693 L 135.000 278.509 133.949 278.454 C 133.370 278.424,132.652 278.714,132.349 279.100 M210.400 292.319 L 210.599 303.000 210.706 292.627 C 210.765 286.922,210.676 282.115,210.507 281.946 C 210.338 281.777,210.290 286.445,210.400 292.319 M200.314 295.018 C 200.402 302.609,200.556 305.008,201.011 305.880 C 201.387 306.600,201.596 306.759,201.598 306.324 C 201.599 305.952,201.420 305.536,201.200 305.400 C 200.951 305.246,200.800 301.470,200.800 295.400 C 200.800 290.036,200.665 285.564,200.500 285.461 C 200.335 285.359,200.251 289.660,200.314 295.018 M204.662 308.500 C 204.764 308.665,205.366 308.800,206.000 308.800 C 206.634 308.800,207.236 308.665,207.338 308.500 C 207.440 308.335,206.838 308.200,206.000 308.200 C 205.162 308.200,204.560 308.335,204.662 308.500 " stroke="none" fill="#a8ccc8" fill-rule="evenodd"></path><path id="path4" d="M201.705 126.287 C 202.314 126.379,203.214 126.377,203.705 126.282 C 204.197 126.187,203.700 126.111,202.600 126.114 C 201.500 126.117,201.097 126.195,201.705 126.287 M191.445 148.328 C 191.333 148.508,191.773 148.577,192.421 148.482 C 193.070 148.387,193.600 148.240,193.600 148.155 C 193.600 147.850,191.643 148.007,191.445 148.328 M147.705 150.287 C 148.314 150.379,149.214 150.377,149.705 150.282 C 150.197 150.187,149.700 150.111,148.600 150.114 C 147.500 150.117,147.097 150.195,147.705 150.287 M154.093 184.000 C 154.093 184.770,154.175 185.085,154.276 184.700 C 154.376 184.315,154.376 183.685,154.276 183.300 C 154.175 182.915,154.093 183.230,154.093 184.000 M266.124 189.000 C 266.126 190.320,266.201 190.812,266.290 190.093 C 266.379 189.374,266.377 188.294,266.286 187.693 C 266.195 187.092,266.122 187.680,266.124 189.000 M152.157 198.000 C 152.157 200.970,152.220 202.185,152.297 200.700 C 152.374 199.215,152.374 196.785,152.297 195.300 C 152.220 193.815,152.157 195.030,152.157 198.000 M312.154 197.777 C 312.032 198.094,312.003 198.679,312.089 199.077 C 312.187 199.528,312.324 199.312,312.454 198.500 C 312.671 197.138,312.530 196.796,312.154 197.777 M301.461 202.300 C 301.358 202.465,302.382 202.550,303.737 202.489 C 308.148 202.289,308.670 202.129,305.124 202.064 C 303.212 202.029,301.563 202.135,301.461 202.300 M101.718 206.298 C 103.433 206.373,106.133 206.372,107.718 206.297 C 109.303 206.221,107.900 206.159,104.600 206.160 C 101.300 206.161,100.003 206.222,101.718 206.298 M266.128 208.800 C 266.128 210.230,266.201 210.815,266.289 210.100 C 266.378 209.385,266.378 208.215,266.289 207.500 C 266.201 206.785,266.128 207.370,266.128 208.800 M154.000 213.376 C 154.000 213.913,154.147 214.444,154.328 214.555 C 154.508 214.667,154.577 214.227,154.482 213.579 C 154.272 212.149,154.000 212.035,154.000 213.376 M191.505 260.283 C 192.002 260.379,192.722 260.375,193.105 260.275 C 193.487 260.175,193.080 260.096,192.200 260.101 C 191.320 260.105,191.007 260.187,191.505 260.283 M215.705 260.287 C 216.314 260.379,217.214 260.377,217.705 260.282 C 218.197 260.187,217.700 260.111,216.600 260.114 C 215.500 260.117,215.097 260.195,215.705 260.287 M284.114 271.400 C 284.117 272.500,284.195 272.903,284.287 272.295 C 284.379 271.686,284.377 270.786,284.282 270.295 C 284.187 269.803,284.111 270.300,284.114 271.400 M210.142 278.200 C 210.141 280.180,210.208 281.040,210.292 280.112 C 210.376 279.184,210.377 277.564,210.295 276.512 C 210.212 275.460,210.143 276.220,210.142 278.200 M210.114 304.600 C 210.117 305.700,210.195 306.103,210.287 305.495 C 210.379 304.886,210.377 303.986,210.282 303.495 C 210.187 303.003,210.111 303.500,210.114 304.600 " stroke="none" fill="#a8d08c" fill-rule="evenodd"></path></g></svg>