<!--?xml version="1.0" standalone="no"?-->

<svg version="1.0" xmlns="http://www.w3.org/2000/svg" width="840.000000pt" height="558.000000pt" viewBox="0 0 840.000000 558.000000" preserveAspectRatio="xMidYMid meet">

<g transform="translate(0.000000,558.000000) scale(0.100000,-0.100000)" fill="#000000" stroke="none">
<path d="M2607 5136 c10 -14 293 -363 629 -778 336 -414 806 -994 1044 -1288
239 -294 484 -596 544 -671 61 -75 221 -272 355 -438 l244 -301 1366 0 c1337
0 1365 0 1346 19 -50 47 -445 391 -450 391 -3 0 -5 -38 -5 -85 l0 -85 -197 1
c-109 1 -246 4 -305 8 l-106 6 -459 450 c-751 738 -853 838 -849 842 4 4 91
19 331 57 88 14 360 57 604 96 245 39 446 72 447 73 5 5 168 295 288 512 71
127 137 245 149 264 l21 34 -35 -6 c-19 -3 -225 -51 -459 -107 -234 -55 -654
-155 -935 -222 -280 -66 -573 -135 -651 -154 l-141 -33 -179 93 c-98 50 -273
141 -389 200 -115 60 -255 132 -310 161 -55 29 -372 193 -705 365 -333 172
-654 338 -715 370 -298 156 -483 250 -489 250 -4 0 1 -11 11 -24z" style="fill: #F5D47E;"></path>
<path d="M2255 4433 c-302 -416 -1289 -1771 -1927 -2645 -43 -59 -78 -110 -78
-113 0 -3 91 -5 203 -5 l203 0 229 313 c126 171 374 510 551 752 176 242 422
578 545 747 123 168 356 487 517 707 l294 402 -28 37 c-66 88 -186 232 -192
232 -4 -1 -146 -193 -317 -427z" style="fill: #F5D47E;"></path>
<path d="M7533 3946 c-35 -61 -63 -119 -63 -128 0 -9 45 -187 100 -395 55
-208 110 -417 122 -465 l22 -88 104 0 c79 0 103 3 99 13 -2 6 -73 271 -157
587 -84 316 -156 578 -159 582 -3 4 -34 -44 -68 -106z" style="fill: #F5D47E;"></path>
<path d="M2547 3726 l-147 -224 2 -249 3 -248 147 0 148 0 2 473 c2 259 1 472
-2 472 -3 0 -71 -101 -153 -224z" style="fill: #F5D47E;"></path>
<path d="M2880 3472 l0 -472 150 0 150 0 0 248 0 248 -141 214 c-78 118 -145
219 -150 225 -5 5 -9 -188 -9 -463z" style="fill: #F5D47E;"></path>
<path d="M2198 3233 l-147 -228 146 -3 c80 -1 147 -1 150 1 2 2 2 106 1 231
l-3 227 -147 -228z" style="fill: #F5D47E;"></path>
<path d="M3232 3223 l3 -228 148 -3 c81 -1 147 0 147 3 0 7 -291 455 -296 455
-2 0 -3 -102 -2 -227z" style="fill: #F5D47E;"></path>
<path d="M7241 3115 c-22 -69 -41 -132 -41 -140 0 -11 12 -15 45 -15 l45 0 0
140 c0 77 -2 140 -4 140 -2 0 -22 -56 -45 -125z" style="fill: #F5D47E;"></path>
<path d="M7341 3108 c-1 -87 3 -139 10 -143 6 -4 25 -4 44 -1 l34 7 -14 47
c-8 26 -28 88 -44 137 l-29 90 -1 -137z" style="fill: #F5D47E;"></path>
<path d="M2058 2905 c-5 -5 -8 -215 -8 -467 l0 -458 150 0 150 0 0 460 0 460
-38 0 c-22 0 -86 3 -143 6 -57 4 -107 3 -111 -1z" style="fill: #F5D47E;"></path>
<path d="M2407 2904 c-4 -4 -7 -214 -7 -466 l0 -459 153 3 152 3 0 460 0 460
-146 3 c-80 1 -148 -1 -152 -4z" style="fill: #F5D47E;"></path>
<path d="M2880 2445 l0 -465 150 0 150 0 0 465 0 465 -150 0 -150 0 0 -465z" style="fill: #F5D47E;"></path>
<path d="M3230 2445 l0 -465 150 0 150 0 0 465 0 465 -150 0 -150 0 0 -465z" style="fill: #F5D47E;"></path>
<path d="M7197 2894 c-4 -4 -7 -72 -7 -151 l0 -143 50 0 50 0 0 145 c0 144 0
145 -22 145 -13 0 -32 3 -43 6 -11 3 -24 2 -28 -2z" style="fill: #F5D47E;"></path>
<path d="M7342 2748 l3 -143 43 -3 42 -3 0 145 0 146 -45 0 -46 0 3 -142z" style="fill: #F5D47E;"></path>
<path d="M207 1393 c-4 -3 -7 -127 -7 -275 l0 -268 4000 0 4000 0 -2 273 -3
272 -3991 3 c-2195 1 -3994 -1 -3997 -5z" style="fill: #F5D47E;"></path>
<path d="M200 525 l0 -265 4000 0 4000 0 0 265 0 265 -4000 0 -4000 0 0 -265z" style="fill: #F5D47E;"></path>
</g>
</svg>
