<svg xmlns="http://www.w3.org/2000/svg" width="193" height="193" fill="none" viewBox="0 0 193 193">
  <path fill="#50483E" fill-rule="evenodd" d="M85.456.457c-.484.22 1.977.302 10.77.352 10.988.063 11.877.034 11.464-.38-.325-.324-21.52-.3-22.234.028Zm-4.122.632c-.149.24 2.292.545 2.802.35.174-.067.316-.222.316-.346 0-.29-2.94-.294-3.118-.004Zm27.478.151c.279.28.699.334 1.679.218 1.751-.208 1.424-.589-.505-.589-1.365 0-1.502.043-1.174.371Zm-31.576.304c-.837.32-.125.58 1.59.58 1.393 0 1.875-.083 1.8-.308-.102-.308-2.744-.519-3.39-.272Zm35.328.227c0 .27.416.353 1.757.353 1.648 0 2.307-.3 1.318-.602-.942-.287-3.075-.113-3.075.25Zm-38.026.604c-.087.14.13.268.486.289.354.02.775.049.936.062.16.014.34-.116.397-.288.128-.384-1.585-.443-1.82-.063Zm42.178-.018a.274.274 0 0 0 .085.376c.32.198 1.787-.122 1.787-.39 0-.294-1.689-.282-1.872.014Zm-44.955.637c-.267.203-.797.372-1.177.377-.872.01-.902.41-.042.575.41.079.695-.002.779-.221.088-.229.55-.346 1.361-.346 1.203 0 1.617-.299.83-.6-.646-.249-1.232-.177-1.75.215ZM119 3.002c.157.41 2.099.551 2.099.153 0-.305-.644-.529-1.519-.529-.54 0-.688.095-.58.377Zm2.35.607c0 .318.498.454 1.183.323.888-.17.678-.553-.305-.553-.483 0-.878.104-.878.23Zm-53.874.649c-.08.207-.387.378-.683.38-.295.002-.707.113-.914.247-.28.18-.135.244.565.247.517.002.941-.109.941-.247s.452-.251 1.004-.251c.725 0 1.004-.105 1.004-.377 0-.263-.266-.376-.887-.376-.556 0-.94.14-1.03.377Zm56.133 0c0 .271.279.376 1.004.376 1.014 0 1.338-.32.607-.6-.744-.286-1.611-.166-1.611.224Zm2.259.612c0 .371.367.505.961.35.798-.209.665-.586-.208-.586-.414 0-.753.106-.753.236Zm-62.05.606c-.315.314-.913.512-2.54.836-.39.078-.77.297-.843.487-.072.19-.43.349-.795.353-.645.008-.65.019-.165.385.445.336.53.336.781-.008.155-.212.58-.385.944-.385.442 0 .663-.135.663-.404 0-.314.196-.381.878-.301.606.07.879 0 .879-.224 0-.206.325-.326.879-.326.547 0 .878-.121.878-.322 0-.437-1.147-.503-1.56-.09Zm63.939-.137c-.34.34-.055.55.746.55.64 0 .879.11.879.403 0 .265.137.351.397.251.219-.084.564-.152.768-.152.204 0 .301-.113.215-.251-.085-.138-.421-.251-.746-.251-.326 0-.632-.12-.681-.267-.094-.282-1.353-.508-1.578-.283Zm3.633 1.482c0 .177.234.323.52.323.286 0 .684.164.886.366.201.201.532.302.735.224.577-.222.433-.59-.232-.59-.33 0-.663-.163-.739-.362-.17-.443-1.17-.41-1.17.039ZM57.435 8.023c-.08.207-.415.376-.745.376-.793 0-.773.41.027.564.42.08.627.007.627-.222 0-.198.265-.342.627-.342.39 0 .628-.142.628-.376 0-.211-.224-.377-.51-.377-.28 0-.575.17-.654.377Zm76.966 0c0 .234.237.376.627.376.41 0 .628.14.628.403 0 .265.137.351.397.251.219-.084.501-.152.628-.152.126 0 .23-.113.23-.251s-.27-.251-.601-.251c-.33 0-.665-.17-.745-.376-.079-.208-.374-.377-.654-.377-.286 0-.51.166-.51.377Zm-79.47 1.236c-.083.217-.42.395-.752.395-.33 0-.6.113-.6.251s.282.251.627.251c.346 0 .628-.113.628-.251s.292-.251.648-.251c.407 0 .61-.117.544-.314-.157-.474-.922-.53-1.094-.081Zm82.545-.183c-.485.182-.371.578.167.578.264 0 .519.103.565.228.133.364 1.025.43 1.145.086.067-.19-.111-.314-.448-.314-.307 0-.684-.156-.837-.348-.153-.191-.42-.295-.592-.23Zm-85.061 1.457c-.08.207-.415.376-.745.376s-.601.113-.601.251-.161.251-.358.251c-.198 0-.51.151-.696.336-.184.185-.487.387-.672.448-.266.09-.252.184.067.448.343.285.404.274.404-.072 0-.267.216-.407.627-.407.39 0 .628-.142.628-.377 0-.234.237-.376.627-.376.346 0 .628-.113.628-.251s.17-.251.377-.251.376-.17.376-.377-.117-.376-.26-.376c-.141 0-.323.17-.402.377Zm87.508 0a.377.377 0 0 0 .753 0 .377.377 0 0 0-.753 0Zm1.255.642c0 .1.169.247.376.327.216.083.377.005.377-.183 0-.18-.169-.327-.377-.327-.207 0-.376.083-.376.183Zm1.318.411c-.494.185-.366.578.188.578.276 0 .502.154.502.342 0 .229.206.302.627.221.46-.087.628-.011.628.286 0 .261.215.406.6.406.331 0 .666.17.746.377.079.207.261.376.403.376.142 0 .259-.17.259-.377s-.156-.376-.346-.376c-.19 0-.485-.168-.656-.374-.17-.205-.397-.32-.504-.254-.107.066-.334-.048-.505-.253-.17-.206-.481-.374-.69-.374-.21 0-.507-.156-.66-.348-.153-.191-.42-.295-.592-.23Zm-94.575 1.348c-.231.373.037.577.517.392.223-.085.334-.268.248-.407-.204-.33-.556-.323-.764.015Zm-1.245.736c-.085.138.085.251.377.251s.462-.113.377-.251c-.086-.138-.255-.251-.377-.251s-.291.113-.377.251Zm-1.519.975c-.397.399-.867.67-1.043.601-.176-.067-.39.06-.474.28-.085.222-.309.403-.496.403-.201 0-.283.156-.198.376.08.208.245.377.369.377.123 0 .224-.17.224-.377s.214-.376.475-.376c.262 0 .543-.176.626-.392.082-.216.265-.322.405-.236.14.087.322-.019.405-.235.083-.216.42-.392.752-.392.678 0 .804-.37.203-.6a3.225 3.225 0 0 0-.46-.153c-.035 0-.39.326-.788.724Zm101.46-.556c-.313.312-.17.585.307.585.262 0 .54.17.62.377.166.433.662.51.662.102 0-.544-1.264-1.39-1.589-1.065Zm2.251 1.261c-.282.283-.171.579.216.579.208 0 .377.17.377.376 0 .396.387.515.593.183.157-.256-.978-1.346-1.186-1.138ZM41.586 16.94c-.307.247-.557.586-.557.753 0 .182-.206.248-.517.167-.317-.082-.571.004-.654.222-.076.196-.295.357-.487.357-.193 0-.35.17-.35.377s-.113.376-.251.376a.252.252 0 0 0-.251.251c0 .138.121.251.27.251.346 0 .985-.639.985-.986 0-.148.241-.269.536-.269.295 0 .797-.282 1.117-.628.32-.345.757-.627.97-.627.47 0 .516-.4.067-.572-.177-.068-.572.08-.878.327Zm109.047-.341c-.263.261-.197.585.118.585.158 0 .431.198.607.439.499.682.706.188.228-.543-.436-.664-.659-.777-.953-.481Zm1.704 1.355c-.091.147.071.33.362.406.29.075.527.294.527.485 0 .19.092.347.204.347.112 0 .437.218.723.484.637.594 1.368.753 1.515.332.069-.198-.128-.314-.539-.314-.403 0-.648-.14-.648-.368 0-.226-.147-.313-.38-.224-.271.104-.335.031-.224-.258.101-.262.022-.405-.221-.405-.207 0-.441-.17-.521-.377-.168-.438-.561-.492-.798-.108ZM37.302 19.933c.055.165.182.293.282.282.3-.03.242-.375-.082-.483-.165-.056-.256.035-.2.2Zm-.641.475c-.087.14-.036.33.114.423.386.24.635-.088.312-.41-.18-.18-.32-.185-.426-.013Zm119.075.058c0 .335 1.379 1.738 1.709 1.738.432 0 1.551.673 1.389.835-.087.086.028.229.255.315.226.087.412.316.412.509 0 .192.176.349.392.349.215 0 .321.113.235.251-.085.138.021.251.236.251.216 0 .392.17.392.377s.128.376.284.376c.156 0 .496.244.755.542.259.298.531.482.606.407.074-.075-.265-.56-.755-1.08-.49-.518-.89-1.04-.89-1.16 0-.118-.176-.215-.392-.215-.215 0-.321-.113-.236-.251.086-.138.024-.251-.137-.251s-.504-.27-.764-.6c-.259-.329-.76-.671-1.113-.76-.353-.088-.575-.269-.493-.401.083-.135-.024-.175-.24-.092-.215.082-.39.026-.39-.126 0-.332-.786-1.284-1.06-1.284-.107 0-.195.122-.195.27Zm-119.824.875c-.082.216-.246.334-.362.262-.115-.071-.21.034-.21.236 0 .2.092.365.206.365.28 0 1.216-.816 1.216-1.06 0-.36-.698-.199-.85.197Zm-2.036 1.482c-.277.337-.595.618-.709.625-.229.012-.923.656-.923.856 0 .07-1.242 1.379-2.761 2.909-2.603 2.622-3.103 3.274-2.51 3.274.138 0 .251-.15.251-.334 0-.184.282-.485.628-.67.345-.184.627-.486.627-.67 0-.183.121-.334.27-.334.147 0 .429-.161.627-.358.197-.198.358-.48.358-.628 0-.148.166-.269.368-.269.226 0 .313-.147.224-.38-.104-.27-.031-.335.258-.224.269.103.405.02.405-.248 0-.222.121-.403.27-.403.346 0 .985-.639.985-.986a.27.27 0 0 1 .27-.269c.147 0 .429-.161.627-.358.197-.198.358-.48.358-.628 0-.148.113-.269.251-.269.35 0 1.246-.93 1.067-1.109-.25-.249-.422-.162-.941.473Zm129.077 3.815c.174.07.252.23.174.356-.078.127-.017.23.134.23.152 0 .705.451 1.23 1.003.524.55 1.027.928 1.117.838.209-.209-2.272-2.6-2.671-2.574-.214.014-.209.056.016.147Zm2.823 2.868c0 .438.949 1.523 1.108 1.267.079-.128-.026-.299-.233-.378-.208-.08-.363-.233-.345-.34.076-.463-.046-.823-.279-.823-.138 0-.251.124-.251.274ZM25.969 30.592c0 .218-.17.397-.377.397a.385.385 0 0 0-.376.392c0 .215-.113.32-.251.235-.138-.085-.251.021-.251.236 0 .216-.121.392-.27.392-.334 0-.985.634-.985.96 0 .133-.176.309-.392.392-.216.083-.323.264-.237.403.236.381.629.304.629-.123 0-.208.121-.377.27-.377.346 0 .985-.639.985-.986a.27.27 0 0 1 .27-.269c.147 0 .429-.161.627-.358.197-.198.358-.48.358-.628 0-.148.179-.269.397-.269.22 0 .353-.134.298-.298-.155-.466-.695-.543-.695-.1Zm141.062.804c0 .334.068.351.376.095.208-.172.377-.355.377-.407 0-.052-.169-.095-.377-.095-.207 0-.376.183-.376.407Zm.662.471c.08.208.245.377.369.377.123 0 .224.17.224.377s.121.376.269.376c.36 0 .986.643.986 1.013 0 .162.169.23.376.151.223-.085.377-.003.377.203 0 .192.118.388.262.436.145.047.28.327.303.62.023.31.17.484.349.415.442-.17.136-.827-.831-1.783-.46-.456-.836-.888-.836-.96 0-.236-.711-.848-.986-.848-.148 0-.269-.17-.269-.377a.374.374 0 0 0-.368-.376c-.225 0-.313.148-.225.377ZM22.204 34.755c0 .279-.168.502-.377.502-.207 0-.376.142-.376.317 0 .174-.282.529-.628.788-.655.493-.818.903-.357.903.29 0 1.738-1.358 1.738-1.63 0-.09.17-.333.379-.542.208-.208.314-.482.236-.61-.252-.406-.615-.246-.615.272Zm149.094 1.342c0 .237.974 1.168 1.222 1.168.156 0 .284.17.284.377s.113.376.251.376.251.264.251.585c0 .367.233.71.627.921.346.184.628.486.628.67 0 .392.404.445.629.081.086-.139-.021-.32-.237-.403-.216-.083-.392-.308-.392-.5 0-.193-.139-.322-.308-.287-.169.034-.346-.192-.394-.502-.047-.31-.191-.565-.32-.565-.128 0-.233-.122-.233-.27 0-.352-1.386-1.738-1.738-1.738-.148 0-.27.039-.27.087ZM19.694 37.641c0 .23.122.377.27.328.149-.05.27-.197.27-.328 0-.132-.122-.28-.27-.329-.148-.05-.27.098-.27.329Zm-.502 1.129c0 .138-.17.251-.377.251s-.376.157-.376.35c0 .192-.182.42-.405.505-.257.098-.357.338-.275.654.085.323.007.499-.222.499a.355.355 0 0 0-.353.356c0 .195-.141.406-.314.467-.172.062-.226.206-.118.32.26.278 1.687-1.304 1.687-1.869 0-.244.282-.595.628-.78.616-.33.869-1.004.376-1.004a.252.252 0 0 0-.251.251Zm156.022 2.468c-.069.112.072.372.312.578.779.667 1.043.765 1.043.386 0-.427-1.172-1.26-1.355-.964ZM15.929 43.08c0 .153-.186.414-.415.581-.228.167-.334.434-.236.593.283.457.651.337.651-.213 0-.279.167-.502.376-.502.208 0 .377-.101.377-.224 0-.124-.17-.29-.377-.369-.207-.08-.376-.019-.376.134Zm160.55.082c-.089.23-.002.377.224.377.202 0 .368.17.368.377s.169.376.376.376c.532 0 .462-.287-.228-.942-.493-.466-.621-.5-.74-.188Zm-161.886 2.15c-.232.27-.421.566-.421.657 0 .091-.188.373-.417.627-.23.253-.327.544-.216.647.11.102.25.045.312-.127.061-.173.272-.314.467-.314.197 0 .356-.241.356-.537 0-.296.186-.673.415-.84.235-.172.309-.369.17-.454-.135-.083-.434.07-.666.34Zm163.231-.185c0 .231.113.42.251.42s.251.226.251.502c0 .279.168.502.376.502s.377.17.377.377.113.376.251.376c.37 0 .305-.395-.123-.75-.205-.171-.322-.395-.259-.497.064-.102-.163-.448-.504-.769-.515-.483-.62-.51-.62-.161Zm1.757 3.055c0 .208.169.377.376.377.235 0 .377.237.377.628 0 .345.113.627.251.627s.251.17.251.377.169.376.376.376c.208 0 .377-.117.377-.26 0-.141-.169-.323-.377-.402-.207-.08-.376-.306-.376-.503 0-.455-.739-1.596-1.033-1.596-.122 0-.222.17-.222.377ZM12.164 49.41c0 .193-.181.42-.403.505-.234.09-.34.314-.255.538a.398.398 0 0 1-.225.527c-.205.078-.372.407-.372.73 0 .324-.17.684-.379.801-.335.188-.336.27-.008.703.356.471.371.464.379-.2.004-.38.121-.69.259-.69s.251-.282.251-.627c0-.39.142-.628.377-.628.234 0 .376-.237.376-.628 0-.384.143-.627.368-.627s.313-.148.225-.377c-.182-.473-.593-.492-.593-.026Zm169.425 2.036c0 .207.113.376.251.376s.251-.17.251-.377-.113-.376-.251-.376-.251.17-.251.377Zm.502 1.227c0 .193.169.415.376.495.257.098.377-.014.377-.35 0-.272-.169-.494-.377-.494-.207 0-.376.157-.376.35Zm-88.227.07c-2.705.116-6.641.616-6.794.865-.076.122-.463.222-.861.222-.398 0-1.506.282-2.463.628-.956.345-1.864.627-2.015.627-.522 0-7.091 3.105-8.192 3.872-.412.286-.932.633-1.157.771-1.111.683-2.431 1.655-3.042 2.237-.374.358-.78.65-.905.65-.371 0-5.82 5.51-5.82 5.886 0 .19-.085.385-.189.431-.292.13-2.823 3.433-2.823 3.683 0 .124-.215.497-.477.83-.807 1.026-4.041 7.68-4.041 8.316 0 .169-.237.928-.526 1.687-.29.76-.62 1.889-.735 2.51a28.916 28.916 0 0 1-.492 2.133c-1.193 4.236-.077 20.735 1.51 22.323.134.133.243.483.243.778 0 .295.392 1.343.872 2.328.48.985.943 2.073 1.029 2.416.086.343.436.926.778 1.294l.621.671 1.048-1.207c1.654-1.904 4.439-4.682 5.913-5.901a62.286 62.286 0 0 0 1.631-1.38c.155-.147.649-.482 1.097-.745.449-.264.816-.568.816-.676 0-.109.12-.197.268-.197.147 0 .633-.279 1.08-.62 1.284-.979 6.813-3.895 7.392-3.899.094-.001.727-.283 1.405-.628.68-.344 1.476-.626 1.77-.626.294 0 .642-.101.773-.225.308-.29 3.939-1.23 6.513-1.686 4.685-.83 16.76-.58 19.076.394.277.116 1.293.408 2.259.649.967.241 1.87.518 2.008.618.139.098.61.247 1.049.33.814.154 2.238.735 4.473 1.826.691.337 1.348.61 1.461.608.112-.002.574.278 1.027.624.453.345.935.627 1.071.627.137 0 .869.424 1.627.941.758.518 1.652 1.098 1.987 1.29 2.069 1.184 8.726 7.299 9.799 9.001.75 1.19 1.135 1.02 1.988-.878a339.51 339.51 0 0 1 1.344-2.949c.851-1.832 1.916-5.161 1.913-5.978-.002-.389.111-.919.25-1.179 1.326-2.478 1.387-14.509.095-18.87-.191-.646-.348-1.467-.348-1.823 0-.355-.099-.842-.22-1.081-.562-1.11-1.035-2.375-1.035-2.763 0-.234-.279-.993-.619-1.686-.34-.692-.964-1.993-1.388-2.89-.423-.897-1.011-2.027-1.306-2.51-1.184-1.94-2.703-4.183-3.317-4.895-.357-.414-.648-.833-.649-.932-.001-.39-5.004-5.219-6.777-6.54a400.512 400.512 0 0 1-2.51-1.885c-.345-.264-1.192-.791-1.883-1.172-.69-.38-1.399-.81-1.576-.954-.494-.403-3.154-1.692-3.493-1.693-.165 0-.832-.283-1.48-.629-.65-.345-1.373-.627-1.607-.627-.234 0-.774-.174-1.2-.386-.74-.37-2.922-.928-5.327-1.363-.621-.113-2.485-.277-4.142-.365a367.638 367.638 0 0 1-4.016-.232c-.552-.038-1.794-.037-2.76.005ZM9.823 53.747c-.244.244-.206.837.054.837.122 0 .28-.226.353-.502.13-.493-.079-.664-.407-.335Zm-.753 1.255c-.093.092-.168.375-.168.628s-.113.46-.251.46-.251.234-.251.52c0 .286-.17.69-.376.896-.208.207-.377.538-.377.736 0 .197.17.358.377.358.234 0 .376-.237.376-.627 0-.363.144-.628.342-.628.229 0 .302-.206.222-.627-.088-.46-.012-.628.285-.628.265 0 .406-.217.406-.627 0-.61-.244-.802-.585-.46Zm174.277.218c0 .406.392.498.611.143.077-.123-.03-.289-.236-.369-.228-.087-.375.002-.375.226Zm.936 1.022c-.101.1-.183.356-.183.568 0 .282.074.31.279.105.154-.154.236-.409.183-.568-.053-.158-.178-.206-.279-.105Zm.319 1.71c0 .409.139.648.376.648.25 0 .377.25.377.738 0 .406.113.808.251.893.138.086.251.356.251.601s.169.445.376.445c.479 0 .491-.58.017-.845-.197-.11-.398-.483-.445-.829-.048-.344-.193-.796-.325-1.003-.13-.207-.24-.536-.244-.732-.012-.672-.634-.59-.634.084ZM7.144 59.663c0 .326-.134.727-.298.89-.46.461-.51 1.309-.077 1.309.25 0 .375-.254.375-.768 0-.447.105-.703.251-.613.142.088.251-.117.251-.472 0-.345-.113-.697-.251-.782-.14-.087-.251.106-.251.436Zm179.465 3.062c0 .492.113.894.251.894s.251.348.251.774c0 .507.108.738.314.67.473-.158.513-.832.075-1.27-.214-.214-.389-.673-.389-1.02s-.113-.7-.251-.786c-.149-.092-.251.207-.251.738Zm-180.72.16c0 .285-.17.688-.376.895-.208.207-.377.651-.377.987 0 .374.145.609.377.609.262 0 .376-.265.376-.879 0-.573.119-.878.342-.878.229 0 .302-.206.221-.627-.144-.758-.563-.838-.563-.108Zm92.763 2.595c1.39.185 2.745.451 3.012.59.266.138.822.404 1.236.59 2.591 1.168 6.903 5.885 6.903 7.553 0 .205.197.758.438 1.228.816 1.592.645 7.87-.23 8.41-.115.07-.208.309-.208.528 0 2.086-4.864 7.237-7.656 8.108a28.27 28.27 0 0 0-1.631.562c-1.19.475-6.289.544-7.798.105-6.755-1.964-11.176-8.743-10.255-15.726.24-1.828.333-2.14 1.185-4.02.552-1.22 2.22-3.45 3.27-4.374.482-.425 1.219-1.07 1.637-1.437.418-.366 1.22-.81 1.78-.987.56-.176 1.169-.434 1.352-.573.334-.253 2.998-.849 3.934-.88.277-.009 1.64.136 3.03.323Zm89.212.774c0 .346.113.628.251.628s.251-.282.251-.628c0-.345-.113-.627-.251-.627s-.251.282-.251.627Zm-183.23.357c0 .265-.189.81-.42 1.212-.418.729-.331 1.569.16 1.569.143 0 .26-.452.26-1.004 0-.68.11-1.004.342-1.004.229 0 .302-.206.221-.627-.14-.737-.563-.846-.563-.146Zm183.732 1.51c0 .784.356 1.209.634.759.221-.357-.075-1.496-.388-1.496-.135 0-.246.332-.246.738Zm-184.8 1.92c-.261.261-.234 1.3.038 1.468.123.077.274-.002.334-.173.158-.449-.15-1.517-.372-1.294Zm185.553.606c0 .414.113.753.251.753s.251-.339.251-.753-.113-.753-.251-.753-.251.339-.251.753Zm.502 1.977c0 .677.112 1.035.323 1.035.462 0 .505-1.382.055-1.756-.327-.27-.378-.172-.378.721ZM2.777 72.341c-.191.625-.032 1.4.31 1.514.19.063.292-.26.292-.928 0-1.04-.357-1.388-.602-.586Zm187.597 2.934c0 .492.113.894.251.894s.251-.332.251-.738c0-.406-.113-.808-.251-.894-.149-.092-.251.207-.251.738Zm-188-.612c-.21.59-.228 1.757-.028 1.757.422 0 .52-.386.29-1.15-.12-.403-.238-.676-.262-.607Zm188.51 3.828c-.006 1.342.07 1.694.368 1.694.51 0 .516-2.23.009-2.902-.337-.443-.37-.337-.377 1.208ZM1.586 77.612c-.216 1.13-.089 3.075.2 3.075.248 0 .338-.432.338-1.632 0-1.31-.373-2.309-.538-1.443ZM191.63 82.43c0 .846.111 1.521.251 1.521.138 0 .251-.614.251-1.365s-.113-1.436-.251-1.521c-.157-.097-.251.416-.251 1.365ZM1.057 81.837c-.273.274-.231 2.615.046 2.615.129 0 .29-.198.36-.44.17-.593-.17-2.413-.406-2.175ZM192.14 95.433c.006 8.617.061 10.158.345 9.784.36-.475.562-15.946.244-18.694-.401-3.458-.596-.495-.589 8.91ZM.422 86.146c-.341.831-.215 21.589.133 21.938.251.251.314-1.956.314-11.032 0-10.876-.041-11.893-.447-10.906Zm.447 24.018c0 1.074.409 1.393.55.43.121-.826.006-1.293-.32-1.293-.126 0-.23.388-.23.863Zm.725 2.337c-.26 1.729-.136 3.075.284 3.075.136 0 .246-.732.246-1.631 0-1.291-.392-2.359-.53-1.444Zm.701 4.242c-.253.253-.208 1.845.052 1.845.28 0 .537-1.566.298-1.824-.098-.106-.255-.115-.35-.021Zm.376 3.143c.119.804.708.889.708.103 0-.421-.137-.648-.394-.648-.262 0-.367.183-.314.545Zm.708 2.18c0 .857.481 1.351.54.553.02-.284.049-.649.062-.81.014-.161-.116-.34-.288-.397-.205-.069-.314.159-.314.654Zm.67 1.71c-.303.301-.176 1.27.209 1.589.207.172.376.574.376.894 0 .32.113.652.251.738.146.09.251-.166.251-.613 0-.422-.113-.768-.251-.768s-.251-.452-.251-1.004c0-.942-.198-1.225-.585-.836Zm1.182 4.464c-.077.2-.066.482.023.627.292.473.635.276.635-.364 0-.681-.431-.853-.658-.263Zm.658 1.769c0 .345.1.627.222.627s.276-.282.341-.627c.08-.422.008-.628-.221-.628-.198 0-.342.265-.342.628Zm.502 1.487c0 .198.17.529.378.737.208.208.401.66.43 1.004.028.344.14.571.25.504.288-.179.242-1.348-.054-1.348-.138 0-.251-.282-.251-.627 0-.391-.142-.628-.376-.628a.369.369 0 0 0-.377.358Zm1.424 3.257c-.14.369.021.652.375.652.115 0 .209-.226.209-.502 0-.575-.382-.674-.584-.15Zm.588 1.091c.012.575.437.827.565.335.091-.347.018-.523-.216-.523-.194 0-.351.085-.35.188Zm.585 1.619c.122.798.666.877.666.096 0-.408-.14-.648-.375-.648-.244 0-.345.192-.29.552Zm.781 1.293c-.12.298-.062.543.162.682.193.12.351.41.352.644 0 .235.142.474.314.532.195.065.312-.139.312-.545 0-.356-.095-.648-.213-.648-.116 0-.33-.254-.475-.565-.244-.525-.276-.532-.452-.1Zm1.14 2.798c0 .208.113.377.251.377s.251-.169.251-.377c0-.207-.113-.376-.251-.376s-.251.169-.251.376Zm.67.545c-.272.27-.201.468.424 1.196.49.569.618.62.745.29.098-.253.018-.399-.216-.399-.225 0-.368-.243-.368-.627 0-.61-.244-.802-.585-.46Zm1.145 2.64c.155.466.695.543.695.099a.399.399 0 0 0-.397-.397c-.22 0-.353.134-.298.298Zm.695 1.307c0 .192.17.414.377.494.207.079.376.318.376.528 0 .212.113.385.251.385s.251.169.251.376c0 .208.17.377.377.377s.376-.117.376-.259c0-.142-.17-.324-.377-.403-.207-.08-.376-.422-.376-.76 0-.349-.11-.548-.253-.459-.139.086-.32-.021-.403-.237-.187-.486-.599-.516-.599-.042Zm1.941 2.31c-.207.208.079.884.62 1.466.248.268.455.607.46.753.017.577 1.006 1.486 1.298 1.193.21-.209.175-.324-.136-.443-.23-.088-.418-.374-.418-.636 0-.261-.166-.475-.368-.475-.225 0-.313-.147-.225-.376.092-.239-.003-.377-.259-.377-.262 0-.403-.218-.403-.627 0-.598-.244-.802-.569-.478Zm2.465 3.843c-.181.294.097 1.027.39 1.027.123 0 .224.121.224.269 0 .347.639.986.986.986.148 0 .269-.113.269-.251a.252.252 0 0 0-.251-.251c-.138 0-.251-.169-.251-.376a.377.377 0 0 0-.377-.377c-.234 0-.376-.237-.376-.627 0-.62-.34-.842-.614-.4Zm174.506 1.912c-.096.098-.184 4.03-.194 8.738-.014 6.93.044 8.5.302 8.241.244-.243.326-2.126.346-7.899.025-7.319-.082-9.457-.454-9.08Zm-172.6 1.11c.056.166.183.293.283.283.3-.031.242-.375-.081-.483-.166-.056-.257.035-.201.2Zm.601.748c-.171.278.225.578.456.346.24-.239.195-.579-.075-.579-.13 0-.301.105-.38.233Zm.778.443c-.283.283-.173.579.216.579.207 0 .376-.106.376-.236 0-.317-.392-.543-.592-.343Zm.457.847c-.091.147-.106.328-.032.402.18.179.669-.138.669-.434 0-.321-.434-.299-.637.032Zm1.263 1.742c-.086.139.021.321.237.403.216.083.392.32.392.527 0 .243.143.322.405.221.289-.111.362-.047.258.224-.089.233-.002.38.224.38.202 0 .368.151.368.334 0 .184.282.486.628.67.345.184.627.486.627.67 0 .453.414.424.593-.042.08-.208.027-.377-.117-.377-.341 0-.978-.642-.978-.986 0-.148-.15-.269-.334-.269-.184 0-.485-.282-.67-.627-.184-.346-.486-.628-.67-.628-.183 0-.334-.169-.334-.377 0-.427-.393-.504-.629-.123Zm3.892 3.907c0 .266.776.921.92.777.079-.08-.03-.319-.245-.533-.398-.398-.675-.498-.675-.244Zm1.915 1.818c-.195.309.427 1.022.909 1.042.103.004.188.129.188.277 0 .335.634.986.96.986.133 0 .306.169.386.377.08.207.261.376.403.376.142 0 .259-.169.259-.376 0-.208-.15-.377-.334-.377-.184 0-.486-.282-.67-.627-.184-.346-.486-.628-.67-.628-.183 0-.334-.113-.334-.251s-.161-.251-.358-.251c-.197 0-.398-.198-.445-.439-.067-.338-.135-.364-.294-.109Zm2.98 3.309c-.086.138.02.251.235.251.216 0 .392.121.392.269 0 .302.621.986.895.986.099 0 .315.185.48.412.28.381.313.381.46 0 .086-.227.04-.412-.104-.412-.341 0-.978-.642-.978-.986 0-.148-.17-.269-.377-.269s-.376-.113-.376-.251-.106-.251-.236-.251-.306.113-.392.251Zm3.639 3.138c0 .207.149.376.33.376.182 0 .68.395 1.108.879.762.86 1.323 1.126 1.323.627 0-.138-.17-.251-.377-.251s-.376-.122-.376-.27c0-.352-1.386-1.738-1.738-1.738-.148 0-.27.169-.27.377Zm156.373 1.38c0 .414.113.753.251.753s.251-.339.251-.753-.113-.753-.251-.753-.251.339-.251.753Zm-153.102.941c.014.325.663 1.067.934 1.067.143 0 .327.176.41.392.082.216.264.323.403.237.335-.207.324-.629-.016-.629-.347 0-.986-.639-.986-.986 0-.148-.17-.269-.377-.269s-.372.085-.368.188Zm152.349 1.088c0 .96.591.874.707-.103.056-.476-.035-.671-.314-.671-.272 0-.393.238-.393.774Zm-149.839.92c.02.465 1.194 1.065 1.34.684.086-.223-.005-.37-.227-.37-.202 0-.368-.113-.368-.251s-.17-.251-.376-.251c-.208 0-.373.085-.369.188Zm149.337.942c0 .39-.142.627-.377.627-.234 0-.376.237-.376.628 0 .345-.113.627-.251.627s-.251.169-.251.377c0 .207.113.376.251.376s.251-.169.251-.376c0-.208.091-.377.203-.377.222 0 1.052-1.749 1.052-2.218 0-.16-.113-.292-.251-.292s-.251.282-.251.628Zm-147.463.376c-.085.138-.027.251.13.251.155 0 .447.164.649.366.201.201.532.302.735.224.587-.225.428-.59-.258-.59-.346 0-.628-.113-.628-.251s-.106-.251-.236-.251-.306.113-.392.251Zm1.883 1.255c0 .138.121.251.27.251.147 0 .438.171.647.379.208.208.482.314.61.236.127-.078.23.033.23.248 0 .233.218.392.538.392.514 0 .508-.029-.138-.627-.372-.346-.84-.628-1.04-.628-.2 0-.364-.113-.364-.251s-.17-.251-.377-.251-.376.113-.376.251Zm3.07 1.804c.155.466.695.543.695.099a.399.399 0 0 0-.397-.397c-.22 0-.353.134-.298.298Zm140.502.079c0 .207-.113.376-.251.376s-.251.226-.251.502.113.502.251.502.251-.214.251-.475c0-.262.169-.54.376-.62.208-.079.377-.261.377-.403 0-.142-.169-.259-.377-.259a.377.377 0 0 0-.376.377Zm-139.117.682c.31.15.565.356.565.458 0 .102.282.256.627.343.346.087.628.268.628.404 0 .135.17.246.377.246s.376-.113.376-.251-.17-.251-.377-.251a.377.377 0 0 1-.376-.376c0-.235-.237-.377-.628-.377-.345 0-.627-.113-.627-.251s-.254-.243-.565-.234l-.565.017.565.272Zm137.862 1.044a.403.403 0 0 1-.397.407c-.219 0-.353.134-.298.298.151.455.695.547.695.118 0-.209.187-.416.415-.461.388-.075.388-.104 0-.425-.357-.296-.415-.287-.415.063Zm-134.787.741c0 .185.17.336.377.336s.376-.151.376-.336c0-.183-.17-.334-.377-.334s-.376.151-.376.334Zm1.38.67c.086.138.363.251.616.251s.525.169.605.377c.079.207.261.376.403.376.142 0 .259-.169.259-.376a.377.377 0 0 0-.377-.377c-.207 0-.376-.113-.376-.251s-.29-.251-.643-.251c-.364 0-.574.109-.486.251Zm131.336.774c-.517.541-.941 1.077-.941 1.191 0 .115-.282.361-.628.545-.658.353-.783.627-.394.867.128.079.304-.078.389-.349.086-.271.377-.562.646-.647.269-.086.489-.261.489-.39 0-.338.935-1.224 1.109-1.05.08.081.146-.042.146-.271 0-.231.113-.419.251-.419a.252.252 0 0 0 .251-.251c0-.441-.353-.234-1.318.774Zm-128.951.481c0 .138.269.251.597.251.328 0 .737.169.909.377.172.207.468.376.658.376s.346-.169.346-.376c0-.235-.237-.377-.627-.377-.346 0-.628-.113-.628-.251s-.282-.251-.627-.251c-.346 0-.628.113-.628.251Zm3.012 1.255c0 .138.226.251.502.251s.502-.113.502-.251-.226-.251-.502-.251-.502.113-.502.251Zm1.255.475c0 .289.538.486.941.346.547-.191.34-.57-.313-.57-.346 0-.628.101-.628.224Zm1.506.78c0 .138.358.251.796.251.438 0 .998.183 1.246.407.247.224.623.34.835.259.655-.251.426-.666-.367-.666-.414 0-.753-.113-.753-.251s-.395-.251-.879-.251c-.483 0-.878.113-.878.251Zm120.229 0c0 .138-.179.251-.397.251-.219 0-.353.134-.298.298.137.414.695.565.695.19 0-.169.198-.457.439-.64.419-.318.419-.334 0-.342-.241-.004-.439.105-.439.243Zm-116.464 1.255c0 .138.282.251.627.251.346 0 .628-.113.628-.251s-.282-.251-.628-.251c-.345 0-.627.113-.627.251Zm114.393.099c-.241.183-.439.461-.439.619 0 .157-.282.286-.628.286-.345 0-.627.113-.627.251s-.282.251-.628.251c-.39 0-.627.142-.627.377 0 .234-.237.376-.628.376-.345 0-.627.112-.627.249 0 .33.852.19 1.345-.22.214-.178.509-.25.654-.16.145.09.332-.014.414-.23.083-.216.348-.392.589-.392.242 0 .744-.282 1.116-.627.372-.346.777-.628.9-.628s.293-.113.378-.251c.227-.366-.678-.292-1.192.099Zm-112.636.376c0 .124.179.293.397.377.705.27 1.36.162 1.36-.224 0-.263-.265-.377-.879-.377-.483 0-.878.101-.878.224Zm2.635.78c.086.138.432.251.769.251s.612-.113.612-.251-.346-.251-.768-.251c-.448 0-.703.105-.613.251Zm1.883.497c0 .316 1.138.606 1.63.417.73-.28.367-.663-.626-.663-.552 0-1.004.111-1.004.246Zm2.603.705c.186.302 1.915.357 1.915.061 0-.142-.459-.259-1.02-.259-.56 0-.962.089-.895.198Zm2.982.618c.064.193.57.314 1.318.314.747 0 1.253-.121 1.317-.314.076-.227-.29-.314-1.317-.314s-1.394.087-1.318.314Zm96.238-.146c-.385.383-.117.612.628.538 1.039-.102 1.27-.706.271-.706-.403 0-.808.075-.899.168Zm-92.661.836c.085.138.77.251 1.52.251.752 0 1.366-.113 1.366-.251 0-.14-.675-.251-1.521-.251-.95 0-1.462.094-1.365.251Zm90.485 0c0 .138.395.251.878.251.484 0 .879-.113.879-.251s-.395-.251-.879-.251c-.483 0-.878.113-.878.251Zm-85.378.565c.249.248 8.926.314 41.704.314 32.777 0 41.455-.066 41.704-.314.251-.251-8.09-.314-41.704-.314-33.614 0-41.955.063-41.704.314Z" clip-rule="evenodd"/>
  <path fill="#50483E" fill-rule="evenodd" d="M84.284 1.223c-.215.245-.773.3-2.076.208-1.577-.113-1.764-.08-1.625.283.139.36-.104.41-1.975.41-1.57 0-2.17.09-2.265.342-.096.25-.475.309-1.412.218-1.109-.106-1.26-.068-1.124.286.132.344-.042.409-1.104.409-.78 0-1.3.119-1.365.311-.064.193-.454.281-1.025.232-.704-.061-.921.014-.921.316 0 .294-.257.396-1.004.396-.552 0-1.004.113-1.004.251s-.452.251-1.004.251c-.725 0-1.004.105-1.004.377 0 .262-.265.376-.879.376-.553 0-.878.12-.878.326 0 .225-.273.295-.879.224-.682-.08-.878-.013-.878.3 0 .28-.226.405-.726.405-.423 0-.788.162-.875.387-.107.28-.272.324-.592.16-.554-.285-1.07-.115-1.07.352 0 .212-.253.356-.627.356-.354 0-.628.145-.628.333 0 .227-.24.298-.756.222-.617-.09-.728-.036-.6.295.118.309 0 .405-.5.405-.36 0-.654.113-.654.251s-.395.251-.879.251c-.613 0-.878.114-.878.377 0 .207-.17.376-.377.376s-.376.113-.376.251-.282.251-.627.251c-.39 0-.628.142-.628.377 0 .234-.237.376-.628.376-.411 0-.627.14-.627.407 0 .303-.082.34-.322.14-.336-.278-.998-.027-.947.36.017.122-.258.258-.61.302-.352.044-.575.185-.495.314.08.129-.172.243-.56.254-.388.01-.564.077-.392.146.53.214.348.587-.286.587-.331 0-.664.164-.741.365-.078.202-.361.322-.64.268-.352-.068-.46.01-.362.262.093.243-.035.36-.391.36-.303 0-.529.161-.529.376 0 .208-.113.377-.251.377a.248.248 0 0 1-.251-.243c0-.134-.192-.17-.427-.08-.266.103-.313.202-.125.265.476.158.35.56-.174.56-.262 0-.543.177-.626.394-.101.263-.34.347-.718.253-.31-.077-.424-.075-.252.004.534.244.347.604-.314.604-.345 0-.627.121-.627.27 0 .433-.677.985-1.21.985-.272 0-.558.168-.636.372-.082.213-.309.309-.532.224-.293-.113-.346-.039-.217.298.135.352.079.412-.26.282-.276-.105-.373-.069-.269.101.233.376-.759 1.233-1.425 1.233-.305 0-.489.066-.408.146.179.179-.717 1.109-1.067 1.109-.138 0-.251.121-.251.27 0 .346-.639.985-.986.985a.27.27 0 0 0-.269.27c0 .346-.639.985-.986.985-.148 0-.269.181-.269.403 0 .268-.136.351-.405.248-.289-.11-.362-.047-.258.224.089.233.002.38-.224.38-.202 0-.368.121-.368.27 0 .346-.639.985-.986.985-.148 0-.269.15-.269.334 0 .184-.282.486-.627.67-.346.184-.628.486-.628.67 0 .423-.43.438-.572.02-.06-.172-.066-.06-.014.251.063.38-.032.565-.288.565-.21 0-.381.121-.381.27 0 .346-.639.985-.986.985a.27.27 0 0 0-.269.27c0 .346-.639.985-.986.985-.148 0-.269.17-.269.377a.385.385 0 0 1-.392.376c-.215 0-.326.103-.248.23.078.128-.028.402-.236.61-.208.209-.379.453-.379.542 0 .279-1.452 1.63-1.753 1.63-.157 0-.214.114-.128.253s-.02.32-.237.403c-.216.083-.392.402-.392.709 0 .339-.247.69-.627.894-.407.217-.628.552-.628.947 0 .45-.103.573-.39.463-.214-.082-.332-.056-.26.058.19.31-.577 1.293-1.01 1.293-.208 0-.314.104-.236.23.078.126 0 .286-.174.356-.25.101-.25.131 0 .147.448.029.389.522-.064.522-.215 0-.376.226-.376.529 0 .384-.111.486-.407.373-.315-.121-.376-.04-.27.365.083.32-.001.574-.22.658-.197.075-.358.407-.358.738 0 .33-.121.6-.27.6-.442 0-.985.681-.985 1.237 0 .312-.162.52-.406.52-.297 0-.373.168-.286.628.08.42.008.627-.221.627-.198 0-.342.265-.342.627 0 .39-.142.628-.377.628-.234 0-.376.237-.376.627 0 .346-.113.628-.251.628s-.255.31-.26.69c-.007.647-.03.661-.36.225-.324-.429-.35-.4-.328.363.012.456-.107.872-.267.926-.16.053-.291.427-.291.829 0 .507-.125.732-.406.732-.297 0-.373.168-.285.628.08.42.007.627-.222.627-.198 0-.342.265-.342.627 0 .39-.142.628-.376.628-.4 0-.459.204-.382 1.346.031.462-.048.659-.224.55-.174-.108-.273.11-.273.599 0 .538-.12.768-.404.768-.314 0-.381.196-.301.878.07.606.001.879-.224.879-.206 0-.326.325-.326.879 0 .638-.11.878-.403.878-.319 0-.383.21-.307 1.004.066.697-.002 1.004-.224 1.004-.207 0-.321.357-.321 1.004 0 .747-.102 1.004-.396 1.004-.288 0-.383.222-.35.816.066 1.233.017 1.488-.258 1.317-.155-.096-.251.341-.251 1.142 0 1.095-.063 1.272-.41 1.14-.353-.136-.391.015-.285 1.124.09.937.032 1.316-.218 1.412-.251.096-.342.692-.342 2.237 0 1.784-.063 2.107-.411 2.107-.352 0-.392.235-.28 1.642.098 1.208.04 1.733-.216 1.99-.47.47-.524 24.882-.056 25.038.189.063.282.714.263 1.84-.016.959.031 1.602.105 1.43.364-.849.595-.095.595 1.945 0 1.669.082 2.243.313 2.196.226-.045.289.302.228 1.255-.07 1.073-.01 1.318.314 1.318.298 0 .4.251.4.977 0 .601.134 1.028.348 1.111.254.098.313.443.217 1.287-.111.992-.072 1.131.28.996.338-.13.41.023.41.873 0 .567.113 1.031.251 1.031s.251.561.251 1.247c0 1.006.073 1.219.377 1.103.284-.11.376.045.376.635 0 .473.129.78.326.78.225 0 .295.273.224.879-.08.682-.013.878.3.878.264 0 .405.218.405.628 0 .345.113.627.251.627s.251.289.251.643c0 .44-.098.586-.314.465-.25-.142-.25-.11 0 .16.173.187.323.57.334.853.01.283.077.373.146.201.218-.54.587-.343.587.313 0 .363.144.628.342.628.229 0 .302.206.222.627-.088.46-.012.628.285.628.298 0 .406.238.406.894 0 .491.105.828.233.749.128-.079.305.083.393.361.089.278.266.506.395.506s.234.395.234.878c0 .484.113.879.251.879s.251.222.251.494c0 .336.12.448.377.35.275-.106.376.031.376.51 0 .384.14.654.342.654.229 0 .302.206.221.627-.087.46-.011.628.286.628.238 0 .406.207.406.499 0 .58.745 1.544 1.049 1.356.113-.07.206.149.206.488 0 .338.181.685.403.77.222.085.34.316.263.516-.092.241-.017.315.225.222.26-.1.364.046.364.515 0 .433.136.654.403.654.256 0 .35.138.259.377-.088.229 0 .376.225.376.202 0 .368.214.368.475 0 .262.168.54.372.618.213.082.309.309.223.532-.107.281-.037.346.255.234.309-.119.405 0 .405.499 0 .414.138.654.377.654.207 0 .376.169.376.377 0 .207.113.376.251.376s.251.214.251.475c0 .262.168.54.372.618.213.082.309.309.224.532-.113.293-.039.346.298.217.35-.135.412-.079.283.258-.12.316-.05.411.27.357.277-.046.424.08.404.347-.02.259.1.369.314.287.238-.092.345.069.345.522 0 .36.113.654.251.654s.251.166.251.368c0 .225.148.313.377.225.238-.092.376.003.376.259 0 .222.15.403.334.403.184 0 .486.282.67.627.184.346.486.628.67.628.183 0 .334.121.334.269 0 .331.632.986.951.986.129 0 .185.311.124.69-.081.507-.044.596.137.336.21-.299.317-.286.689.085.37.371.383.477.085.665-.371.235-.047.349.712.251.173-.023.314.14.314.361 0 .222.113.333.251.248.138-.086.251.02.251.235 0 .216.17.392.377.392s.376.113.376.251.15.251.334.251c.184 0 .485.282.67.627.184.346.5.628.7.628.234 0 .318.171.236.483-.088.339-.022.444.222.35.191-.074.348-.008.348.144 0 .153.17.278.377.278s.376.121.376.269c0 .344.637.986.978.986.144 0 .196.169.117.377-.101.263.019.376.4.376.298 0 .473.113.388.251-.086.138.085.251.38.251.553 0 2.004 1.258 2.004 1.738 0 .148.17.27.377.27s.376.113.376.251.282.251.627.251c.346 0 .628.121.628.269 0 .36.643.986 1.013.986.162 0 .23.169.151.377-.108.282.041.376.601.376.41 0 .745.113.745.251s.188.251.419.251c.23 0 .343.074.252.165-.266.267.336.822.728.671.197-.075.358-.011.358.141 0 .153.282.278.627.278.657 0 .854.369.314.587-.172.069-.003.135.377.146.38.011.69.133.69.271s.238.251.529.251c.375 0 .485.114.379.39-.082.214-.054.33.062.259.116-.072.426.031.687.229.262.199.674.364.916.369.241.004.439.177.439.385 0 .234.237.376.628.376.345 0 .627.113.627.251s.282.251.627.251c.39 0 .628.142.628.377 0 .207.17.376.377.376s.376.113.376.251.282.251.627.251c.39 0 .628.142.628.377 0 .262.265.376.879.376.483 0 .878.113.878.251s.17.251.377.251.376.169.376.377c0 .262.265.376.878.376.484 0 .879.113.879.251s.282.251.627.251c.39 0 .628.142.628.377 0 .251.251.376.753.376.414 0 .753.113.753.251s.35.251.78.251c.59 0 .745.092.635.377-.115.299.083.376.978.376.617 0 1.121.113 1.121.251s.35.251.78.251c.59 0 .745.092.635.377-.113.295.07.376.852.376.548 0 .996.113.996.251s.508.251 1.13.251c.836 0 1.129.098 1.129.377 0 .278.293.376 1.13.376.62 0 1.129.113 1.129.251s.577.251 1.282.251c1.036 0 1.254.072 1.137.377-.117.306.111.376 1.229.376.755 0 1.372.113 1.372.251 0 .146.804.251 1.91.251 1.593 0 1.885.062 1.764.377-.12.315.181.376 1.856.376 1.166 0 2 .105 2 .251 0 .166 14.767.251 43.8.251 29.032 0 43.799-.085 43.799-.251 0-.138.44-.251.977-.251.637 0 1.028-.131 1.122-.376.095-.249.488-.377 1.156-.377.556 0 1.012-.113 1.012-.251s.282-.251.628-.251c.39 0 .627-.142.627-.376 0-.235.237-.377.628-.377.345 0 .627-.113.627-.251s.282-.251.628-.251c.345 0 .627-.129.627-.286 0-.42.794-.952 1.435-.961.39-.005.514-.121.413-.384-.092-.239.003-.377.259-.377.222 0 .403-.113.403-.251s.222-.251.494-.251c.305 0 .446-.126.368-.329-.07-.182.158-.482.51-.671.35-.187.636-.449.636-.582 0-.388 1.044-1.183 1.326-1.01.149.092.181.036.077-.132-.29-.469.585-1.216.899-.768.179.255.206.161.098-.336-.113-.516-.054-.69.23-.69a.376.376 0 0 0 .382-.368c0-.225.147-.313.377-.225.275.106.376-.031.376-.51 0-.36.113-.654.251-.654s.251-.169.251-.376c0-.208.169-.377.377-.377.234 0 .376-.237.376-.628 0-.345.113-.627.251-.627s.251-.282.251-.628c0-.39.142-.627.377-.627.234 0 .376-.237.376-.628 0-.345.113-.627.251-.627s.251-.452.251-1.004c0-.725.105-1.004.377-1.004.27 0 .376-.277.376-.983 0-.541.11-1.021.246-1.067.154-.052.252-3.351.263-8.798.015-7.612.237-10.835.563-8.17.055.452.118-10.636.139-24.638.035-22.361-.005-25.4-.327-24.974-.322.426-.367-.803-.374-10.372-.005-7.065-.096-10.856-.259-10.856-.145 0-.251-.795-.251-1.883 0-1.505-.075-1.882-.376-1.882-.304 0-.377-.39-.377-2.008 0-1.172-.105-2.008-.251-2.008-.138 0-.251-.565-.251-1.255 0-.948-.092-1.255-.376-1.255-.279 0-.377-.293-.377-1.13 0-.62-.113-1.129-.251-1.129s-.251-.565-.251-1.255c0-.87-.096-1.236-.314-1.192-.202.04-.341-.315-.391-1.004-.042-.587-.184-1.067-.313-1.067-.13 0-.237-.448-.237-.996 0-.782-.081-.965-.376-.852-.285.11-.377-.045-.377-.635 0-.43-.107-.78-.237-.78-.131 0-.272-.536-.314-1.192-.051-.79-.183-1.171-.39-1.13-.173.035-.314-.156-.314-.424s-.113-.557-.251-.642c-.138-.086-.251-.488-.251-.894 0-.489-.127-.738-.376-.738-.265 0-.377-.267-.377-.894 0-.576-.096-.833-.272-.725-.162.1-.251-.02-.221-.299.088-.837-.003-1.094-.385-1.094-.235 0-.377-.237-.377-.628 0-.345-.113-.627-.251-.627s-.251-.23-.251-.51-.169-.575-.376-.654c-.208-.08-.377-.415-.377-.745s-.113-.601-.251-.601-.251-.282-.251-.628c0-.39-.142-.627-.376-.627a.377.377 0 0 1-.377-.377c0-.207-.113-.376-.251-.376s-.251-.282-.251-.627c0-.39-.142-.628-.376-.628-.235 0-.377-.237-.377-.627 0-.346-.113-.628-.251-.628s-.251-.17-.251-.377a.377.377 0 0 0-.376-.376c-.209 0-.377-.223-.377-.502 0-.276-.113-.502-.251-.502s-.251-.282-.251-.627c0-.39-.142-.628-.376-.628a.377.377 0 0 1-.377-.377c0-.207-.159-.376-.353-.376-.216 0-.307-.175-.235-.452.077-.294-.141-.651-.623-1.02-.51-.391-.702-.72-.614-1.054.086-.333-.002-.486-.279-.486-.223 0-.406-.15-.406-.334 0-.184-.282-.485-.627-.67-.395-.21-.628-.554-.628-.921 0-.321-.113-.585-.251-.585s-.251-.17-.251-.377-.128-.376-.284-.376c-.424 0-1.236-1.03-1.05-1.33.095-.153.01-.203-.205-.12-.245.093-.38-.037-.406-.394-.023-.293-.158-.573-.303-.62-.144-.048-.262-.244-.262-.436 0-.206-.154-.288-.376-.203-.208.08-.377.011-.377-.151 0-.37-.626-1.013-.986-1.013-.148 0-.269-.112-.269-.248 0-.386-.818-1.247-1.049-1.105-.113.07-.206-.123-.206-.431s-.072-.487-.159-.4c-.149.149-1.096-.866-1.096-1.175 0-.254-2.265-2.414-2.531-2.414-.143 0-.19-.113-.104-.251.085-.138.035-.251-.111-.251-.146 0-.266-.17-.266-.377s-.12-.376-.266-.376c-.146 0-.196.113-.11.251.293.474-.267.251-.628-.251-.199-.276-.506-.502-.683-.502-.177 0-.321-.17-.321-.377a.385.385 0 0 0-.392-.376c-.215 0-.321-.113-.235-.251.085-.138-.021-.251-.236-.251-.216 0-.392-.157-.392-.35 0-.192-.186-.42-.412-.508-.227-.086-.342-.229-.255-.315.188-.19-.99-.835-1.522-.835-.236 0-.319-.145-.225-.39.092-.238.046-.325-.118-.224-.266.165-1.233-.682-1.233-1.079 0-.115-.215-.225-.479-.244-.726-.055-1.594-.874-1.21-1.143.19-.133.091-.155-.256-.057-.399.113-.565.052-.565-.205 0-.2-.237-.427-.527-.502-.323-.085-.457-.252-.345-.433.128-.207.023-.244-.353-.125-.368.117-.582.047-.686-.224-.083-.217-.32-.394-.527-.394-.243 0-.322-.143-.221-.404.125-.328.035-.375-.475-.247-.467.117-.631.06-.631-.223a.393.393 0 0 0-.403-.381c-.268 0-.351-.136-.248-.404.125-.328.034-.375-.481-.245-.447.112-.68.045-.783-.223-.08-.211-.373-.383-.649-.383-.335 0-.456-.121-.362-.364.093-.242.019-.317-.222-.225-.2.077-.431-.041-.516-.263-.085-.222-.425-.403-.755-.403-.386 0-.601-.145-.601-.406 0-.297-.168-.373-.627-.286-.422.08-.628.008-.628-.221 0-.188-.238-.342-.529-.342-.383 0-.486-.111-.373-.405.109-.287.047-.362-.217-.261-.205.079-.537-.022-.738-.223a1.444 1.444 0 0 0-.886-.366c-.286 0-.52-.162-.52-.36 0-.242-.262-.352-.803-.336-.441.012-.845-.108-.899-.268-.053-.16-.314-.291-.578-.291-.541 0-.646-.382-.167-.608.172-.082-.167-.102-.753-.045-.798.077-1.067.014-1.067-.25 0-.208-.256-.352-.627-.352-.394 0-.628-.142-.628-.38 0-.273-.225-.364-.797-.32-.454.034-.841-.072-.899-.248-.057-.168-.376-.307-.709-.307-.394 0-.607-.144-.607-.41 0-.332-.188-.384-1.004-.275-.759.102-1.004.05-1.004-.217 0-.238-.295-.353-.905-.353-.735 0-.876-.077-.748-.41.133-.347.019-.388-.74-.265-.651.106-.934.046-1.036-.217-.092-.24-.511-.363-1.241-.363-.826 0-1.103-.097-1.103-.387 0-.296-.245-.372-1.05-.325-.645.039-1.088-.054-1.15-.24-.058-.174-.561-.303-1.183-.303-.75 0-1.127-.12-1.232-.393-.112-.292-.429-.373-1.219-.314-.753.056-1.05-.013-1.006-.234.047-.232-.497-.314-2.07-.314-1.813 0-2.134-.062-2.134-.413 0-.358-.233-.393-1.739-.267-1.342.113-1.809.063-2.039-.215-.429-.516-24.05-.523-24.502-.006Zm19.997 44.106c1.311.148 2.949.42 3.64.605.69.184 2.021.53 2.959.767.937.238 1.762.527 1.834.643.072.116.4.211.73.211.33 0 1.131.282 1.779.627.65.346 1.274.628 1.388.628.604 0 5.835 2.617 6.746 3.375.207.173.557.377.778.455 2.548.896 15.008 12.768 15.032 14.322.002.112.285.575.631 1.027.345.453.627.905.627 1.004 0 .1.267.54.594.98.591.794 2.593 4.606 2.924 5.569.096.276.431 1.066.746 1.757.316.69.662 1.593.769 2.007.107.415.43 1.373.718 2.13.288.758.524 1.697.524 2.088 0 .39.125.943.277 1.227.983 1.837 1.695 12.355 1.153 17.02-.346 2.981-.698 5.132-1.045 6.401-.189.69-.477 1.763-.641 2.384-.321 1.219-.915 3.082-1.239 3.891-.111.276-.402 1.01-.646 1.631-4.017 10.213-13 20.51-22.192 25.437-1.043.559-1.934 1.107-1.98 1.219-.046.11-.257.201-.468.201-.212 0-.908.27-1.548.601-.64.33-1.559.742-2.042.916-.483.173-1.217.455-1.631.625-1.154.473-2.118.792-3.765 1.24-.829.226-1.845.509-2.259.628-5.53 1.596-14.857 1.809-22.065.506-.816-.148-1.606-.344-1.756-.437-.15-.093-.782-.242-1.404-.333-1.223-.178-3.508-.925-5.9-1.928-.828-.348-1.731-.722-2.008-.832-1.438-.571-2.712-1.204-4.616-2.292-1.159-.662-2.15-1.204-2.202-1.204-.523 0-7.448-5.912-9.896-8.449-1.957-2.029-5.75-6.818-5.75-7.261 0-.1-.275-.542-.611-.982-.528-.692-1.546-2.4-2.169-3.639-.515-1.025-1.487-3.301-1.487-3.483 0-.114-.282-.738-.628-1.388-.345-.648-.627-1.396-.627-1.66s-.156-.851-.346-1.304c-.562-1.337-.909-2.574-.909-3.239 0-.343-.117-.739-.26-.882-.576-.577-.82-3.339-.926-10.509-.111-7.511.013-9.42.8-12.299.19-.69.478-1.763.642-2.384.164-.621.456-1.585.648-2.142.194-.557.351-1.196.351-1.42 0-.224.272-.955.605-1.623a76.25 76.25 0 0 0 1.264-2.721c.364-.829.785-1.728.937-2 .153-.27.573-1.061.934-1.757.36-.697.91-1.622 1.22-2.057.309-.434.562-.887.562-1.005 0-.118.282-.519.628-.892.345-.372.627-.78.627-.908 0-.126.184-.384.41-.571.226-.188.681-.768 1.01-1.29.78-1.236 6.591-7.112 8.369-8.462 3.85-2.925 4.03-3.045 7.404-4.915 1.515-.84 1.641-.903 3.389-1.704.76-.348 1.984-.923 2.721-1.278.738-.355 1.553-.646 1.811-.646.26 0 .842-.156 1.295-.346 1.3-.547 2.568-.909 3.18-.909.31 0 .773-.112 1.03-.25.462-.247 2.669-.632 5.776-1.007 2.051-.248 10.393-.071 13.554.286Zm18.898 147.49a36.22 36.22 0 0 0 3.263 0c.857-.049.09-.089-1.704-.089-1.795.001-2.497.041-1.559.089Z" clip-rule="evenodd"/>
  <path fill="#F5D47E" fill-rule="evenodd" d="M90.1 45.68c-.553.181-1.647.339-2.433.35-.785.01-1.498.132-1.584.27-.085.138-.449.251-.808.251-.69 0-3.159.653-3.895 1.031-.24.124-.617.224-.84.224-.223 0-.817.18-1.321.402-.504.221-1.142.488-1.418.593-.277.105-1.18.48-2.008.834-.829.354-1.676.71-1.883.79-.207.08-.74.367-1.185.637-.446.27-1.47.835-2.277 1.255-.807.42-1.709.989-2.004 1.264-.296.275-.6.5-.675.5-1.558 0-14.19 12.93-14.19 14.525 0 .143-.141.35-.314.46-.172.11-.58.709-.907 1.33-1.424 2.71-1.604 3.022-1.817 3.154-.124.076-.225.309-.225.516 0 .208-.297 1.02-.66 1.805a49.4 49.4 0 0 0-.901 2.055c-.133.345-.401.948-.596 1.338-.194.39-.353.93-.353 1.196 0 .267-.1.68-.224.92-.378.736-1.031 3.204-1.031 3.895 0 .36-.113.723-.251.808-.138.086-.253.742-.256 1.459-.002.716-.168 2.206-.368 3.31-.483 2.679-.483 9.289.002 11.296.2.828.365 2.261.367 3.185.002.923.117 1.749.255 1.835.138.085.25.459.25.83-.002.662.598 2.758 1.035 3.622.122.239.221.674.221.965 0 .291.186.885.412 1.321.73 1.4.843 1.658.843 1.919 0 .141.282.841.627 1.556.346.716.628 1.494.628 1.729 0 .235.17.493.377.573.207.079.376.374.376.654s.113.51.251.51.251.177.251.393c0 .216.282.763.628 1.216.345.453.627.897.627.986 0 1.366 10.946 13.219 13.332 14.437.36.185.931.579 1.268.876.647.571 1.048.844 2.468 1.679 3.503 2.061 4.832 2.745 5.364 2.76.156.005.502.174.77.377.269.202.647.368.843.368.195 0 .917.282 1.604.628.687.345 1.467.627 1.734.627.266 0 .68.097.92.216.92.454 3.047 1.039 3.781 1.039.422 0 .837.113.922.251.086.138.64.251 1.23.251.591 0 1.63.168 2.307.374 1.517.46 12.683.547 13.829.108.388-.149 1.441-.371 2.338-.493 3.299-.449 4.985-.856 6.335-1.529a2.46 2.46 0 0 1 .92-.217c.267 0 .862-.188 1.322-.419 1.568-.786 1.708-.836 2.338-.836.347 0 .631-.098.631-.217s.537-.417 1.192-.661c.656-.245 1.362-.581 1.569-.746.207-.165.795-.491 1.307-.725.512-.234.998-.536 1.082-.67.083-.134.318-.244.523-.244.205 0 .677-.282 1.049-.627.373-.346.771-.628.886-.628.302 0 3.118-2.062 4.44-3.251.621-.559 1.214-1.015 1.318-1.015.103-.001.188-.17.188-.377 0-.208.114-.377.253-.377.445 0 6.459-6.338 6.751-7.115.055-.148.368-.556.695-.906.327-.352.732-.949.902-1.329.168-.379.372-.69.452-.69.08 0 .399-.48.71-1.067.311-.586.893-1.631 1.292-2.321.399-.691.797-1.425.882-1.632a52.6 52.6 0 0 1 .76-1.635c.334-.692.606-1.4.606-1.572 0-.318.099-.548.843-1.977.226-.436.412-1.03.412-1.321 0-.291.098-.726.217-.965.494-.991.865-2.26.973-3.323.062-.621.216-1.237.34-1.368.125-.131.227-.644.227-1.139 0-.496.169-1.552.377-2.347.535-2.054.532-12.559-.003-14.325-.206-.678-.374-1.7-.374-2.271 0-.572-.102-1.147-.227-1.278-.124-.131-.278-.747-.34-1.368-.108-1.063-.479-2.332-.973-3.323a2.467 2.467 0 0 1-.217-.92c0-.267-.282-1.047-.627-1.734-.346-.687-.628-1.41-.628-1.604 0-.196-.166-.574-.368-.843-.203-.268-.378-.656-.389-.863-.011-.207-.212-.732-.447-1.167a85.353 85.353 0 0 1-.915-1.757 14.234 14.234 0 0 0-1.067-1.743c-.319-.428-.579-.893-.579-1.036 0-.143-.159-.391-.353-.553-.195-.16-.539-.684-.765-1.16-.227-.477-.519-.867-.651-.867-.131 0-.239-.17-.239-.377s-.113-.376-.251-.376-.254-.141-.258-.314c-.004-.172-.767-1.127-1.694-2.123a155.07 155.07 0 0 1-2.566-2.813c-.483-.552-.948-1.01-1.031-1.015-.084-.006-1.193-.998-2.465-2.206-1.272-1.208-2.662-2.39-3.09-2.626a10.625 10.625 0 0 1-1.319-.879c-.689-.569-1.299-.957-2.312-1.469-.442-.223-.936-.565-1.097-.76a1.13 1.13 0 0 0-.765-.353c-.259 0-.471-.113-.471-.251s-.23-.251-.51-.251-.575-.17-.654-.377c-.08-.207-.348-.376-.596-.376-.249 0-.886-.219-1.416-.487a34.091 34.091 0 0 0-1.969-.9c-.553-.226-1.375-.572-1.829-.767-.453-.196-1.047-.356-1.321-.356s-.693-.1-.932-.22c-1.336-.675-3.659-1.206-6.711-1.533-1.105-.118-2.617-.337-3.361-.486-1.923-.386-10.184-.304-11.448.112Zm9.663 6.02c4.747.63 6.323.888 7.907 1.297 1.947.503 5.197 1.573 5.521 1.818.138.105.703.366 1.256.58 1.466.57 3.635 1.632 4.643 2.273.483.308 1.262.785 1.73 1.059 2.328 1.366 8.752 7.106 10.419 9.309l1.844 2.436c.587.775 1.067 1.489 1.067 1.588 0 .098.159.357.353.575.835.938 4.165 7.484 4.165 8.188 0 .178.206.814.459 1.412 1.052 2.491 2.554 10.99 2.554 14.443-.002 3.374-1.371 10.887-2.646 14.506-2.317 6.578-4.406 9.078-5.55 6.64-1.212-2.586-9.603-9.356-15.236-12.294-2.087-1.088-3.164-1.546-5.936-2.518-.483-.169-1.274-.448-1.757-.619-4.979-1.758-18.888-2.329-24.183-.992-3.855.972-5.188 1.386-6.568 2.036-.692.326-1.392.593-1.556.593-.814 0-8.048 3.946-9.063 4.945-.182.179-.434.326-.558.326-.61 0-6.388 5.413-8.926 8.362-.974 1.13-1.07 1.18-1.7.894-.702-.32-2.164-2.303-2.164-2.936 0-.204-.276-.947-.614-1.651-.801-1.669-1.637-4.016-1.916-5.376-.122-.596-.286-1.187-.365-1.314-.177-.287-.585-2.559-.876-4.881a224.87 224.87 0 0 0-.496-3.64c-.27-1.854-.19-3.936.245-6.4.123-.69.354-2.16.514-3.263.503-3.473 1.54-7.189 2.732-9.79 1.507-3.29 1.934-4.133 2.844-5.625 3.415-5.6 9.298-11.739 14.247-14.867 2.548-1.611 4.047-2.474 4.299-2.474.137 0 1.174-.438 2.305-.973 4.093-1.937 6.405-2.528 13.978-3.576a72.388 72.388 0 0 0 2.259-.337c.872-.176 2.045-.116 4.769.246Zm-5.145 14.705c-7.77.665-12.463 7.959-10.798 16.783.763 4.052 5.405 8.427 9.543 8.996 7.039.968 12.256-1.282 14.948-6.447 1.427-2.739 1.867-7.425.965-10.288-1.147-3.637-4.539-7.426-7.444-8.315a16.21 16.21 0 0 1-1.441-.511c-.663-.296-3.576-.406-5.773-.218Z" clip-rule="evenodd"/>
  <path fill="#F5D47E" fill-rule="evenodd" d="M90.727 45.043c-3.107.375-5.314.76-5.777 1.008a2.584 2.584 0 0 1-1.028.249c-.613 0-1.88.362-3.181.909-.453.19-1.035.346-1.295.346-.258 0-1.073.29-1.81.646-.738.355-1.963.93-2.722 1.278-1.748.8-1.874.863-3.389 1.704-3.374 1.87-3.554 1.99-7.404 4.915-1.778 1.35-7.588 7.226-8.368 8.462-.33.522-.785 1.102-1.01 1.29-.227.187-.411.445-.411.571 0 .128-.282.536-.627.908-.346.373-.628.774-.628.892s-.253.57-.563 1.005c-.31.435-.858 1.36-1.22 2.057a86.764 86.764 0 0 1-.933 1.758c-.152.271-.573 1.17-.937 1.999a76.798 76.798 0 0 1-1.264 2.721c-.333.668-.605 1.399-.605 1.623 0 .224-.157.863-.35 1.42-.193.557-.485 1.52-.649 2.142a340.11 340.11 0 0 1-.641 2.385c-1.231 4.5-1.137 21.544.125 22.807.143.143.26.539.26.882 0 .665.347 1.902.909 3.239.19.453.346 1.04.346 1.304s.282 1.012.627 1.66c.346.65.628 1.274.628 1.388 0 .182.972 2.458 1.487 3.483.623 1.239 1.641 2.947 2.169 3.639.336.44.611.882.611.982 0 .443 3.793 5.232 5.75 7.261 2.448 2.537 9.373 8.449 9.896 8.449.052 0 1.043.542 2.202 1.204 1.904 1.088 3.178 1.721 4.617 2.292.276.11 1.18.484 2.007.832 2.392 1.003 4.677 1.75 5.9 1.928.622.091 1.253.24 1.404.333.15.093.94.289 1.756.437 7.208 1.303 16.535 1.09 22.065-.506.414-.119 1.43-.402 2.259-.628 1.647-.448 2.611-.767 3.765-1.24.414-.17 1.148-.452 1.631-.625.483-.174 1.402-.586 2.042-.916.64-.331 1.336-.601 1.548-.601.211 0 .422-.091.468-.201.046-.112.937-.66 1.98-1.219 9.192-4.927 18.175-15.224 22.192-25.437.244-.621.535-1.355.646-1.631.324-.809.918-2.672 1.239-3.891.164-.621.452-1.694.641-2.384.347-1.269.699-3.42 1.045-6.401.542-4.665-.17-15.183-1.153-17.02-.152-.284-.277-.837-.277-1.227 0-.391-.236-1.33-.524-2.088-.288-.757-.611-1.715-.718-2.13-.107-.414-.453-1.317-.768-2.007-.316-.69-.651-1.481-.747-1.758-.331-.962-2.333-4.774-2.924-5.567-.327-.44-.594-.881-.594-.981 0-.1-.282-.551-.627-1.004-.346-.453-.629-.915-.631-1.027-.024-1.554-12.484-13.426-15.032-14.322a3.06 3.06 0 0 1-.778-.455c-.911-.758-6.142-3.375-6.746-3.375-.114 0-.738-.282-1.388-.628-.648-.345-1.449-.627-1.779-.627-.33 0-.658-.095-.73-.21-.072-.117-.897-.406-1.834-.644-.938-.238-2.269-.583-2.959-.767-2.911-.777-13.563-1.33-17.194-.89Zm10.821.524c.744.149 2.256.368 3.361.486 3.052.327 5.375.858 6.711 1.533.239.12.658.22.932.22s.868.16 1.321.356c.454.195 1.276.54 1.829.767.552.227 1.438.632 1.969.9.53.268 1.167.487 1.416.487.248 0 .516.17.596.377.079.207.374.376.654.376s.51.113.51.251.212.251.471.251.603.159.765.353c.161.195.655.537 1.097.76 1.013.512 1.623.9 2.312 1.47.299.246.893.641 1.319.878.428.236 1.818 1.418 3.09 2.626 1.272 1.208 2.381 2.2 2.465 2.206.083.006.548.463 1.031 1.015a155.07 155.07 0 0 0 2.566 2.813c.927.996 1.69 1.95 1.694 2.123.004.173.12.314.258.314s.251.17.251.376c0 .208.108.377.239.377.132 0 .424.39.651.867.226.477.57 1 .765 1.16.194.162.353.41.353.553 0 .143.26.608.579 1.036a14.24 14.24 0 0 1 1.067 1.743c.268.531.68 1.322.915 1.757.235.435.436.96.447 1.167.011.207.186.595.389.863.202.269.368.647.368.843 0 .195.282.917.628 1.604.345.687.627 1.467.627 1.734 0 .266.098.68.217.92.494.99.865 2.26.973 3.323.063.621.216 1.237.34 1.368.125.131.227.706.227 1.278 0 .571.168 1.593.374 2.271.535 1.766.538 12.271.003 14.325-.208.795-.377 1.851-.377 2.347 0 .495-.102 1.008-.227 1.139-.124.131-.277.747-.34 1.368-.108 1.063-.479 2.332-.973 3.323a2.58 2.58 0 0 0-.217.965c0 .291-.186.885-.412 1.321-.744 1.429-.843 1.659-.843 1.977 0 .172-.272.88-.606 1.572a52.6 52.6 0 0 0-.76 1.635c-.085.207-.483.941-.882 1.631a90.942 90.942 0 0 0-1.292 2.322c-.311.587-.63 1.067-.71 1.067-.08 0-.284.311-.452.69-.17.38-.575.977-.902 1.329-.327.35-.64.758-.695.906-.292.777-6.306 7.115-6.751 7.115-.139 0-.253.169-.253.376 0 .208-.085.377-.188.378-.104 0-.697.456-1.318 1.015-1.322 1.189-4.138 3.251-4.44 3.251-.115 0-.513.282-.886.627-.372.346-.844.628-1.049.628-.205 0-.44.11-.523.244-.084.134-.57.436-1.082.67-.512.234-1.1.56-1.307.725-.207.165-.913.501-1.569.746-.655.244-1.192.542-1.192.661s-.284.217-.631.217c-.63 0-.77.05-2.338.836-.46.231-1.055.419-1.322.419a2.46 2.46 0 0 0-.92.217c-1.35.673-3.036 1.08-6.335 1.529-.897.122-1.95.344-2.338.493-1.146.439-12.312.352-13.829-.108-.678-.206-1.716-.374-2.307-.374-.59 0-1.144-.113-1.23-.251-.085-.138-.5-.251-.922-.251-.734 0-2.862-.585-3.78-1.039a2.465 2.465 0 0 0-.921-.216c-.267 0-1.047-.282-1.734-.627-.687-.346-1.41-.628-1.604-.628-.196 0-.574-.166-.843-.368-.268-.203-.614-.372-.77-.377-.532-.015-1.861-.699-5.364-2.76-1.42-.835-1.821-1.108-2.468-1.679a7.51 7.51 0 0 0-1.268-.876c-2.386-1.218-13.332-13.071-13.332-14.437 0-.089-.282-.533-.627-.986-.346-.453-.628-1-.628-1.216 0-.216-.113-.393-.251-.393s-.251-.23-.251-.51-.17-.575-.377-.654c-.207-.08-.376-.338-.376-.573 0-.235-.282-1.013-.628-1.729-.345-.715-.627-1.415-.627-1.556 0-.261-.114-.519-.843-1.919-.226-.436-.412-1.03-.412-1.321 0-.291-.1-.726-.22-.965-.438-.864-1.038-2.96-1.036-3.622 0-.371-.112-.745-.25-.831-.138-.085-.253-.911-.255-1.834-.002-.924-.167-2.357-.367-3.186-.485-2.006-.485-8.616-.002-11.294.2-1.105.365-2.595.368-3.311.003-.717.118-1.373.256-1.459.138-.085.251-.449.251-.808 0-.69.653-3.159 1.031-3.895a2.39 2.39 0 0 0 .224-.92c0-.267.159-.805.353-1.196.195-.39.463-.993.596-1.338a49.4 49.4 0 0 1 .901-2.055c.363-.785.66-1.597.66-1.805 0-.207.101-.44.225-.516.213-.132.393-.443 1.817-3.154.326-.621.735-1.22.907-1.33.173-.11.314-.317.314-.46 0-1.595 12.632-14.525 14.19-14.525.076 0 .38-.225.675-.5.295-.275 1.197-.844 2.004-1.264a50.85 50.85 0 0 0 2.277-1.255c.445-.27.978-.556 1.185-.637.207-.08 1.054-.436 1.883-.79a83.122 83.122 0 0 1 2.007-.834c.277-.105.915-.372 1.419-.593.504-.221 1.098-.402 1.321-.402.223 0 .6-.1.84-.224.737-.378 3.204-1.031 3.895-1.031.36 0 .723-.113.808-.251.086-.138.799-.26 1.584-.27.786-.011 1.88-.169 2.433-.35 1.264-.417 9.525-.499 11.448-.113Zm-6.554 5.887c-.207.042-1.224.194-2.259.337-7.573 1.048-9.885 1.639-13.978 3.576-1.13.535-2.168.973-2.305.973-.252 0-1.751.863-4.299 2.474-4.95 3.128-10.832 9.267-14.247 14.867-.91 1.492-1.337 2.335-2.844 5.626-1.192 2.6-2.23 6.316-2.732 9.788-.16 1.105-.391 2.573-.514 3.264-.436 2.464-.515 4.546-.245 6.4.151 1.035.374 2.673.496 3.639.29 2.323.7 4.595.876 4.882.079.127.243.718.365 1.314.28 1.36 1.115 3.707 1.916 5.376.338.704.614 1.447.614 1.651 0 .633 1.462 2.616 2.165 2.936.63.286.725.236 1.699-.894 2.538-2.949 8.316-8.362 8.926-8.362.124 0 .376-.147.558-.326 1.015-.999 8.249-4.945 9.063-4.945.164 0 .864-.267 1.556-.593 1.38-.65 2.713-1.064 6.568-2.036 5.295-1.337 19.204-.766 24.183.992.483.171 1.274.45 1.757.619 2.772.972 3.849 1.43 5.936 2.518 5.633 2.938 14.024 9.708 15.236 12.294 1.144 2.438 3.233-.062 5.55-6.641 1.275-3.618 2.644-11.131 2.646-14.505 0-3.454-1.502-11.952-2.554-14.443-.253-.598-.459-1.234-.459-1.412 0-.704-3.33-7.25-4.165-8.188-.194-.218-.353-.477-.353-.576 0-.098-.48-.812-1.067-1.587-.586-.774-1.417-1.87-1.844-2.436-1.667-2.203-8.091-7.943-10.419-9.309a66.638 66.638 0 0 1-1.73-1.059c-1.008-.64-3.177-1.703-4.643-2.272-.553-.215-1.118-.476-1.256-.581-.733-.554-6.135-2.073-8.784-2.47-6.005-.898-8.304-1.115-9.413-.89Zm8.911 1.235c3.596.637 6.91 1.585 9.287 2.656.552.248 1.847.806 2.878 1.238 1.031.432 2.238 1.062 2.682 1.401.443.338.866.615.938.615.145 0 2.635 1.704 3.766 2.577 7.225 5.581 12.478 12.887 15.292 21.268 3.337 9.94 2.739 22.749-1.487 31.824-.469 1.006-.852 1.949-.852 2.095 0 1.891-1.762 2.039-3.335.28-3.278-3.667-8.593-8.346-9.479-8.346-.22 0-.675-.294-1.01-.653-.335-.359-1.23-.977-1.989-1.373a105.01 105.01 0 0 1-2.008-1.073c-1.663-.932-2.744-1.419-3.152-1.419-.247 0-.626-.152-.845-.339-.465-.398-3.441-1.385-6.796-2.255-4.605-1.194-16.659-1.43-20.959-.412-3.094.733-4.34 1.083-4.977 1.399-.39.193-.873.352-1.07.352-.198 0-.612.131-.92.29-1.083.559-1.42.702-2.818 1.193-.774.273-1.939.797-2.588 1.166l-2.31 1.309c-3.045 1.718-6.34 4.36-9.856 7.902-4.273 4.306-4.684 4.428-5.698 1.694a52 52 0 0 0-1-2.385c-3.966-8.865-4.452-21.274-1.222-31.249 2.373-7.33 8.702-16.541 13.837-20.14a69.824 69.824 0 0 0 2.393-1.823c1.914-1.515 2.783-2.048 5.562-3.41 5.122-2.51 7.471-3.283 13.93-4.588 1.397-.281 11.94-.124 13.806.206Zm-9.79 13.183c-1.703.216-4.396 1.317-5.521 2.256-2.642 2.207-4.887 5.18-4.892 6.481-.002.316-.2.875-.442 1.244-.627.956-.62 5.847.007 7.018.238.442.432 1.044.432 1.34 0 1.783 3.773 6.09 6.651 7.59 3.48 1.814 11.626 1.338 13.531-.79.263-.295.605-.535.76-.535.298 0 3.405-3.03 3.405-3.321 0-.094.282-.587.628-1.095.345-.51.627-1.196.627-1.526 0-.331.198-.903.439-1.272.647-.987.64-6.6-.01-7.79-.247-.453-.393-.916-.324-1.028.174-.28-1.325-2.646-2.652-4.187-2.242-2.605-4.684-3.914-7.895-4.234-.952-.095-2.07-.21-2.484-.257-.415-.047-1.431 0-2.26.106Zm6.276.75c.276.124.924.354 1.441.512 2.484.76 5.369 3.665 6.976 7.027 1.416 2.961 1.185 8.35-.497 11.576-2.692 5.165-7.909 7.415-14.949 6.447-4.137-.57-8.779-4.944-9.542-8.996-1.665-8.824 3.028-16.118 10.798-16.783 2.197-.188 5.11-.078 5.773.218Z" clip-rule="evenodd"/>
  <path fill="#F5D47E" fill-rule="evenodd" d="M90.1 52.483c-6.46 1.305-8.809 2.078-13.931 4.588-2.779 1.362-3.648 1.895-5.562 3.41a72.3 72.3 0 0 1-2.393 1.822c-5.135 3.6-11.464 12.811-13.837 20.141-3.23 9.975-2.745 22.384 1.222 31.25.37.828.82 1.901 1 2.384 1.014 2.734 1.425 2.612 5.699-1.694 3.515-3.542 6.81-6.184 9.855-7.902l2.31-1.309c.65-.369 1.814-.893 2.588-1.166 1.398-.491 1.735-.634 2.817-1.193.309-.159.723-.29.92-.29.198 0 .68-.159 1.071-.352.637-.316 1.883-.666 4.978-1.399 4.3-1.018 16.353-.782 20.958.412 3.355.87 6.331 1.857 6.796 2.255.219.187.598.339.845.339.408 0 1.489.487 3.152 1.419.345.194 1.249.676 2.008 1.073.759.396 1.654 1.014 1.989 1.373.335.359.79.653 1.01.653.886 0 6.201 4.679 9.479 8.346 1.573 1.759 3.335 1.611 3.335-.28 0-.146.383-1.089.852-2.095 4.226-9.075 4.824-21.884 1.487-31.824-2.814-8.38-8.067-15.687-15.292-21.269-1.131-.872-3.621-2.576-3.766-2.576-.072 0-.495-.277-.938-.615-.444-.339-1.651-.969-2.682-1.401-1.031-.432-2.326-.99-2.878-1.238-2.377-1.071-5.691-2.019-9.287-2.656-1.866-.33-12.409-.487-13.805-.206Zm10.542.488c1.656.088 3.52.252 4.141.365 2.405.435 4.587.994 5.327 1.363.426.212.966.386 1.2.386.234 0 .957.282 1.607.627.648.346 1.315.629 1.48.63.339 0 2.999 1.29 3.493 1.692.177.143.886.573 1.577.954.69.381 1.537.908 1.882 1.172.345.264 1.475 1.112 2.51 1.885 1.773 1.321 6.776 6.15 6.777 6.54.001.099.292.518.649.933.614.711 2.133 2.953 3.317 4.894.295.483.883 1.613 1.306 2.51.424.897 1.048 2.198 1.388 2.89.34.693.619 1.452.619 1.686 0 .388.473 1.653 1.035 2.763.121.24.22.726.22 1.081 0 .356.157 1.177.348 1.824 1.292 4.36 1.231 16.391-.095 18.869-.139.26-.252.79-.25 1.179.003.817-1.062 4.146-1.912 5.978-.321.69-.926 2.017-1.345 2.949-.853 1.898-1.238 2.068-1.988.878-1.073-1.702-7.73-7.817-9.799-9.001-.335-.192-1.229-.772-1.987-1.29-.758-.517-1.49-.941-1.627-.941-.136 0-.618-.282-1.071-.627-.453-.346-.915-.626-1.027-.624-.113.002-.77-.271-1.46-.608-2.236-1.091-3.66-1.672-4.474-1.826-.439-.083-.91-.232-1.048-.33-.139-.1-1.042-.377-2.008-.618-.967-.241-1.983-.533-2.259-.649-.525-.221-.999-.286-5.522-.757-3.31-.345-10.674-.148-13.555.363-2.574.456-6.205 1.396-6.513 1.686-.131.124-.479.225-.773.225-.294 0-1.09.282-1.77.626-.678.345-1.311.627-1.404.628-.58.004-6.109 2.92-7.393 3.899-.447.341-.933.62-1.08.62-.148 0-.268.088-.268.197 0 .108-.367.412-.816.676-.448.263-.942.598-1.097.745-.154.145-.888.767-1.631 1.38-1.474 1.219-4.259 3.997-5.913 5.901l-1.048 1.207-.621-.671c-.342-.368-.692-.951-.778-1.294-.086-.343-.55-1.431-1.029-2.416-.48-.985-.872-2.033-.872-2.328 0-.295-.11-.645-.243-.778-1.587-1.588-2.703-18.088-1.51-22.323.155-.552.377-1.512.492-2.133.115-.621.446-1.75.735-2.51.289-.76.526-1.518.526-1.687 0-.635 3.233-7.29 4.04-8.315.263-.334.478-.707.478-.83 0-.251 2.531-3.555 2.823-3.684.104-.046.189-.24.189-.431 0-.376 5.449-5.886 5.82-5.886.124 0 .532-.292.905-.65.61-.582 1.93-1.554 3.042-2.237.225-.138.745-.485 1.156-.771 1.102-.767 7.671-3.872 8.193-3.872.151 0 1.059-.282 2.015-.627.957-.346 2.065-.628 2.463-.628.398 0 .785-.1.86-.222.255-.411 7.156-1.038 9.556-.869.553.04 2.36.144 4.017.232Zm-7.072 12.51c-.853.167-1.7.418-1.883.556-.183.14-.791.397-1.352.573-.56.177-1.362.62-1.78.987a992.76 992.76 0 0 0-1.638 1.437c-1.049.924-2.717 3.155-3.269 4.374-.852 1.88-.944 2.192-1.185 4.02-.92 6.983 3.5 13.762 10.255 15.726 1.51.439 6.608.37 7.798-.105.345-.137 1.079-.39 1.632-.563 2.791-.87 7.655-6.021 7.655-8.107 0-.22.094-.457.208-.528.875-.54 1.046-6.818.23-8.41-.241-.47-.438-1.023-.438-1.228 0-1.668-4.312-6.385-6.902-7.552a29.34 29.34 0 0 1-1.237-.592c-1.317-.684-5.915-1.02-8.094-.589Zm5.289.542c3.211.32 5.653 1.629 7.895 4.234 1.327 1.54 2.826 3.907 2.652 4.187-.069.112.077.575.324 1.027.65 1.19.657 6.804.01 7.791-.241.369-.439.94-.439 1.272 0 .33-.282 1.017-.627 1.526-.346.508-.628 1.001-.628 1.095 0 .29-3.107 3.321-3.405 3.321-.155 0-.497.24-.76.535-1.905 2.128-10.052 2.604-13.53.79-2.879-1.5-6.652-5.807-6.652-7.59 0-.296-.194-.898-.432-1.34-.628-1.17-.633-6.062-.007-7.018.241-.369.44-.928.441-1.244.006-1.3 2.25-4.274 4.893-6.48 1.713-1.431 5.593-2.61 7.78-2.363.415.046 1.533.162 2.485.257Z" clip-rule="evenodd"/>
</svg>
