<!--?xml version="1.0" standalone="no"?-->

<svg version="1.0" xmlns="http://www.w3.org/2000/svg" width="50.000000pt" height="50.000000pt" viewBox="0 0 500.000000 500.000000" preserveAspectRatio="xMidYMid meet">

<g transform="translate(0.000000,500.000000) scale(0.100000,-0.100000)" fill="#899E88" stroke="none">
<path d="M994 2499 l-849 -849 190 0 190 0 655 655 c360 360 659 655 665 655
6 0 305 -295 665 -655 l655 -655 195 0 195 0 -840 841 c-462 462 -847 844
-856 849 -12 7 -198 -174 -865 -841z" style="fill: #ffffff;"></path>
<path d="M2878 3080 c-148 -148 -268 -273 -268 -277 0 -5 32 -40 70 -78 l70
-70 203 203 202 202 705 -705 705 -705 145 0 145 0 -850 850 c-467 468 -852
850 -855 850 -3 0 -125 -122 -272 -270z" style="fill: #ffffff;"></path>
<path d="M3893 2806 c0 -18 56 -80 218 -242 l219 -219 0 243 0 242 -219 0
-218 0 0 -24z" style="fill: #ffffff;"></path>
<path d="M3040 2422 l0 -98 55 -54 c40 -40 64 -55 85 -56 l30 -2 0 154 0 154
-85 0 -85 0 0 -98z" style="fill: #ffffff;"></path>
<path d="M3280 2366 l0 -155 83 2 82 2 0 150 0 150 -82 3 -83 3 0 -155z" style="fill: #ffffff;"></path>
<path d="M1620 2295 l0 -195 110 0 110 0 0 195 0 195 -110 0 -110 0 0 -195z" style="fill: #ffffff;"></path>
<path d="M1920 2295 l0 -195 110 0 110 0 0 195 0 195 -110 0 -110 0 0 -195z" style="fill: #ffffff;"></path>
<path d="M3280 2117 c0 -27 13 -45 85 -117 l85 -85 0 118 0 117 -85 0 -85 0 0
-33z" style="fill: #ffffff;"></path>
<path d="M1620 1835 l0 -185 110 0 110 0 0 185 0 185 -110 0 -110 0 0 -185z" style="fill: #ffffff;"></path>
<path d="M1920 1835 l0 -185 110 0 110 0 0 185 0 185 -110 0 -110 0 0 -185z" style="fill: #ffffff;"></path>
</g>
</svg>
