<svg xmlns="http://www.w3.org/2000/svg" width="98" height="21" fill="none" viewBox="0 0 98 21">
  <path fill="#ffffff" d="M32.41 14.328c0 .768-.192 1.504-.576 2.208-.384.688-.952 1.264-1.704 1.728-.736.464-1.624.728-2.664.792V21H26.17v-1.944c-1.456-.128-2.64-.592-3.552-1.392-.912-.816-1.376-1.848-1.392-3.096h2.328a3.04 3.04 0 0 0 .744 1.752c.448.496 1.072.808 1.872.936v-6c-1.072-.272-1.936-.552-2.592-.84a4.24 4.24 0 0 1-1.68-1.344c-.464-.608-.696-1.424-.696-2.448 0-1.296.448-2.368 1.344-3.216.912-.848 2.12-1.32 3.624-1.416V0h1.296v1.992c1.36.112 2.456.552 3.288 1.32.832.752 1.312 1.736 1.44 2.952h-2.328c-.08-.56-.328-1.064-.744-1.512-.416-.464-.968-.768-1.656-.912v5.856c1.056.272 1.912.552 2.568.84a3.855 3.855 0 0 1 1.68 1.32c.464.608.696 1.432.696 2.472Zm-8.976-7.824c0 .784.232 1.384.696 1.8.464.416 1.144.76 2.04 1.032V3.792c-.832.08-1.496.352-1.992.816-.496.448-.744 1.08-.744 1.896Zm4.032 10.776c.864-.096 1.536-.408 2.016-.936.496-.528.744-1.16.744-1.896 0-.784-.24-1.384-.72-1.8-.48-.432-1.16-.776-2.04-1.032v5.664Zm8.665-11.352c.112-1.472.68-2.624 1.704-3.456 1.024-.832 2.352-1.248 3.984-1.248 1.088 0 2.024.2 2.808.6.8.384 1.4.912 1.8 1.584.416.672.624 1.432.624 2.28 0 .992-.288 1.848-.864 2.568-.56.72-1.296 1.184-2.208 1.392v.12c1.04.256 1.864.76 2.472 1.512.608.752.912 1.736.912 2.952 0 .912-.208 1.736-.624 2.472-.416.72-1.04 1.288-1.872 1.704-.832.416-1.832.624-3 .624-1.696 0-3.088-.44-4.176-1.32-1.088-.896-1.696-2.16-1.824-3.792h2.112c.112.96.504 1.744 1.176 2.352.672.608 1.568.912 2.688.912s1.968-.288 2.544-.864c.592-.592.888-1.352.888-2.28 0-1.2-.4-2.064-1.2-2.592-.8-.528-2.008-.792-3.624-.792H39.9V8.832h.576c1.472-.016 2.584-.256 3.336-.72.752-.48 1.128-1.216 1.128-2.208 0-.848-.28-1.528-.84-2.04-.544-.512-1.328-.768-2.352-.768-.992 0-1.792.256-2.4.768-.608.512-.968 1.2-1.08 2.064h-2.136Zm17.349 3.96c-.896-.352-1.584-.864-2.064-1.536s-.72-1.488-.72-2.448c0-.864.216-1.64.648-2.328.432-.704 1.072-1.256 1.92-1.656.864-.416 1.904-.624 3.12-.624 1.216 0 2.248.208 3.096.624.864.4 1.512.952 1.944 1.656.448.688.672 1.464.672 2.328 0 .928-.248 1.744-.744 2.448-.496.688-1.176 1.2-2.04 1.536.992.304 1.776.84 2.352 1.608.592.752.888 1.664.888 2.736 0 1.04-.256 1.952-.768 2.736-.512.768-1.24 1.368-2.184 1.8-.928.416-2 .624-3.216.624-1.216 0-2.288-.208-3.216-.624-.912-.432-1.624-1.032-2.136-1.8-.512-.784-.768-1.696-.768-2.736 0-1.072.288-1.992.864-2.76.576-.768 1.36-1.296 2.352-1.584Zm6.504-3.72c0-.976-.32-1.728-.96-2.256-.64-.528-1.52-.792-2.64-.792-1.104 0-1.976.264-2.616.792-.64.528-.96 1.288-.96 2.28 0 .896.328 1.616.984 2.16.672.544 1.536.816 2.592.816 1.072 0 1.936-.272 2.592-.816.672-.56 1.008-1.288 1.008-2.184Zm-3.6 4.68c-1.184 0-2.152.28-2.904.84-.752.544-1.128 1.368-1.128 2.472 0 1.024.36 1.848 1.08 2.472.736.624 1.72.936 2.952.936s2.208-.312 2.928-.936c.72-.624 1.08-1.448 1.08-2.472 0-1.072-.368-1.888-1.104-2.448-.736-.576-1.704-.864-2.904-.864Zm10.125 8.208c-.416 0-.768-.144-1.056-.432a1.436 1.436 0 0 1-.432-1.056c0-.416.144-.768.432-1.056.288-.288.64-.432 1.056-.432.4 0 .736.144 1.008.432.288.288.432.64.432 1.056 0 .416-.144.768-.432 1.056a1.331 1.331 0 0 1-1.008.432Zm6.791-4.8c.16.912.528 1.616 1.104 2.112.592.496 1.384.744 2.376.744 1.328 0 2.304-.52 2.928-1.56.64-1.04.944-2.792.912-5.256-.336.72-.896 1.288-1.68 1.704-.784.4-1.656.6-2.616.6-1.072 0-2.032-.216-2.88-.648a4.895 4.895 0 0 1-1.968-1.944c-.48-.848-.72-1.872-.72-3.072 0-1.712.496-3.088 1.488-4.128.992-1.056 2.4-1.584 4.224-1.584 2.24 0 3.808.728 4.704 2.184.912 1.456 1.368 3.624 1.368 6.504 0 2.016-.184 3.68-.552 4.992-.352 1.312-.96 2.312-1.824 3-.848.688-2.016 1.032-3.504 1.032-1.632 0-2.904-.44-3.816-1.32-.912-.88-1.432-2-1.56-3.36H73.3Zm3.384-3.504c1.072 0 1.952-.328 2.64-.984.688-.672 1.032-1.576 1.032-2.712 0-1.2-.336-2.168-1.008-2.904-.672-.736-1.616-1.104-2.832-1.104-1.12 0-2.016.352-2.688 1.056-.656.704-.984 1.632-.984 2.784 0 1.168.328 2.104.984 2.808.656.704 1.608 1.056 2.856 1.056Zm11.733 3.504c.16.912.528 1.616 1.104 2.112.592.496 1.384.744 2.376.744 1.328 0 2.304-.52 2.928-1.56.64-1.04.944-2.792.912-5.256-.336.72-.896 1.288-1.68 1.704-.784.4-1.656.6-2.616.6-1.072 0-2.032-.216-2.88-.648a4.895 4.895 0 0 1-1.968-1.944c-.48-.848-.72-1.872-.72-3.072 0-1.712.496-3.088 1.488-4.128.992-1.056 2.4-1.584 4.224-1.584 2.24 0 3.808.728 4.704 2.184.912 1.456 1.368 3.624 1.368 6.504 0 2.016-.184 3.68-.552 4.992-.352 1.312-.96 2.312-1.824 3-.848.688-2.016 1.032-3.504 1.032-1.632 0-2.904-.44-3.816-1.32-.912-.88-1.432-2-1.56-3.36h2.016Zm3.384-3.504c1.072 0 1.952-.328 2.64-.984.688-.672 1.032-1.576 1.032-2.712 0-1.2-.336-2.168-1.008-2.904-.672-.736-1.616-1.104-2.832-1.104-1.12 0-2.016.352-2.688 1.056-.656.704-.984 1.632-.984 2.784 0 1.168.328 2.104.984 2.808.656.704 1.608 1.056 2.856 1.056ZM7 12.412a3.5 3.5 0 1 1-7 0 3.5 3.5 0 0 1 7 0Z"/>
</svg>
