<svg width="78" height="43" viewBox="0 0 78 43" fill="none" xmlns="http://www.w3.org/2000/svg">
<path d="M0 5.44304C0 2.43693 2.44208 0 5.45455 0H72.5455C75.5579 0 78 2.43693 78 5.44304V37.557C78 40.5631 75.5579 43 72.5455 43H5.45455C2.44208 43 0 40.5631 0 37.557V5.44304Z" fill="#6c6e93"/>
<path d="M51.9136 27.4555H33.1985L34.1382 25.5456L49.7514 25.5174C50.2794 25.5174 50.7319 25.141 50.8262 24.6204L52.9884 12.5432C53.045 12.2265 52.9601 11.9003 52.7527 11.6526C52.6502 11.5306 52.5223 11.4324 52.378 11.3647C52.2336 11.297 52.0762 11.2615 51.9167 11.2606L32.0545 11.1947L31.8848 10.3981C31.7779 9.89006 31.3191 9.52 30.7974 9.52H25.9419C25.6476 9.52 25.3654 9.63664 25.1574 9.84425C24.9493 10.0519 24.8325 10.3334 24.8325 10.6271C24.8325 10.9207 24.9493 11.2022 25.1574 11.4099C25.3654 11.6175 25.6476 11.7341 25.9419 11.7341H29.8986L30.6403 15.2528L32.4662 24.0748L30.1154 27.904C29.9934 28.0684 29.9198 28.2636 29.9032 28.4676C29.8865 28.6715 29.9274 28.8761 30.0211 29.0581C30.2097 29.4313 30.59 29.6665 31.0111 29.6665H32.9848C32.564 30.2241 32.3367 30.9034 32.3374 31.6015C32.3374 33.3765 33.783 34.8191 35.5618 34.8191C37.3406 34.8191 38.7863 33.3765 38.7863 31.6015C38.7863 30.9021 38.5537 30.2216 38.1389 29.6665H43.2019C42.7811 30.2241 42.5538 30.9034 42.5545 31.6015C42.5545 33.3765 44.0001 34.8191 45.7789 34.8191C47.5577 34.8191 49.0034 33.3765 49.0034 31.6015C49.0034 30.9021 48.7708 30.2216 48.356 29.6665H51.9167C52.5264 29.6665 53.0261 29.171 53.0261 28.5594C53.0243 28.2661 52.9063 27.9854 52.6979 27.7786C52.4894 27.5718 52.2075 27.4557 51.9136 27.4555ZM32.5165 13.3774L50.6125 13.437L48.84 23.3409L34.6253 23.366L32.5165 13.3774ZM35.5618 32.5925C35.015 32.5925 34.5687 32.1471 34.5687 31.6015C34.5687 31.0558 35.015 30.6104 35.5618 30.6104C36.1087 30.6104 36.5549 31.0558 36.5549 31.6015C36.5549 31.8643 36.4503 32.1164 36.2641 32.3022C36.0778 32.4881 35.8252 32.5925 35.5618 32.5925ZM45.7789 32.5925C45.2321 32.5925 44.7858 32.1471 44.7858 31.6015C44.7858 31.0558 45.2321 30.6104 45.7789 30.6104C46.3258 30.6104 46.772 31.0558 46.772 31.6015C46.772 31.8643 46.6674 32.1164 46.4812 32.3022C46.2949 32.4881 46.0423 32.5925 45.7789 32.5925Z" fill="white"/>
</svg>
