<svg width="537" height="220" viewBox="0 0 537 220" fill="#1a4274" xmlns="http://www.w3.org/2000/svg">
<path d="M0 85.2395V170.75H85.703H171.406V85.2395V-0.27092H85.703H0V85.2395ZM164.897 7.08947C164.897 8.06364 165.005 43.8914 165.222 86.6467L165.439 164.256H86.0285H6.50909V84.6983V5.14113H85.703C159.907 5.14113 164.897 5.35762 164.897 7.08947Z" fill="#1a4274"/>
<path d="M22.7812 27.3319V37.6148H31.46H40.1388V85.2409V132.867H31.46H22.7812V143.258V153.541L69.2128 153.108C118.465 152.675 118.899 152.675 129.856 147.047C136.473 143.691 143.959 135.573 146.454 128.862C150.793 117.28 148.298 101.802 140.704 93.2507C137.45 89.4623 128.445 84.1585 125.408 84.1585C122.153 84.1585 122.587 82.1019 126.167 80.37C136.039 75.7157 142.223 64.6751 142.223 51.7944C142.332 34.8005 132.785 23.4352 114.451 18.6726C109.244 17.3737 100.239 17.049 65.4158 17.049H22.7812V27.3319ZM111.196 40.3208C120.526 44.9752 123.347 56.4488 117.489 65.541C112.281 73.5509 102.735 75.9322 78.3255 75.2827L63.4631 74.958L63.1376 56.2323L62.9206 37.5066L84.8346 37.8313C104.253 38.156 107.399 38.3725 111.196 40.3208ZM116.621 98.8793C119.007 100.07 122.153 102.776 123.455 104.833C125.625 107.972 125.95 109.487 125.625 114.899C125.191 120.852 124.757 121.61 120.201 125.831C117.489 128.429 113.475 131.027 111.088 131.676C108.701 132.326 97.3103 132.867 84.9431 132.867H62.9206V114.358V95.9568L87.6552 96.2815C110.112 96.6062 112.607 96.8227 116.621 98.8793Z" fill="#1a4274"/>
<path d="M183.122 84.8066C182.905 131.567 183.014 170.101 183.231 170.317C183.448 170.534 221.96 170.75 268.717 170.75H353.66V85.2395V-0.27092H268.5H183.339L183.122 84.8066ZM348.019 84.9148L348.236 164.256H268.5H188.763V85.456C188.763 42.0513 189.089 6.22355 189.523 5.89882C189.848 5.46586 225.648 5.24938 268.934 5.35762L347.694 5.68234L348.019 84.9148Z" fill="#1a4274"/>
<path d="M242.682 14.991C232.484 17.3723 221.961 25.8151 217.296 35.2321C214.693 40.6442 214.259 42.7007 214.259 51.1436C214.259 61.21 215.56 65.5396 221.202 73.9824L223.48 77.3379L217.405 81.4511C204.495 90.3268 198.962 101.8 199.83 117.604C200.481 128.644 203.41 135.247 210.896 142.716C220.225 152.024 232.918 156.137 251.143 156.029C266.548 155.921 276.963 152.457 289.873 143.473C291.5 142.283 292.585 142.932 297.575 147.803L303.325 153.431H318.73H334.134V149.751C334.134 146.287 333.158 145.205 320.574 135.03C313.088 129.077 307.013 123.557 307.013 122.907C307.013 121.825 318.621 97.2543 319.597 96.1718C319.923 95.8471 323.937 95.7389 328.71 95.9554L337.389 96.1718V85.7807V75.4978H310.81H284.123L284.448 85.456L284.774 95.5224H290.09C293.019 95.5224 295.622 95.9554 295.839 96.6048C295.948 97.146 294.863 100.501 293.127 103.965L290.198 110.243L275.553 98.5532C260.582 86.5384 244.851 71.8176 241.38 66.5138C240.295 64.8902 238.885 60.9935 238.125 57.8545C234.328 41.5101 247.13 29.8201 263.836 34.3662C268.501 35.6651 275.878 43.4584 277.722 49.087L279.024 52.8754L288.896 52.5507L298.877 52.226L299.202 34.5827L299.528 17.0476H289.222C279.567 17.0476 278.807 17.1559 278.807 19.2124C278.807 21.9185 278.59 21.9185 273.925 18.7795C267.308 14.2333 253.096 12.5015 242.682 14.991ZM249.516 103.208C266.114 118.794 271.539 123.665 273.491 125.072C276.854 127.345 275.878 129.077 269.803 132.108C253.53 140.009 233.677 137.195 224.89 125.613C222.178 122.15 221.853 120.743 221.853 113.923C221.853 107.104 222.178 105.697 224.999 102.125C226.626 99.852 229.989 96.6048 232.484 94.873L236.823 91.734L239.644 94.1153C241.163 95.5224 245.611 99.5273 249.516 103.208Z" fill="#1a4274"/>
<path d="M365.594 85.2395V170.75H451.297H537V85.2395V-0.27092H451.297H365.594V85.2395ZM530.491 84.6983V164.256H451.08H371.56L371.777 85.0231C371.994 41.4019 372.103 5.5741 372.103 5.35762C372.103 5.24938 407.794 5.14113 451.297 5.14113H530.491V84.6983Z" fill="#1a4274"/>
<path d="M388.377 27.3308V37.6137H397.056H405.735V85.2398V132.866H397.056H388.377V143.149V153.432H432.096C471.042 153.432 476.684 153.215 483.41 151.483C497.513 147.695 505.107 142.499 510.422 132.758C516.606 121.284 515.087 103.424 507.059 94.1155C503.913 90.3271 495.668 85.348 489.919 83.6161C488.292 83.1832 488.942 82.4255 493.173 79.503C499.357 75.3898 504.998 68.3542 506.625 62.7256C507.168 60.5608 507.71 55.0405 507.71 50.4944C507.71 34.0417 498.489 23.5423 479.83 18.7797C474.405 17.3726 465.944 17.0479 430.795 17.0479H388.377V27.3308ZM476.25 39.995C485.796 44.8658 488.942 55.6899 483.518 65.1069C478.853 73.225 468.33 75.931 443.813 75.2816L429.059 74.9569L428.733 56.2311L428.516 37.6137H449.996C470.066 37.6137 471.802 37.7219 476.25 39.995ZM482.216 98.7699C488.834 102.125 491.763 107.213 491.221 114.465C490.678 121.609 487.858 126.047 481.348 129.727C476.901 132.216 476.141 132.325 452.925 132.325H429.059L428.733 114.14L428.516 95.9556L453.142 96.2803C475.273 96.6051 478.311 96.8216 482.216 98.7699Z" fill="#1a4274"/>
<path d="M195.598 194.131C191.258 196.295 189.414 201.383 190.065 208.851C190.824 215.995 194.404 219.784 200.479 219.675C208.399 219.567 211.762 215.346 211.762 205.604C211.762 199.651 209.592 195.538 205.47 193.698C201.89 191.966 199.72 192.074 195.598 194.131ZM205.144 195.971C211.111 200.517 210.785 212.748 204.602 216.861C198.201 220.974 191.584 214.48 192.343 205.063C193.102 196.62 199.828 191.858 205.144 195.971Z" fill="#1a4274"/>
<path d="M305.168 193.156C298.551 194.455 295.296 208.418 300.069 214.805C303.432 219.243 306.904 220.65 311.569 219.459C316.668 217.944 319.054 215.021 319.705 209.393C320.465 202.682 318.403 197.053 314.172 194.455C310.809 192.399 309.725 192.291 305.168 193.156ZM313.413 196.404C317.969 200.192 318.295 211.341 313.955 215.671C312.979 216.537 311.026 217.619 309.508 217.944C301.48 220 297.14 203.115 303.975 196.728C306.904 194.022 310.375 193.914 313.413 196.404Z" fill="#1a4274"/>
<path d="M20.6133 206.47C20.6133 207.228 43.7206 207.553 87.8739 207.553C132.027 207.553 155.135 207.228 155.135 206.47C155.135 205.713 132.027 205.388 87.8739 205.388C43.7206 205.388 20.6133 205.713 20.6133 206.47Z" fill="#1a4274"/>
<path d="M381.867 206.47C381.867 207.228 404.974 207.553 449.128 207.553C493.281 207.553 516.388 207.228 516.388 206.47C516.388 205.713 493.281 205.388 449.128 205.388C404.974 205.388 381.867 205.713 381.867 206.47Z" fill="#1a4274"/>
</svg>


